<svg width="108" height="68" viewBox="0 0 108 68" fill="none" xmlns="http://www.w3.org/2000/svg">
<path d="M0.479797 66.9562C34.6306 66.8518 72.9414 66.8518 107.092 66.9562C72.9414 67.0589 34.6306 67.0589 0.479797 66.9562Z" fill="#263238"/>
<path d="M3.82837 62.1432C3.13812 62.1685 2.36873 62.2072 1.79801 61.7594C1.26938 61.3469 0.797982 60.7307 0.868691 60.0237C0.888894 59.8216 0.93435 59.697 1.15153 59.7829C1.48824 59.9142 1.73403 60.2779 1.96131 60.5321C2.25122 60.8647 2.57196 61.1691 2.91925 61.4412C3.16505 61.6281 3.42432 61.7914 3.68022 61.9749L3.7745 62.0439L3.80985 62.0708H3.83005C3.83546 62.0709 3.84076 62.0723 3.84547 62.075C3.85018 62.0776 3.85415 62.0814 3.85699 62.086C3.85786 62.0899 3.85786 62.0939 3.85699 62.0978C3.85903 62.1076 3.85718 62.1178 3.85184 62.1263C3.84651 62.1348 3.83809 62.1408 3.82837 62.1432Z" fill="#FFD613"/>
<path d="M3.86374 62.0981C3.25597 62.088 2.60107 62.1149 2.11621 61.7041C1.89373 61.5064 1.70345 61.2752 1.55222 61.0189C1.4832 60.9044 1.27275 60.5643 1.35862 60.428C1.51687 60.1839 2.24079 61.1822 2.34012 61.2698C2.72092 61.6151 3.1851 61.8553 3.68696 61.9667L3.78124 62.0358C3.42537 61.9637 3.08398 61.8328 2.77111 61.6486C2.34012 61.3927 2.09769 61.0122 1.76098 60.6586C1.68859 60.5812 1.46805 60.3219 1.38555 60.4903C1.33168 60.5963 1.5337 60.9297 1.57748 60.9953C1.7215 61.2382 1.90143 61.4578 2.11116 61.6469C2.59434 62.0694 3.24587 62.0543 3.857 62.0795C3.8615 62.0846 3.86391 62.0913 3.86374 62.0981Z" fill="white"/>
<path d="M4.20886 62.5641L4.19371 62.6449C4.19305 62.6479 4.19161 62.6508 4.18955 62.6531C4.18749 62.6555 4.18487 62.6573 4.18193 62.6584C4.17863 62.66 4.17503 62.661 4.17134 62.6612C4.16765 62.6615 4.16395 62.6609 4.16048 62.6597C4.157 62.6584 4.15383 62.6564 4.15115 62.6539C4.14846 62.6514 4.14633 62.6483 4.14489 62.6449C4.1432 62.6394 4.1432 62.6335 4.14489 62.6281C4.14489 62.6281 4.14489 62.6281 4.14489 62.618V62.5944C4.02367 62.1381 3.97653 61.6634 3.8469 61.2055C3.71727 60.7475 3.5708 60.3418 3.48157 59.8973C3.42601 59.6162 3.23072 58.2138 3.85195 58.3821C4.12637 58.4596 4.31493 58.8586 4.41931 59.096C4.55537 59.4163 4.63291 59.7584 4.64827 60.1061C4.69878 60.9597 4.38395 61.7408 4.20886 62.5641Z" fill="#FFD613"/>
<path d="M4.40751 60.8098C4.42081 60.4885 4.38735 60.167 4.30818 59.8553C4.28124 59.7475 4.13982 59.229 3.97147 59.2424C3.85699 59.2424 3.83847 59.4731 3.82837 59.5472C3.78965 59.8603 3.89066 60.1802 3.95127 60.4849C4.07306 61.1059 4.14902 61.735 4.17855 62.3671C4.17855 62.4058 4.16676 62.4462 4.16339 62.4866C4.16003 62.5271 4.16339 62.5523 4.14993 62.586C4.13646 62.6196 4.14993 62.6079 4.14993 62.6196C4.14993 62.6314 4.14993 62.6365 4.14993 62.6466C4.15317 62.6527 4.15855 62.6575 4.16506 62.66C4.17157 62.6625 4.17876 62.6625 4.18528 62.6601C4.18528 62.6348 4.18528 62.6095 4.19706 62.5843C4.19706 62.6045 4.19706 62.6247 4.19706 62.6466C4.19706 62.623 4.19706 62.6028 4.20885 62.5809C4.20964 62.5759 4.20964 62.5708 4.20885 62.5658C4.20885 62.5304 4.20885 62.4951 4.20885 62.4614C4.30781 61.9153 4.37415 61.3638 4.40751 60.8098ZM4.19875 62.2324C4.18191 61.8637 4.14488 61.495 4.09269 61.1297C4.0506 60.8334 3.99504 60.5421 3.92433 60.2509C3.88424 60.085 3.85778 59.9161 3.8452 59.7458C3.8452 59.6179 3.85867 59.1431 4.10279 59.4361C4.27114 59.6499 4.32333 60.1095 4.34353 60.3671C4.36487 60.6582 4.35924 60.9507 4.3267 61.2408C4.30313 61.5775 4.24757 61.9058 4.19875 62.2324Z" fill="white"/>
<path d="M4.58093 64.458C4.57255 64.4591 4.56406 64.4591 4.55568 64.458C3.92435 64.426 3.08426 64.485 2.55899 64.0674C2.17009 63.7594 1.78961 63.1499 1.9125 62.6331C2.05224 62.0506 2.83846 62.7492 3.04722 62.9176C3.5903 63.3904 4.10681 63.8928 4.5944 64.4227V64.4345C4.60955 64.4496 4.59608 64.4547 4.58093 64.458Z" fill="#FFD613"/>
<path d="M4.60281 64.4394L4.49337 64.3721C4.07922 64.1095 3.67517 63.8317 3.28627 63.5303C3.18694 63.4563 2.47648 62.8232 2.37042 63.0488C2.30644 63.1869 2.53878 63.4647 2.61454 63.5539C2.74955 63.7222 2.91172 63.8667 3.09435 63.9815C3.51523 64.2442 4.02535 64.2997 4.50179 64.426L4.56914 64.4445H4.58092C4.59607 64.4546 4.60786 64.4495 4.60281 64.4394ZM3.35361 64.0808C3.15345 63.9884 2.96976 63.8639 2.80983 63.7122C2.70376 63.6111 2.33001 63.234 2.42934 63.0791C2.48322 62.9966 2.52699 63.0404 2.62632 63.0892C2.67269 63.1124 2.71766 63.1383 2.761 63.1667C2.86707 63.2357 2.96471 63.3182 3.06236 63.3956C3.23071 63.5354 3.41085 63.6684 3.59099 63.7997C3.88393 64.0135 4.18529 64.2138 4.49337 64.4058C4.12131 64.2896 3.71558 64.2425 3.35361 64.0808Z" fill="white"/>
<path d="M5.73417 63.1585C5.56972 63.8816 5.19341 64.5393 4.65333 65.0474H4.64154C4.63541 65.0493 4.62884 65.0491 4.62279 65.047C4.61674 65.0449 4.61152 65.0409 4.60787 65.0356C4.60348 65.0305 4.60107 65.0239 4.60107 65.0171C4.60107 65.0103 4.60348 65.0038 4.60787 64.9986L4.63986 64.9666C4.74424 64.1097 4.86041 63.2561 4.94795 62.3958C4.96815 62.1921 5.12809 60.9025 5.52372 61.113C5.76952 61.2426 5.78467 61.7712 5.80656 62.0086C5.84136 62.3933 5.81695 62.7811 5.73417 63.1585Z" fill="#FFD613"/>
<path d="M5.50521 62.0086C5.48333 61.9362 5.44629 61.8621 5.36548 61.9126C5.21227 62.0086 5.15167 62.6163 5.12473 62.783C5.01867 63.4766 4.85536 64.1416 4.68869 64.8184C4.67522 64.8757 4.66007 64.9329 4.6466 64.9868L4.60788 65.0373C4.61124 65.0424 4.61617 65.0463 4.62193 65.0485C4.62769 65.0506 4.63398 65.0508 4.63987 65.0491C4.63987 65.0491 4.63987 65.0373 4.63987 65.0322C4.63987 65.0272 4.67522 64.9868 4.69037 64.9632C4.96092 64.5926 5.17168 64.1819 5.31497 63.746C5.40465 63.4723 5.46669 63.1903 5.50016 62.9042C5.53552 62.6349 5.58602 62.2678 5.50521 62.0086ZM4.69542 64.9211C4.68701 64.9319 4.67914 64.9432 4.67185 64.9548C4.67185 64.9312 4.68701 64.9093 4.69374 64.8858C4.85583 64.3693 4.98461 63.8429 5.07927 63.31C5.12473 63.0389 5.15335 62.7662 5.21059 62.4985C5.23248 62.384 5.28972 62.0608 5.37895 62.0086C5.46817 61.9564 5.47154 62.081 5.48164 62.155C5.48498 62.2207 5.48498 62.2864 5.48164 62.352C5.49732 63.2699 5.2221 64.1692 4.69542 64.9211Z" fill="white"/>
<path d="M4.7577 66.8974H4.62638C4.62638 66.7863 4.62638 66.6752 4.62638 66.5607C4.61123 66.1129 4.59439 65.6651 4.56746 65.2139C4.5523 64.9596 4.53378 64.7088 4.50685 64.4546C4.50601 64.4456 4.50601 64.4366 4.50685 64.4276C4.50685 64.4074 4.50685 64.3872 4.49843 64.367C4.49001 64.3468 4.49843 64.3216 4.49843 64.2997C4.44172 63.731 4.2957 63.1747 4.06576 62.6515C3.98495 62.4831 3.8974 62.3148 3.80481 62.1464L3.77956 62.0993V62.0858L3.75262 62.0353C3.74434 62.0236 3.73702 62.0112 3.73073 61.9983C3.43779 61.4848 3.10445 60.9882 2.78794 60.4999L2.51689 60.074C2.51025 60.066 2.50512 60.0569 2.50174 60.0471C2.4935 60.038 2.48669 60.0278 2.48154 60.0168C2.08254 59.3888 1.69195 58.7558 1.2778 58.1396C1.26265 58.116 1.29969 58.0958 1.31484 58.1194C1.59431 58.5268 1.8822 58.9292 2.17008 59.3349L2.28456 59.5033L2.48827 59.8114C2.63811 60.0252 2.78458 60.239 2.92936 60.4562C3.35519 61.0583 3.74316 61.6864 4.09101 62.3367C4.11626 62.3872 4.13983 62.436 4.1634 62.4865C4.18697 62.537 4.19371 62.5488 4.20549 62.5791C4.21728 62.6094 4.23916 62.6515 4.256 62.6869C4.51221 63.3198 4.65579 63.9927 4.68025 64.6751C4.68025 64.7223 4.68025 64.7711 4.68867 64.8182V64.8856C4.68783 64.8973 4.68783 64.9092 4.68867 64.9209C4.68789 64.9361 4.68789 64.9512 4.68867 64.9664C4.68867 64.9765 4.68867 64.9883 4.68867 65.0001V65.123C4.70719 65.5708 4.71897 66.0203 4.72739 66.4698C4.74086 66.6112 4.75096 66.7537 4.7577 66.8974Z" fill="#FFD613"/>
<path d="M0.989919 58.7762C0.65321 58.3116 0.202019 57.3536 0.71045 56.8553C0.802815 56.7585 0.927796 56.6994 1.06121 56.6895C1.19463 56.6795 1.32699 56.7194 1.43269 56.8014C1.70206 56.9967 1.82328 57.3637 1.90914 57.6685C2.14315 58.4816 2.29804 59.3099 2.58256 60.1062C2.58256 60.1062 2.60613 60.1736 2.61454 60.1921C2.62296 60.2106 2.59434 60.2157 2.58761 60.1921C2.58087 60.1685 2.56909 60.1399 2.55899 60.1147C2.0152 59.7224 1.39902 59.3268 0.989919 58.7762Z" fill="#FFD613"/>
<path d="M2.59434 60.1081L2.58592 60.0946C2.46867 59.9007 2.36298 59.7 2.26942 59.4936C2.07293 59.0609 1.90423 58.6161 1.76435 58.1619C1.7088 57.9936 1.45963 57.1333 1.15491 57.4733C1.02696 57.6164 1.04548 57.8707 1.06568 58.0458C1.10007 58.3277 1.1899 58.6 1.33 58.8471C1.62282 59.3236 2.01434 59.7317 2.47818 60.0441L2.53878 60.0913L2.55057 60.1115L2.56067 60.1266C2.5632 60.1277 2.56593 60.1282 2.56868 60.1282C2.57144 60.1282 2.57416 60.1276 2.57668 60.1265C2.5792 60.1254 2.58148 60.1238 2.58335 60.1218C2.58523 60.1198 2.58668 60.1174 2.58761 60.1148C2.5906 60.1135 2.59299 60.1111 2.59434 60.1081ZM2.45966 60.0138C2.08705 59.7403 1.75884 59.4109 1.48657 59.0374C1.34954 58.8394 1.24287 58.6221 1.17006 58.3926C1.13795 58.2898 1.11485 58.1845 1.10103 58.0777C1.08979 57.9986 1.08529 57.9186 1.08757 57.8387C1.08757 57.6703 1.16501 57.4717 1.26939 57.4531C1.37377 57.4346 1.43774 57.5053 1.52529 57.6518C1.55357 57.7019 1.57887 57.7536 1.60105 57.8067C1.65624 57.9386 1.70401 58.0735 1.74415 58.2107C1.81654 58.4363 1.88894 58.6619 1.96975 58.8842C2.0253 59.0357 2.08254 59.1838 2.1482 59.332C2.25726 59.5857 2.38383 59.8315 2.527 60.0677C2.50343 60.0509 2.48154 60.0323 2.45966 60.0138Z" fill="white"/>
<path d="M7.65678 60.7461C7.43792 61.1552 7.19044 61.5491 6.93959 61.938C6.79817 62.1603 6.65339 62.3791 6.51197 62.6014C6.37055 62.8236 6.17526 63.0862 6.1399 63.3808C6.13724 63.3936 6.13329 63.406 6.12812 63.4179C6.12289 63.4213 6.11679 63.4233 6.11052 63.4235C6.10425 63.4236 6.09805 63.4221 6.09262 63.4189C6.08719 63.4158 6.08275 63.4112 6.07981 63.4056C6.07686 63.4001 6.07551 63.3938 6.07593 63.3876C6.07593 63.3876 6.07593 63.3741 6.07593 63.3674C6.06604 63.2812 6.06604 63.1942 6.07593 63.1081C6.06448 62.3913 6.17843 61.6779 6.41264 61.0003C6.55158 60.5942 6.74347 60.2081 6.98336 59.8521C7.18034 59.571 7.46991 59.1484 7.79483 58.9986C8.08945 58.8656 8.13154 59.278 8.13154 59.4767C8.09956 59.9279 7.85712 60.3589 7.65678 60.7461Z" fill="#FFD613"/>
<path d="M7.61806 59.6851C7.46149 59.6245 7.15172 60.0875 7.0103 60.2845C6.7895 60.5951 6.60746 60.9314 6.4682 61.2862C6.22356 61.9245 6.08811 62.5995 6.06751 63.2829C6.06751 63.3098 6.06751 63.3384 6.06751 63.3653V63.3856C6.06664 63.3918 6.06762 63.3981 6.07032 63.4038C6.07303 63.4095 6.07734 63.4142 6.08273 63.4174C6.08812 63.4207 6.09434 63.4222 6.10061 63.422C6.10689 63.4217 6.11294 63.4196 6.11802 63.4159C6.1298 63.3603 6.14159 63.3047 6.15506 63.2475C6.16852 63.1903 6.18199 63.1499 6.19714 63.101C6.37491 62.5729 6.60797 62.065 6.89245 61.5858C7.19886 61.0269 7.82513 59.7676 7.61806 59.6851ZM6.12644 63.1987C6.10792 63.2711 6.09276 63.3451 6.07929 63.4175L6.0894 63.2492C6.12214 62.6486 6.23539 62.0552 6.42611 61.4848C6.5371 61.1641 6.68274 60.8564 6.86046 60.5673C6.95496 60.4119 7.05957 60.2629 7.1736 60.1212C7.22074 60.0605 7.49853 59.6817 7.58775 59.7407C7.65005 59.7811 7.51873 60.1683 7.51536 60.1767C7.49011 60.2542 7.46149 60.3316 7.4295 60.4074C7.36721 60.5656 7.29482 60.7188 7.22074 60.8703C7.05239 61.1986 6.88403 61.5185 6.71568 61.8417C6.46732 62.2697 6.26957 62.725 6.12644 63.1987Z" fill="white"/>
<path d="M9.65514 62.8872C9.15007 63.3367 8.50022 63.5792 7.85711 63.7526C7.5204 63.8469 7.16517 63.9209 6.81836 64.0085C6.50477 64.0671 6.19792 64.1574 5.90251 64.2778C5.8891 64.2836 5.87615 64.2903 5.86379 64.2981C5.78332 64.3376 5.70764 64.3862 5.63819 64.4428C5.63555 64.444 5.63268 64.4447 5.62977 64.4447C5.62687 64.4447 5.624 64.444 5.62136 64.4428L5.60284 64.463C5.60284 64.463 5.58937 64.463 5.59273 64.463C5.59787 64.455 5.60238 64.4465 5.6062 64.4378C5.6041 64.4345 5.60298 64.4307 5.60298 64.4268C5.60298 64.423 5.6041 64.4192 5.6062 64.4159L5.62136 64.3906C5.95807 63.7661 6.67189 63.2812 7.2544 62.926C7.82705 62.5492 8.49202 62.3367 9.17701 62.3115C9.34536 62.3115 9.75447 62.2845 9.86053 62.4663C9.96659 62.6482 9.76289 62.793 9.65514 62.8872Z" fill="#FFD613"/>
<path d="M9.21068 62.7174C9.1265 62.5289 8.5945 62.7174 8.46318 62.7494C8.0689 62.8785 7.68645 63.0413 7.32005 63.236C6.71144 63.5205 6.15128 63.8989 5.66007 64.3572L5.63987 64.369C5.63987 64.3791 5.62977 64.3875 5.62472 64.3959C5.62247 64.3994 5.62128 64.4035 5.62128 64.4077C5.62128 64.4119 5.62247 64.416 5.62472 64.4195L5.65334 64.4043C5.72742 64.3606 5.80318 64.3219 5.88062 64.2831L5.91934 64.2646C6.46207 64.0246 7.01929 63.8188 7.58774 63.6484C7.98228 63.5236 8.36394 63.3612 8.7275 63.1636C8.80326 63.1265 9.28139 62.8774 9.21068 62.7174ZM8.96825 62.97C8.41099 63.401 7.66518 63.5845 7.00691 63.8016C6.55899 63.9362 6.12535 64.1143 5.71226 64.3336C6.16977 63.9328 6.67947 63.5959 7.22746 63.3319C7.53385 63.1695 7.84918 63.0244 8.17193 62.8976C8.3464 62.8278 8.52594 62.7716 8.70898 62.7292C8.81922 62.7023 8.93221 62.6881 9.04569 62.6871C9.2595 62.704 9.06421 62.8959 8.96825 62.97Z" fill="white"/>
<path d="M5.03044 65.7425C5.02513 65.7458 5.01901 65.7475 5.01276 65.7475C5.00652 65.7475 5.0004 65.7458 4.99509 65.7425C4.99433 65.747 4.99433 65.7515 4.99509 65.756C4.99674 65.7578 4.99766 65.7602 4.99766 65.7627C4.99766 65.7652 4.99674 65.7676 4.99509 65.7694C4.99285 65.771 4.99021 65.7718 4.98751 65.7718C4.98481 65.7718 4.98217 65.771 4.97993 65.7694C4.65838 65.022 4.40079 64.1667 4.41426 63.3485C4.41503 63.0049 4.47189 62.6637 4.58262 62.3384C4.66174 62.1145 4.82168 61.665 5.07253 61.5791C5.5776 61.4107 5.39409 62.9074 5.36547 63.1347C5.31328 63.5472 5.22573 63.9546 5.16681 64.367C5.10115 64.8182 5.06916 65.2728 5.03718 65.7274C5.03605 65.7328 5.03375 65.738 5.03044 65.7425Z" fill="#FFD613"/>
<path d="M5.03045 65.7427C5.03045 65.7006 5.01698 65.6568 5.01193 65.6131C4.91381 64.9165 4.92347 64.209 5.04055 63.5154C5.10979 63.1669 5.14977 62.8132 5.16008 62.4581C5.16008 62.3705 5.17691 62.0422 4.99172 62.1416C4.89744 62.1921 4.73582 62.7679 4.7072 62.9194C4.64501 63.2698 4.62635 63.6266 4.65165 63.9817C4.6845 64.5766 4.79254 65.1649 4.9732 65.7326L4.98836 65.7831C4.99001 65.7812 4.99093 65.7788 4.99093 65.7764C4.99093 65.7739 4.99001 65.7715 4.98836 65.7696C4.9874 65.7652 4.9874 65.7606 4.98836 65.7562C4.99582 65.7594 5.00419 65.7598 5.01192 65.7573C5.01965 65.7548 5.02623 65.7496 5.03045 65.7427ZM4.71562 64.2662C4.67467 63.9157 4.67072 63.5619 4.70384 63.2106C4.71932 63.0709 4.74236 62.9321 4.77286 62.7948C4.79626 62.6872 4.8272 62.5815 4.86546 62.4783C4.96479 62.2291 5.01024 62.1719 5.0557 62.1803C5.10115 62.1887 5.10957 62.2258 5.12472 62.4042C5.13264 62.5193 5.12869 62.635 5.11294 62.7493C5.0961 62.9177 5.07253 63.0743 5.0456 63.2359C4.99509 63.5591 4.93953 63.8824 4.9126 64.209C4.87239 64.6772 4.8939 65.1487 4.97657 65.6114C4.85244 65.171 4.76515 64.7211 4.71562 64.2662Z" fill="white"/>
<path d="M7.24429 65.0898C7.07926 65.3292 6.86449 65.5302 6.61464 65.679C6.13146 65.9921 5.58768 66.1975 5.08261 66.477C5.00854 66.5174 4.93278 66.5612 4.86039 66.6066C4.86039 66.6066 4.77789 66.6874 4.78126 66.6807L4.83513 66.5915C5.00349 66.3255 5.52034 65.5241 5.91934 65.1655C6.16414 64.9365 6.43544 64.7376 6.72744 64.5729C6.86886 64.5005 7.19042 64.3507 7.34362 64.4685C7.49682 64.5864 7.32005 64.9618 7.24429 65.0898Z" fill="#FFD613"/>
<path d="M7.03219 64.8034C6.89077 64.6182 6.08604 65.2832 5.97997 65.3691C5.58593 65.6831 5.23498 66.0476 4.93617 66.4533C4.90082 66.4987 4.86883 66.5459 4.83516 66.5913L4.7796 66.6806C4.7796 66.6806 4.85199 66.6132 4.86041 66.6065L4.89745 66.5829L5.08264 66.4769C5.40925 66.2479 5.74091 66.024 6.06247 65.7866C6.29623 65.6185 6.51634 65.4322 6.72073 65.2293C6.76619 65.1822 7.0928 64.8842 7.03219 64.8034ZM6.88572 65.0223C6.33688 65.6603 5.57592 66.0324 4.9126 66.5375L4.88061 66.561L4.91934 66.5105C5.17393 66.1802 5.45916 65.8747 5.77121 65.598C5.96219 65.4309 6.16288 65.2752 6.37224 65.1317C6.48386 65.0478 6.60083 64.9714 6.72242 64.9027C6.77629 64.8758 6.92781 64.8068 6.95811 64.8404C6.98842 64.8741 6.92276 64.9802 6.88572 65.0307V65.0223Z" fill="white"/>
<path d="M11.4599 59.7039C10.4245 60.7511 8.76623 60.7814 7.6635 61.7545L7.56417 61.8471C7.56095 61.8501 7.55701 61.8523 7.55272 61.8535C7.54843 61.8547 7.54391 61.8548 7.53957 61.8538C7.53524 61.8528 7.53122 61.8507 7.52787 61.8478C7.52453 61.8449 7.52196 61.8411 7.5204 61.837C7.5183 61.8337 7.51718 61.8299 7.51718 61.826C7.51718 61.8221 7.5183 61.8183 7.5204 61.8151C7.52742 61.8069 7.53533 61.7996 7.54397 61.7932C7.9684 61.0667 8.51981 60.4224 9.17196 59.8908C9.71238 59.4312 10.3504 59.049 11.071 58.98C11.2394 58.9615 11.5963 58.9143 11.7124 59.1029C11.8286 59.2914 11.5879 59.576 11.4599 59.7039Z" fill="#FFD613"/>
<path d="M10.9464 59.5674C10.8959 59.4882 10.7663 59.5101 10.6939 59.5185C10.5144 59.5375 10.3379 59.5788 10.1686 59.6414C9.82057 59.7692 9.49369 59.9486 9.1989 60.1734C8.68216 60.5414 8.21332 60.9723 7.80324 61.4563C7.71179 61.5641 7.62582 61.6765 7.54565 61.793L7.51535 61.8368C7.5172 61.8407 7.51991 61.8441 7.52327 61.8468C7.52664 61.8496 7.53058 61.8515 7.53479 61.8524C7.539 61.8534 7.54338 61.8534 7.54759 61.8524C7.55181 61.8515 7.55575 61.8496 7.55912 61.8469C7.59111 61.8149 7.62141 61.7863 7.65508 61.7577H7.6635C7.86886 61.5469 8.09441 61.3569 8.33692 61.1903C8.722 60.9465 9.12239 60.7277 9.53561 60.5354C9.6905 60.4512 11.1198 59.8367 10.9464 59.5674ZM10.7461 59.8249C10.4468 60.0367 10.1264 60.2167 9.78982 60.362C9.46322 60.5303 9.13492 60.6987 8.81168 60.8671C8.55515 61.0004 8.30969 61.1541 8.07765 61.3267C7.88504 61.4744 7.70588 61.6389 7.54229 61.8183C7.68394 61.6259 7.83744 61.4426 8.0019 61.2694C8.29779 60.9652 8.61268 60.6802 8.94468 60.4159L8.95647 60.4058C9.24253 60.1652 9.55619 59.9595 9.89084 59.793C10.074 59.7051 10.2666 59.6384 10.4649 59.5943C10.6905 59.5472 10.8774 59.532 10.901 59.6078C10.9245 59.6835 10.8286 59.7576 10.7461 59.8249Z" fill="white"/>
<path d="M8.9733 60.4394C8.67026 60.7306 8.37395 61.0303 8.07765 61.3299C7.9396 61.4714 7.79986 61.6128 7.6635 61.7542H7.65508L7.50356 61.9057C7.03079 62.3554 6.59502 62.8424 6.20049 63.362C6.00489 63.6443 5.83582 63.9442 5.69543 64.2576L5.65334 64.3536C5.65334 64.3721 5.63819 64.389 5.63145 64.4075C5.62652 64.4166 5.62257 64.4262 5.61967 64.4361C5.50182 64.7088 5.39912 64.9883 5.29979 65.2593C5.16006 65.6381 5.04894 66.0237 4.93951 66.4092C4.93893 66.4204 4.93893 66.4317 4.93951 66.4429C4.93951 66.4614 4.92941 66.4782 4.92268 66.4968C4.91594 66.5153 4.92268 66.5136 4.92268 66.5237L4.90753 66.5725C4.87385 66.6971 4.8385 66.8217 4.80146 66.9463L4.68698 66.9008C4.75055 66.5101 4.84283 66.1247 4.96308 65.7476C4.96308 65.7392 4.96308 65.7324 4.96308 65.724C4.97487 65.687 4.98665 65.6499 5.00012 65.6129C5.01359 65.5759 5.02874 65.5237 5.04558 65.4782C5.0843 65.3688 5.12134 65.261 5.16006 65.1533C5.37593 64.5193 5.66582 63.9129 6.02372 63.3468L6.05571 63.3014L6.06749 63.2829L6.08938 63.2492L6.12642 63.1987C6.14999 63.1684 6.17187 63.1381 6.19544 63.1095L6.21564 63.0825C6.59489 62.6273 7.00435 62.1982 7.44127 61.798C7.51871 61.7239 7.59447 61.6498 7.6736 61.5774L7.80323 61.4562L8.00189 61.2727C8.31503 60.9865 8.63322 60.707 8.94468 60.4191C8.96488 60.4006 8.98845 60.4259 8.9733 60.4394Z" fill="#FFD613"/>
<path d="M99.2031 50.4092C99.2031 50.4092 102.946 57.0137 102.946 57.0188C103.547 58.3505 104.048 59.529 104.252 60.1637C104.253 60.167 104.253 60.1705 104.252 60.1738C104.315 60.3167 104.344 60.4722 104.338 60.6283C104.338 60.6283 104.338 60.6384 104.338 60.6418C104.062 61.0879 93.5632 66.1975 93.1306 66.248C92.6979 66.2985 92.5144 65.0914 92.7652 64.5645C93.0161 64.0375 96.1643 60.2866 96.1643 60.2866L92.4958 53.6551L99.2031 50.4092Z" fill="#EB9481"/>
<path d="M93.2921 66.209C93.7181 66.1534 104.055 61.0876 104.331 60.6415C104.332 60.6376 104.332 60.6336 104.331 60.6297C104.338 60.473 104.309 60.3169 104.245 60.1735V60.1634C104.042 59.5303 103.54 58.3502 102.941 57.0185C102.941 57.0185 102.311 55.8636 102.06 55.4629L95.3781 58.9158L96.1559 60.2913C96.1559 60.2913 93.181 64.0052 92.9268 64.5254C92.6726 65.0456 92.8645 66.2645 93.2921 66.209Z" fill="#EBEBEB"/>
<path d="M93.1002 66.0675C93.5295 66.0018 103.996 60.6094 104.264 60.1515C104.368 59.9831 103.671 58.4073 102.776 56.5335C102.765 56.5144 102.755 56.4947 102.747 56.4746L95.9555 59.8787L96.0161 59.9915C96.0161 59.9915 92.9335 63.8519 92.6928 64.3822C92.4521 64.9126 92.676 66.1331 93.1002 66.0675Z" fill="#FFD613"/>
<path d="M93.0127 65.5995C94.7552 64.6483 101.872 60.9714 103.666 60.1616C103.68 60.1616 103.685 60.1616 103.666 60.1734C101.961 61.1549 94.8141 64.7729 93.0228 65.6281C92.9874 65.6466 92.9723 65.6197 93.0127 65.5995Z" fill="white"/>
<path d="M95.4606 60.3047C96.0869 59.8164 96.9909 59.4865 97.7771 59.707C97.8074 59.7154 97.794 59.7592 97.7771 59.7643C97.0033 59.892 96.2454 60.1019 95.5161 60.3905C95.5048 60.3979 95.4909 60.4005 95.4776 60.3976C95.4644 60.3948 95.4528 60.3868 95.4454 60.3754C95.4381 60.364 95.4355 60.3502 95.4384 60.3369C95.4412 60.3236 95.4492 60.312 95.4606 60.3047Z" fill="#263238"/>
<path d="M95.1138 60.8657C95.7417 60.3775 96.6458 60.0475 97.432 60.2681C97.4623 60.2765 97.4488 60.3202 97.432 60.3253C96.658 60.452 95.8999 60.662 95.171 60.9516C95.1596 60.9592 95.1457 60.9619 95.1323 60.9592C95.1188 60.9566 95.107 60.9487 95.0995 60.9373C95.0919 60.9259 95.0891 60.9119 95.0918 60.8985C95.0945 60.8851 95.1024 60.8733 95.1138 60.8657Z" fill="#263238"/>
<path d="M94.7686 61.4243C95.3966 60.9377 96.3007 60.6061 97.0852 60.8283C97.1155 60.8283 97.1037 60.8805 97.0768 60.8839C96.3034 61.0119 95.546 61.2225 94.8174 61.5118C94.806 61.5165 94.7933 61.5167 94.7817 61.5127C94.7701 61.5086 94.7604 61.5004 94.7544 61.4896C94.7484 61.4789 94.7465 61.4663 94.7491 61.4543C94.7518 61.4422 94.7587 61.4316 94.7686 61.4243Z" fill="#263238"/>
<path d="M101.622 58.539C102.186 57.7679 103.383 58.6417 102.819 59.4145C102.255 60.1872 101.058 59.3067 101.622 58.539Z" fill="white"/>
<path opacity="0.1" d="M95.5565 60.5708L94.804 65.2696C93.8561 65.741 93.2012 66.0508 93.1002 66.0676C92.6726 66.1332 92.4537 64.916 92.6911 64.384C92.8746 63.9783 94.6962 61.6634 95.5565 60.5708Z" fill="black"/>
<path d="M92.7467 65.7747C92.5969 65.943 92.9622 66.5508 93.1221 66.5323C93.2821 66.5138 104.67 60.5826 104.841 60.4395C105.013 60.2964 104.584 59.6365 104.336 59.7173C104.089 59.7981 92.7467 65.7747 92.7467 65.7747Z" fill="#FFD613"/>
<path opacity="0.4" d="M92.7467 65.7747C92.5969 65.943 92.9622 66.5508 93.1221 66.5323C93.2821 66.5138 104.67 60.5826 104.841 60.4395C105.013 60.2964 104.584 59.6365 104.336 59.7173C104.089 59.7981 92.7467 65.7747 92.7467 65.7747Z" fill="black"/>
<path d="M102.075 54.8451L94.5481 58.8655C94.5481 58.8655 85.0461 45.323 84.8559 41.7657C84.5949 36.8514 88.7887 21.2583 88.7887 21.2583L95.4808 21.2129C95.4808 21.2129 92.7602 37.2521 92.9807 39.9861C93.0969 41.4188 102.075 54.8451 102.075 54.8451Z" fill="#263238"/>
<path d="M93.8915 57.3098C94.2787 57.0303 97.8461 54.9629 100.563 53.6413C100.582 53.6329 100.594 53.6582 100.579 53.67C99.7536 54.2137 94.4286 57.1313 93.9117 57.3384C93.8932 57.3451 93.873 57.3216 93.8915 57.3098Z" fill="#37474F"/>
<path d="M92.0531 36.5585C92.3628 34.2116 92.7046 31.8664 93.0952 29.5313C93.4858 27.1963 93.8999 24.8393 94.3898 22.5126C94.4504 22.2287 94.5122 21.9447 94.575 21.6608C94.5776 21.6524 94.5831 21.6453 94.5906 21.6408C94.5981 21.6363 94.607 21.6347 94.6156 21.6364C94.6242 21.6381 94.6318 21.6429 94.6371 21.6499C94.6424 21.6568 94.6448 21.6655 94.6441 21.6742C94.2316 23.9824 93.8023 26.2905 93.4285 28.6054C93.0548 30.9203 92.6945 33.2402 92.3763 35.5652C92.2989 36.141 92.2214 36.7167 92.1473 37.2925C92.0568 37.8864 92.0006 38.4851 91.979 39.0855C91.9694 39.6597 92.067 40.2307 92.2669 40.769C92.4789 41.2958 92.7369 41.8028 93.038 42.2842C94.2484 44.3331 99.6711 53.2829 99.8109 53.5438C99.821 53.5606 99.7974 53.5792 99.7856 53.5623C98.4842 51.5421 94.4488 45.0941 93.2198 43.0115C92.6659 42.0738 92.0312 41.1226 91.851 40.0266C91.6659 38.8801 91.9032 37.6881 92.0531 36.5585Z" fill="#37474F"/>
<path d="M93.9807 54.8452C93.9807 54.8452 94.0565 62.4801 94.0565 62.4868C94.0161 63.9465 93.9538 65.226 93.8612 65.8842C93.8621 65.8881 93.8621 65.8922 93.8612 65.896C93.8553 66.0526 93.8138 66.2057 93.74 66.3438V66.3523C93.2972 66.6351 81.6184 66.6519 81.2093 66.5206C80.8002 66.3893 81.1588 65.2125 81.6117 64.8505C82.0646 64.4886 86.5361 62.4818 86.5361 62.4818V54.852L93.9807 54.8452Z" fill="#EB9481"/>
<path d="M94.0413 60.9178C94.0413 60.9178 94.0565 62.4801 94.0565 62.4869C94.0161 63.9465 93.9538 65.226 93.8612 65.8843C93.8621 65.8881 93.8621 65.8922 93.8612 65.896C93.8383 66.0495 93.7976 66.1998 93.74 66.3439V66.3523C93.2972 66.6351 81.6184 66.6519 81.2093 66.5206C80.8002 66.3893 81.1588 65.2125 81.6117 64.8505C82.0646 64.4886 86.5361 62.4818 86.5361 62.4818V60.8892L94.0413 60.9178Z" fill="#EBEBEB"/>
<path d="M81.1942 66.5019C81.6083 66.6332 93.3797 66.4261 93.8208 66.1332C93.9891 66.0255 94.0615 64.3082 94.0851 62.2307V62.1685L86.4889 62.2173V62.3469C86.4889 62.3469 82.0191 64.4412 81.5662 64.815C81.1134 65.1887 80.78 66.3773 81.1942 66.5019Z" fill="#FFD613"/>
<path d="M81.3187 66.0409C83.3037 65.9584 91.3106 65.8068 93.2719 65.8725C93.2871 65.8725 93.2871 65.8843 93.2719 65.8843C91.3072 66.0106 83.2986 66.0964 81.3187 66.0712C81.2783 66.0745 81.2767 66.0409 81.3187 66.0409Z" fill="white"/>
<path d="M85.8593 62.3772C86.6371 62.2172 87.595 62.3199 88.2011 62.8671C88.2247 62.8873 88.2011 62.921 88.1691 62.9126C87.4185 62.6855 86.6459 62.5387 85.8643 62.4748C85.8579 62.4752 85.8515 62.4742 85.8455 62.4721C85.8394 62.4699 85.8339 62.4666 85.8291 62.4623C85.8243 62.458 85.8204 62.4528 85.8177 62.447C85.8149 62.4412 85.8133 62.4349 85.813 62.4285C85.8127 62.4221 85.8136 62.4157 85.8157 62.4097C85.8179 62.4036 85.8212 62.398 85.8255 62.3933C85.8298 62.3885 85.835 62.3846 85.8408 62.3819C85.8466 62.3791 85.8529 62.3775 85.8593 62.3772Z" fill="#263238"/>
<path d="M85.3004 62.7273C86.0798 62.5674 87.0361 62.6701 87.6439 63.2155C87.6674 63.2374 87.6354 63.2711 87.6102 63.2627C86.8597 63.0353 86.087 62.8886 85.3054 62.825C85.2925 62.8256 85.2798 62.8211 85.2702 62.8124C85.2605 62.8038 85.2547 62.7916 85.2541 62.7787C85.2534 62.7657 85.2579 62.753 85.2666 62.7434C85.2753 62.7338 85.2874 62.728 85.3004 62.7273Z" fill="#263238"/>
<path d="M84.7431 63.0761C85.5209 62.9162 86.4788 63.0206 87.0849 63.566C87.1085 63.5879 87.0849 63.6199 87.0529 63.6132C86.3026 63.385 85.5299 63.2382 84.7481 63.1755C84.7364 63.174 84.7255 63.1684 84.7174 63.1597C84.7093 63.151 84.7046 63.1397 84.704 63.1279C84.7034 63.1161 84.707 63.1044 84.7141 63.0949C84.7213 63.0854 84.7315 63.0788 84.7431 63.0761Z" fill="#263238"/>
<path d="M81.0073 66.0826C80.7968 66.1668 80.8558 66.8738 81.0073 66.9244C81.1588 66.9749 93.9942 66.6971 94.2114 66.6432C94.4285 66.5893 94.3359 65.8014 94.0817 65.7745C93.8275 65.7476 81.0073 66.0826 81.0073 66.0826Z" fill="#FFD613"/>
<path opacity="0.4" d="M81.0073 66.0826C80.7968 66.1668 80.8558 66.8738 81.0073 66.9244C81.1588 66.9749 93.9942 66.6971 94.2114 66.6432C94.4285 66.5893 94.3359 65.8014 94.0817 65.7745C93.8275 65.7476 81.0073 66.0826 81.0073 66.0826Z" fill="black"/>
<path d="M92.1709 63.5156C93.0127 63.0728 93.7046 64.3877 92.8578 64.8288C92.011 65.2699 91.319 63.9601 92.1709 63.5156Z" fill="white"/>
<path d="M88.8728 21.2366C88.9166 21.3747 91.3224 27.9708 91.548 28.0702C91.8039 28.1897 86.2347 37.5435 85.9064 41.8904C85.6943 44.6699 86.1084 60.4094 86.1084 60.4094H94.2501C94.2501 60.4094 93.8595 46.2676 93.6726 41.786C93.6002 40.0486 99.2637 31.3968 99.3327 26.0095C99.3546 24.3108 98.1357 21.208 98.1357 21.208L88.8728 21.2366Z" fill="#263238"/>
<path d="M93.6306 41.6629C93.6306 41.5905 93.6861 41.5669 93.6912 41.641C93.8764 44.067 93.9184 46.4778 94.0279 48.9072C94.1373 51.3365 94.0784 51.914 94.1861 54.3366C94.2467 55.707 94.1861 57.0808 94.2215 58.4529C94.2203 58.4567 94.218 58.46 94.2148 58.4623C94.2116 58.4646 94.2078 58.4659 94.2038 58.4659C94.1999 58.4659 94.196 58.4646 94.1928 58.4623C94.1897 58.46 94.1873 58.4567 94.1861 58.4529C93.9403 56.0387 93.6322 43.0366 93.6306 41.6629Z" fill="#37474F"/>
<path d="M85.9098 41.9927C85.9212 41.3939 85.9775 40.7968 86.0782 40.2065C86.1912 39.6329 86.3604 39.0718 86.5832 38.5313C87.0327 37.3966 87.5647 36.2905 88.0732 35.1811C88.5816 34.0716 89.1136 32.9386 89.6557 31.8291C89.9621 31.2051 90.2696 30.5816 90.5783 29.9587C90.8914 29.3307 91.2281 28.7112 91.5547 28.09C91.5682 28.0664 91.6069 28.09 91.5952 28.1085C91.0733 29.2297 90.5581 30.3527 90.0362 31.4756C89.5143 32.5985 89.0008 33.7214 88.489 34.8427C87.9772 35.9639 87.4789 37.0566 87.0041 38.1744C86.7664 38.7073 86.5721 39.2585 86.4233 39.8226C86.2882 40.4047 86.2082 40.9983 86.1842 41.5954C86.1051 42.986 86.0664 44.3817 85.93 45.7689C85.93 45.7857 85.8997 45.7841 85.8997 45.7689C85.8509 44.513 85.8711 43.2486 85.9098 41.9927Z" fill="#37474F"/>
<path d="M86.7011 58.8013C87.1741 58.7407 90.782 58.6162 93.8006 58.7441C93.8046 58.7441 93.8085 58.7457 93.8113 58.7485C93.8141 58.7514 93.8157 58.7552 93.8157 58.7593C93.8157 58.7633 93.8141 58.7671 93.8113 58.77C93.8085 58.7728 93.8046 58.7744 93.8006 58.7744C92.8174 58.862 87.26 58.9007 86.7061 58.8367C86.6859 58.8317 86.6792 58.8013 86.7011 58.8013Z" fill="#37474F"/>
<path d="M90.4268 27.7115C91.299 27.932 92.1506 28.2272 92.9723 28.5936C92.9792 28.5961 92.9849 28.6012 92.988 28.6078C92.9912 28.6145 92.9916 28.6221 92.9891 28.629C92.9867 28.6359 92.9816 28.6416 92.9749 28.6447C92.9683 28.6479 92.9607 28.6483 92.9538 28.6458C92.1002 28.3781 91.2298 28.1273 90.3914 27.8142C90.3778 27.8095 90.3666 27.7996 90.3603 27.7866C90.3539 27.7737 90.353 27.7587 90.3577 27.7451C90.3624 27.7315 90.3723 27.7203 90.3853 27.714C90.3982 27.7077 90.4131 27.7068 90.4268 27.7115Z" fill="#37474F"/>
<path d="M89.6052 22.1306C89.6052 22.102 89.654 22.0902 89.6557 22.1205C89.7489 23.0338 89.8883 23.9419 90.0732 24.8411C90.1557 25.2586 90.7332 27.555 91.447 27.3092C91.5665 27.2688 91.6154 27.1408 91.6154 26.9556C91.588 26.7146 91.5315 26.4777 91.447 26.2502C91.3157 25.7721 91.1995 25.2889 91.1103 24.8007C90.9321 23.8914 90.8475 22.9662 90.8578 22.0397C90.8578 22.0334 90.8602 22.0274 90.8647 22.023C90.8691 22.0186 90.8751 22.0161 90.8813 22.0161C90.8876 22.0161 90.8936 22.0186 90.898 22.023C90.9024 22.0274 90.9049 22.0334 90.9049 22.0397C91.0135 23.3143 91.2184 24.5789 91.5177 25.8226C91.6709 26.4186 92.0699 27.3008 91.447 27.459C90.8241 27.6173 90.2365 26.1341 90.1136 25.725C89.7898 24.5538 89.6189 23.3456 89.6052 22.1306Z" fill="#37474F"/>
<path d="M91.4335 27.3747C91.515 27.5252 91.5864 27.681 91.6473 27.841C91.7077 27.9633 91.7448 28.0957 91.7568 28.2316C91.7568 28.2568 91.7231 28.2636 91.708 28.2467C91.6188 28.1357 91.5477 28.0113 91.4975 27.878C91.4268 27.7349 91.3527 27.5918 91.2854 27.4454C91.2785 27.4261 91.2789 27.405 91.2867 27.3861C91.2945 27.3672 91.309 27.3518 91.3275 27.343C91.3459 27.3342 91.367 27.3326 91.3866 27.3384C91.4062 27.3443 91.4229 27.3572 91.4335 27.3747Z" fill="#37474F"/>
<path d="M92.7955 44.0553C92.7551 42.8987 92.6272 41.6848 93.006 40.5669C93.2128 40.0208 93.461 39.4912 93.7484 38.9827C94.0312 38.4373 94.3085 37.8901 94.5801 37.3413C95.6677 35.1526 96.6929 32.9118 97.6105 30.6374C98.0516 29.5414 98.4522 28.4168 98.6038 27.2417C98.7483 26.0067 98.6713 24.7559 98.3765 23.5479C98.3075 23.2466 98.2351 22.9469 98.1526 22.6489C98.1526 22.627 98.1795 22.6153 98.1862 22.6371C98.572 23.7776 98.7859 24.9692 98.8209 26.1726C98.814 27.3248 98.6066 28.467 98.2081 29.5481C97.8175 30.6845 97.3293 31.7889 96.8478 32.89C96.3506 34.0247 95.8349 35.1498 95.3006 36.2655C94.7686 37.3766 94.1996 38.4676 93.6373 39.5635C93.3472 40.0837 93.1367 40.6444 93.0127 41.2269C92.9263 41.8306 92.9037 42.4417 92.9454 43.0502C93.0413 45.6109 93.2619 54.133 93.2955 56.6869L93.3056 57.66C93.3056 57.6658 93.3033 57.6714 93.2992 57.6755C93.2951 57.6796 93.2896 57.6819 93.2837 57.6819C93.2779 57.6819 93.2724 57.6796 93.2683 57.6755C93.2642 57.6714 93.2619 57.6658 93.2619 57.66C93.0969 55.1111 92.8881 46.6092 92.7955 44.0553Z" fill="#37474F"/>
<path d="M94.6222 22.8947C94.6222 22.8779 94.6508 22.8812 94.6525 22.8947C94.7484 23.6001 94.804 24.3308 95.1441 24.9705C95.4572 25.5564 96.001 25.9352 96.5953 26.1995C96.9405 26.3484 97.2934 26.4787 97.6525 26.5901C97.6778 26.5901 97.6711 26.6389 97.6525 26.6322C96.9791 26.4924 96.2939 26.3359 95.7081 25.9588C95.0818 25.5547 94.7602 24.9065 94.6558 24.1809C94.6 23.7545 94.5887 23.3234 94.6222 22.8947Z" fill="#37474F"/>
<path d="M88.787 13.0731C89.3745 17.846 89.319 22.7535 88.3947 23.826C87.0664 25.3664 83.6387 27.9995 81.2834 28.8514C80.5915 29.1005 78.2362 24.8344 78.913 24.4337C79.8406 23.8866 84.1959 20.9521 84.2717 20.8983C84.4401 20.7737 86.4603 14.2634 86.7095 12.9536C87.1523 10.6522 88.4671 10.5108 88.787 13.0731Z" fill="#EB9481"/>
<path d="M82.4467 28.262C81.9248 28.624 79.1251 30.6089 78.3288 30.8547C77.5325 31.1005 75.1923 31.6392 74.9432 31.0483C74.694 30.4573 75.3657 30.2452 75.3657 30.2452C75.3657 30.2452 74.3421 30.3159 74.1452 29.6981C73.9482 29.0802 75.0055 28.7856 75.0055 28.7856C75.0055 28.7856 73.9482 28.7856 73.795 28.1509C73.6418 27.5162 74.7563 27.4017 74.7563 27.4017C74.7563 27.4017 73.7882 27.4438 73.8808 26.8714C73.9936 26.1845 75.7849 26.3091 76.6435 25.9724C76.8388 25.8966 80.4837 24.144 80.4837 24.144L82.4467 28.262Z" fill="#EB9481"/>
<path d="M74.662 27.4134C75.9802 27.5027 76.5728 27.3141 77.716 26.6946C77.7379 26.6828 77.7614 26.7131 77.7395 26.7282C76.6739 27.4353 75.9668 27.7804 74.6553 27.4774C74.5896 27.4623 74.598 27.4101 74.662 27.4134Z" fill="#263238"/>
<path d="M74.9011 28.7755C76.2782 28.7485 76.9213 28.5499 78.1672 27.9893C78.184 27.9893 78.1991 28.0111 78.1823 28.0196C77.0038 28.6711 76.2917 28.9994 74.9129 28.8462C74.8506 28.8344 74.8304 28.7772 74.9011 28.7755Z" fill="#263238"/>
<path d="M75.428 30.2149C76.7597 30.092 77.4752 29.9034 78.615 29.2048C78.6203 29.2012 78.6269 29.1999 78.6332 29.2012C78.6395 29.2024 78.6451 29.2061 78.6486 29.2115C78.6522 29.2169 78.6535 29.2234 78.6522 29.2297C78.651 29.236 78.6473 29.2416 78.6419 29.2452C77.5493 30.0701 76.6587 30.3125 75.4432 30.2553C75.3539 30.2502 75.3455 30.2216 75.428 30.2149Z" fill="#263238"/>
<path d="M80.9366 23.1963C80.9366 23.1963 79.2935 22.9926 78.5527 23.0616C77.8119 23.1307 75.1452 24.4085 75.3876 25.0011C75.7008 25.7637 77.386 25.3378 78.184 25.0095C78.184 25.0095 78.9079 26.7772 80.1841 26.7284C81.4602 26.6796 80.9366 23.1963 80.9366 23.1963Z" fill="#EB9481"/>
<path d="M75.5425 25.1826C76.3321 25.6725 77.3506 25.1826 78.1486 24.9317C78.1601 24.9273 78.1724 24.9258 78.1846 24.9273C78.1968 24.9288 78.2084 24.9332 78.2185 24.9401C78.2286 24.9471 78.2369 24.9564 78.2426 24.9672C78.2483 24.9781 78.2513 24.9902 78.2513 25.0024C78.6032 25.723 79.312 26.6371 80.1487 26.7668C80.1529 26.768 80.1565 26.7706 80.1591 26.7741C80.1617 26.7776 80.1631 26.7818 80.1631 26.7861C80.1631 26.7905 80.1617 26.7947 80.1591 26.7982C80.1565 26.8017 80.1529 26.8043 80.1487 26.8055C79.2312 26.7887 78.4651 25.9469 78.1284 25.1337C77.3153 25.4065 76.2765 25.8509 75.5408 25.1893C75.5341 25.1859 75.5375 25.1792 75.5425 25.1826Z" fill="#263238"/>
<path d="M80.3069 22.9505L83.5528 28.0332C83.5528 28.0332 88.5563 24.8041 88.8846 23.4876C89.2129 22.1711 89.4907 16.6086 88.9065 13.1961C88.3223 9.78351 87.0664 11.0445 86.4755 13.1809C85.8643 15.3897 84.2683 20.7804 84.1875 20.8326C84.1067 20.8848 80.3069 22.9505 80.3069 22.9505Z" fill="#455A64"/>
<path d="M81.4063 22.7147C81.3962 22.6995 81.4231 22.6827 81.4349 22.6978C82.4434 24.0648 83.3769 25.4856 84.2313 26.9538C84.2313 26.969 84.2145 26.9858 84.2027 26.9707C83.1936 25.6041 82.2601 24.1833 81.4063 22.7147Z" fill="#263238"/>
<path opacity="0.1" d="M88.8846 23.4807C88.6557 24.4016 86.1606 26.2467 84.6673 27.2821L87.6051 11.147C88.0967 10.8911 88.6001 11.3844 88.9082 13.1891C89.4907 16.6017 89.2129 22.1574 88.8846 23.4807Z" fill="black"/>
<path d="M87.962 24.9066L98.9724 22.9924C99.0797 22.7526 99.1375 22.4936 99.1424 22.231C99.1473 21.9683 99.0993 21.7074 99.0011 21.4638C97.6542 18.4334 93.4268 11.2059 90.2921 10.2833C89.6186 10.0846 88.0445 10.4113 87.6725 11.2059C86.7583 13.1554 86.7532 21.2348 87.1859 24.0463C87.2634 24.6019 87.9233 24.8864 87.962 24.9066Z" fill="#455A64"/>
<path d="M88.4183 12.7145C89.053 12.6522 89.7516 11.4115 89.8998 10.5478C89.9099 10.4889 89.654 9.99054 89.3712 9.36931C89.2028 8.9922 89.021 8.56795 88.8829 8.16895L86.5899 9.64205C86.9034 10.0922 87.1606 10.579 87.356 11.0916C87.3748 11.1462 87.3877 11.2026 87.3947 11.2599C87.3941 11.2695 87.3941 11.279 87.3947 11.2886C87.457 11.6101 87.8055 12.7751 88.4183 12.7145Z" fill="#EB9481"/>
<path d="M86.5883 9.64184C86.9027 10.0923 87.1605 10.5797 87.356 11.0931C87.375 11.1476 87.388 11.204 87.3947 11.2614C87.3939 11.2704 87.3939 11.2794 87.3947 11.2883C87.4844 11.2723 87.5724 11.2475 87.6573 11.2143C89.1018 10.6823 88.893 8.73945 88.8105 8.21924L86.5883 9.64184Z" fill="#263238"/>
<path d="M87.9199 4.98517C88.553 5.73434 89.1641 8.42129 88.7887 9.23949C88.2449 10.418 86.8223 11.1251 85.6791 10.3506C84.5731 9.59809 83.8373 6.08284 84.307 5.28484C84.9973 4.10972 86.9856 3.87907 87.9199 4.98517Z" fill="#EB9481"/>
<path d="M86.095 7.60645C86.095 7.60645 86.1101 7.60645 86.1118 7.61823C86.1438 7.80005 86.2095 8.00376 86.3862 8.02902V8.0408C86.1808 8.05258 86.095 7.78995 86.095 7.60645Z" fill="#263238"/>
<path d="M86.2179 7.38402C86.5024 7.30153 86.6455 7.87898 86.3863 7.95474C86.127 8.0305 85.9771 7.45305 86.2179 7.38402Z" fill="#263238"/>
<path d="M85.0428 7.86426C85.0428 7.86426 85.031 7.87604 85.0428 7.88278C85.0916 8.05113 85.1185 8.27168 84.972 8.371C84.972 8.371 84.972 8.38279 84.972 8.38111C85.1572 8.30366 85.1185 8.02419 85.0428 7.86426Z" fill="#263238"/>
<path d="M84.8374 7.71588C84.5444 7.7647 84.669 8.34721 84.9367 8.30176C85.2044 8.2563 85.0832 7.67547 84.8374 7.71588Z" fill="#263238"/>
<path d="M86.3795 7.06426C86.2983 7.06058 86.2174 7.05272 86.1371 7.04069C86.0499 7.0445 85.964 7.01901 85.893 6.96829C85.8738 6.94847 85.8617 6.92283 85.8587 6.89541C85.8556 6.86799 85.8618 6.84033 85.8761 6.81677C85.9116 6.77379 85.958 6.74112 86.0104 6.72217C86.0628 6.70322 86.1194 6.69868 86.1741 6.70903C86.2877 6.71329 86.3956 6.75947 86.4772 6.83866C86.4947 6.85783 86.5063 6.88166 86.5106 6.90729C86.5149 6.93291 86.5117 6.95923 86.5014 6.98308C86.4911 7.00693 86.4741 7.02728 86.4525 7.04168C86.4308 7.05608 86.4055 7.06392 86.3795 7.06426Z" fill="#263238"/>
<path d="M84.5427 7.48041C84.6161 7.44569 84.6875 7.40691 84.7566 7.36425C84.839 7.31879 84.9098 7.29186 84.9535 7.19589C84.9637 7.16984 84.9649 7.14115 84.9569 7.11434C84.949 7.08753 84.9324 7.06411 84.9098 7.04774C84.8604 7.02253 84.8052 7.01095 84.7498 7.01421C84.6945 7.01746 84.641 7.03543 84.5949 7.06626C84.4912 7.114 84.409 7.19862 84.3643 7.30364C84.3534 7.32855 84.3504 7.35615 84.3555 7.38284C84.3606 7.40952 84.3737 7.43404 84.393 7.45316C84.4123 7.47228 84.4369 7.48511 84.4636 7.48998C84.4904 7.49484 84.5179 7.49151 84.5427 7.48041Z" fill="#263238"/>
<path d="M86.3223 8.68045C86.2946 8.76219 86.2504 8.83738 86.1925 8.90137C86.1346 8.96537 86.0641 9.01681 85.9856 9.05252C85.9166 9.08416 85.8435 9.10571 85.7684 9.11649C85.7411 9.12104 85.7135 9.12386 85.6859 9.12491C85.6758 9.12585 85.6656 9.12338 85.6571 9.11788C85.6485 9.11239 85.6421 9.1042 85.6387 9.0946L85.5563 8.70907C85.5125 8.74779 85.2835 8.92625 85.2701 8.85217C85.1316 8.22664 85.0572 7.58867 85.0478 6.94808C85.0478 6.92788 85.0798 6.92451 85.0815 6.94808C85.2128 7.52385 85.2397 8.12656 85.361 8.70065C85.4423 8.63644 85.5317 8.58323 85.627 8.5424C85.6387 8.5424 85.7162 9.01884 85.7196 9.02221C85.8353 9.00569 85.9465 8.96602 86.0466 8.90557C86.1467 8.84512 86.2336 8.76512 86.3021 8.67035C86.3122 8.6552 86.329 8.66362 86.3223 8.68045Z" fill="#263238"/>
<path opacity="0.2" d="M87.9284 6.28813C88.1354 6.52046 88.5883 7.07772 88.7314 7.07603C88.5294 6.14671 88.2415 5.34029 87.8425 4.92614C87.6776 4.75442 87.4824 4.61459 87.2667 4.51367C87.3341 4.75947 87.7112 6.0457 87.9284 6.28813Z" fill="#263238"/>
<path d="M85.1 5.88093C85.2227 5.98283 85.3693 6.05177 85.526 6.08123C85.6827 6.11069 85.8444 6.09969 85.9957 6.04929C86.1487 5.99669 86.2858 5.90605 86.3942 5.7859C86.5026 5.66575 86.5786 5.52002 86.6152 5.3624C86.6152 5.3523 86.6321 5.3624 86.6304 5.3624C86.6053 5.53204 86.5348 5.69174 86.4263 5.82453C86.3179 5.95733 86.1754 6.05827 86.0142 6.11663C85.8524 6.16491 85.6807 6.16979 85.5164 6.13078C85.3521 6.09178 85.201 6.01026 85.0781 5.8944C85.0763 5.8915 85.0758 5.88801 85.0766 5.88469C85.0774 5.88137 85.0794 5.87851 85.0823 5.87672C85.0853 5.87494 85.0887 5.87438 85.0921 5.87517C85.0954 5.87596 85.0982 5.87803 85.1 5.88093Z" fill="#263238"/>
<path d="M85.6589 3.44136C85.9026 3.3998 86.1527 3.42028 86.3864 3.5009C86.62 3.58152 86.8295 3.71969 86.9957 3.90265C87.1399 4.09076 87.2158 4.32228 87.2112 4.55924C87.2112 4.55924 87.1927 4.56934 87.191 4.55924C87.1673 4.35404 87.0886 4.15905 86.9633 3.99488C86.8379 3.83071 86.6705 3.70345 86.4788 3.62655C86.2686 3.53498 86.04 3.4934 85.811 3.50509C85.5819 3.51677 85.3588 3.5814 85.1589 3.69389C84.9634 3.79934 84.8113 3.97046 84.7296 4.17707C84.7296 4.19896 84.6808 4.19391 84.6859 4.17707C84.7734 3.81343 85.1741 3.51375 85.6589 3.44136Z" fill="#263238"/>
<path d="M82.7565 5.13152C82.7984 4.85276 82.9381 4.59798 83.1505 4.41265C83.4434 4.15338 83.8239 4.11971 84.1926 4.09277C84.1948 4.09277 84.197 4.09366 84.1985 4.09524C84.2001 4.09682 84.201 4.09896 84.201 4.10119C84.201 4.10342 84.2001 4.10557 84.1985 4.10714C84.197 4.10872 84.1948 4.10961 84.1926 4.10961C83.873 4.10818 83.5597 4.19877 83.2902 4.37056C83.0725 4.53234 82.9174 4.76424 82.8508 5.02714C82.7905 5.29583 82.829 5.57723 82.9591 5.81989C83.0893 6.06255 83.3024 6.25027 83.5596 6.34873C83.7091 6.40113 83.8677 6.42248 84.0258 6.41148C84.1838 6.40048 84.338 6.35736 84.4788 6.28475C84.4906 6.28475 84.5024 6.29486 84.4906 6.29991C84.2389 6.44014 83.9445 6.48332 83.6632 6.42128C83.3818 6.35924 83.133 6.19628 82.9636 5.9632C82.794 5.72117 82.7202 5.42482 82.7565 5.13152Z" fill="#263238"/>
<path d="M88.2987 5.67049C88.2987 5.67049 88.6354 4.625 88.1152 4.15529C87.8206 3.88424 87.031 4.06607 87.031 4.06607C86.7619 3.78715 86.3933 3.62615 86.0057 3.61824C85.3121 3.58457 84.5882 4.11321 84.5882 4.11321C84.5882 4.11321 83.8912 3.86236 83.3592 4.30681C82.6151 4.92636 82.9417 6.15872 83.8457 6.42472C84.4804 6.60654 85.1825 5.94827 85.1825 5.94827C85.2599 5.94827 86.1253 6.28498 86.5933 5.4752C86.5933 5.4752 87.1489 5.81191 87.526 5.44321C87.6165 5.55505 87.7389 5.63669 87.8769 5.67729C88.015 5.71788 88.1621 5.71551 88.2987 5.67049Z" fill="#263238"/>
<path d="M88.223 7.43636C88.223 7.43636 88.4671 6.39425 88.9116 6.44307C89.356 6.49189 89.4166 7.84715 89.0446 8.18218C89.0003 8.22836 88.9471 8.26512 88.8882 8.29022C88.8293 8.31533 88.766 8.32827 88.702 8.32827C88.638 8.32827 88.5746 8.31533 88.5157 8.29022C88.4569 8.26512 88.4037 8.22836 88.3594 8.18218L88.223 7.43636Z" fill="#EB9481"/>
<path d="M88.9166 6.83545V6.84555C88.6624 7.09135 88.6169 7.43816 88.6237 7.77487C88.6288 7.73723 88.6421 7.70117 88.6626 7.66919C88.6831 7.63722 88.7103 7.61011 88.7424 7.58974C88.7744 7.56938 88.8106 7.55627 88.8482 7.55131C88.8859 7.54636 88.9242 7.54968 88.9604 7.56106C88.9705 7.56106 88.9604 7.57958 88.9604 7.58126C88.9004 7.58575 88.8432 7.60872 88.7968 7.647C88.7504 7.68529 88.717 7.73702 88.7011 7.79507C88.6751 7.893 88.6598 7.99349 88.6557 8.09474C88.6557 8.12673 88.5967 8.13346 88.5951 8.09474C88.4351 7.70584 88.5176 7.04253 88.9166 6.83545Z" fill="#263238"/>
<path d="M91.5918 10.94C95.1003 13.8441 98.262 18.452 98.2637 21.1709C98.2637 23.2888 96.299 22.1373 95.9067 21.8545C94.6306 20.9201 91.9739 16.1725 90.8779 13.1C89.8863 10.2986 90.7247 10.2211 91.5918 10.94Z" fill="#455A64"/>
<path d="M94.9252 21.395C94.7467 21.0582 94.5615 20.7114 94.3881 20.3663L93.8544 19.3377C93.5043 18.6491 93.1474 17.9639 92.8073 17.2703C92.4672 16.5766 92.1153 15.8881 91.7803 15.1928C91.6097 14.846 91.4447 14.4969 91.2853 14.1456C91.117 13.7971 90.9705 13.4419 90.8156 13.085C91.0534 13.8225 91.3316 14.5464 91.649 15.2534C91.9588 15.9638 92.2972 16.6591 92.6389 17.3544C92.9807 18.0497 93.3494 18.7333 93.7299 19.4067C94.1103 20.0801 94.4976 20.7535 94.9252 21.395Z" fill="#263238"/>
<path d="M91.1743 13.9954C91.1107 13.8723 91.0398 13.7531 90.9621 13.6385C90.9217 13.5829 90.8864 13.5257 90.8443 13.4701C90.8022 13.4146 90.7652 13.359 90.718 13.3018C90.7476 13.4408 90.8048 13.5725 90.8864 13.689C90.9634 13.8074 91.0609 13.9111 91.1743 13.9954Z" fill="#263238"/>
<path d="M88.7567 19.2161C89.0608 19.2898 89.3801 19.2694 89.6723 19.1576C89.9646 19.0457 90.2159 18.8477 90.3931 18.5898C90.7618 18.0426 90.7298 17.3456 90.6237 16.7278C90.4672 15.8136 90.2062 14.9247 90.287 13.987C90.351 13.2109 90.5716 12.3522 90.1961 11.6149C90.1961 11.6149 90.1961 11.6031 90.1961 11.598C90.0143 10.9246 89.25 10.6569 88.6304 10.8775C87.8577 11.1502 87.4856 11.9516 87.3257 12.6991C86.9819 14.3928 87.0482 16.1441 87.5193 17.8069C87.6927 18.4551 88.0664 19.0443 88.7567 19.2161Z" fill="#FFD613"/>
<path opacity="0.3" d="M88.7567 19.2161C89.0608 19.2898 89.3801 19.2694 89.6723 19.1576C89.9646 19.0457 90.2159 18.8477 90.3931 18.5898C90.7618 18.0426 90.7298 17.3456 90.6237 16.7278C90.4672 15.8136 90.2062 14.9247 90.287 13.987C90.351 13.2109 90.5716 12.3522 90.1961 11.6149C90.1961 11.6149 90.1961 11.6031 90.1961 11.598C90.0143 10.9246 89.25 10.6569 88.6304 10.8775C87.8577 11.1502 87.4856 11.9516 87.3257 12.6991C86.9819 14.3928 87.0482 16.1441 87.5193 17.8069C87.6927 18.4551 88.0664 19.0443 88.7567 19.2161Z" fill="black"/>
<g opacity="0.1">
<path d="M89.8392 14.056C89.8678 13.0122 89.8005 12.0643 89.388 11.0929C89.387 11.0897 89.3871 11.0862 89.3883 11.083C89.3895 11.0798 89.3917 11.0771 89.3947 11.0754C89.3976 11.0737 89.401 11.0729 89.4044 11.0734C89.4077 11.0738 89.4109 11.0753 89.4132 11.0778C90.5143 12.5929 89.6759 14.7664 90.0412 16.4651C90.0412 16.4836 90.0126 16.4937 90.0075 16.4735C89.7971 15.6772 89.8139 14.8742 89.8392 14.056Z" fill="black"/>
<path d="M89.6658 18.6992C90.0013 18.1352 90.1465 17.4782 90.0799 16.8254C90.0799 16.8136 90.0934 16.8119 90.0968 16.8254C90.1809 17.1517 90.1901 17.4928 90.1236 17.8231C90.0571 18.1535 89.9167 18.4645 89.7129 18.7329C89.6944 18.7514 89.6456 18.7329 89.6658 18.6992Z" fill="black"/>
<path d="M87.6523 17.0189C87.4902 16.2035 87.4336 15.3706 87.4839 14.5408C87.5209 13.4885 87.6068 11.5205 88.7668 11.0171C88.7769 11.0171 88.7853 11.0289 88.7769 11.0339C87.7061 11.7326 87.6438 13.4111 87.5984 14.5593C87.5546 15.9465 87.5984 17.652 88.4873 18.8052C88.5075 18.8304 88.4722 18.8675 88.4469 18.8456C87.9721 18.3961 87.7937 17.6385 87.6523 17.0189Z" fill="black"/>
<path d="M88.5934 14.8961C88.5479 13.6351 88.5277 12.2024 89.0429 11.0239C88.8223 11.6637 88.7886 12.3708 88.7432 13.0442C88.6946 13.7345 88.6873 14.4271 88.7213 15.1183C88.7907 16.4096 88.9875 17.6908 89.3089 18.9433C89.3206 18.9905 89.2752 18.9922 89.26 18.9433C88.8603 17.6296 88.6361 16.2687 88.5934 14.8961Z" fill="black"/>
<path d="M88.223 15.4564C88.223 15.4245 88.2718 15.416 88.2735 15.4564C88.3325 16.4067 88.502 17.3468 88.7786 18.2579C88.7808 18.2634 88.7807 18.2697 88.7784 18.2752C88.776 18.2807 88.7715 18.2851 88.7659 18.2873C88.7604 18.2896 88.7541 18.2895 88.7486 18.2871C88.7431 18.2847 88.7387 18.2803 88.7365 18.2747C88.2987 17.4043 88.2213 16.4076 88.223 15.4564Z" fill="black"/>
</g>
<path d="M90.0177 20.2482C90.3086 20.364 90.628 20.3886 90.9332 20.3185C91.2385 20.2484 91.5152 20.0871 91.7265 19.8559C92.1659 19.3677 92.2315 18.6774 92.2147 18.0461C92.1878 17.1185 92.0463 16.1942 92.2602 15.2851C92.4285 14.5241 92.7652 13.7042 92.5026 12.9281C92.5026 12.9281 92.5026 12.9163 92.5026 12.9096C92.4167 12.2261 91.6978 11.8456 91.053 11.9769C90.25 12.1453 89.7702 12.881 89.5075 13.5982C88.9293 15.2267 88.7492 16.9701 88.9823 18.6825C89.0698 19.3374 89.3594 19.9721 90.0177 20.2482Z" fill="#FFD613"/>
<path opacity="0.4" d="M90.0177 20.2482C90.3086 20.364 90.628 20.3886 90.9332 20.3185C91.2385 20.2484 91.5152 20.0871 91.7265 19.8559C92.1659 19.3677 92.2315 18.6774 92.2147 18.0461C92.1878 17.1185 92.0463 16.1942 92.2602 15.2851C92.4285 14.5241 92.7652 13.7042 92.5026 12.9281C92.5026 12.9281 92.5026 12.9163 92.5026 12.9096C92.4167 12.2261 91.6978 11.8456 91.053 11.9769C90.25 12.1453 89.7702 12.881 89.5075 13.5982C88.9293 15.2267 88.7492 16.9701 88.9823 18.6825C89.0698 19.3374 89.3594 19.9721 90.0177 20.2482Z" fill="black"/>
<g opacity="0.1">
<path d="M91.8106 15.282C91.979 14.2533 92.0531 13.3038 91.7803 12.2853C91.7798 12.2819 91.7803 12.2785 91.7819 12.2755C91.7835 12.2726 91.7861 12.2702 91.7892 12.2688C91.7923 12.2675 91.7958 12.2672 91.799 12.2681C91.8023 12.2689 91.8052 12.2708 91.8073 12.2735C92.6861 13.9217 91.5514 15.9621 91.6759 17.6962C91.6759 17.7011 91.674 17.7058 91.6705 17.7093C91.667 17.7128 91.6623 17.7147 91.6574 17.7147C91.6525 17.7147 91.6478 17.7128 91.6443 17.7093C91.6409 17.7058 91.6389 17.7011 91.6389 17.6962C91.5446 16.8813 91.6743 16.0884 91.8106 15.282Z" fill="black"/>
<path d="M90.9924 19.8558C91.4028 19.3442 91.6387 18.7148 91.6658 18.0595C91.6658 18.0477 91.681 18.0494 91.6827 18.0595C91.72 18.3938 91.6812 18.7322 91.5693 19.0494C91.4573 19.3666 91.2751 19.6544 91.0362 19.8912C91.0109 19.9114 90.9705 19.8811 90.9924 19.8558Z" fill="black"/>
<path d="M89.2314 17.9099C89.185 17.08 89.2461 16.2476 89.4133 15.4334C89.5951 14.3963 89.9571 12.4586 91.1743 12.1235C91.186 12.1235 91.1928 12.137 91.1743 12.1421C90.0177 12.6842 89.7197 14.3307 89.5227 15.4671C89.2853 16.8358 89.0917 18.5294 89.8089 19.7955C89.824 19.8241 89.7836 19.8561 89.7618 19.8308C89.356 19.3224 89.2853 18.5429 89.2314 17.9099Z" fill="black"/>
<path d="M90.4604 15.9401C90.5918 14.6842 90.7736 13.2616 91.4487 12.1724C91.1406 12.7734 91.0076 13.4721 90.8695 14.1303C90.7239 14.8064 90.6194 15.4906 90.5564 16.1792C90.4413 17.468 90.4532 18.7649 90.5918 20.0514C90.5918 20.1002 90.5514 20.0951 90.5446 20.0514C90.3348 18.6907 90.3065 17.3082 90.4604 15.9401Z" fill="black"/>
<path d="M90.016 16.4418C90.016 16.4115 90.0682 16.4098 90.0665 16.4418C89.99 17.3905 90.025 18.3448 90.1709 19.2853C90.1712 19.2909 90.1696 19.2965 90.1662 19.301C90.1628 19.3055 90.1579 19.3086 90.1525 19.3098C90.147 19.311 90.1412 19.3102 90.1363 19.3076C90.1313 19.305 90.1275 19.3007 90.1254 19.2954C89.8139 18.3813 89.8813 17.3863 90.016 16.4418Z" fill="black"/>
</g>
<path d="M83.6134 14.5058C83.9737 14.627 85.3812 15.1472 85.0546 15.5698C85.0259 15.6085 84.7936 15.6472 84.7498 15.6792C84.4485 15.8796 84.5478 16.223 84.7953 16.425C85.3122 16.8476 86.0883 16.9756 86.5984 17.4015C87.8021 18.4116 88.2819 19.144 88.2819 19.1473C88.2819 19.1507 88.3611 19.2635 88.3779 19.2029C88.4604 18.9167 88.0109 16.2702 87.7045 15.2095C87.6136 14.9014 87.4351 14.3678 87.0445 14.3257C86.7078 14.2853 86.7297 14.5917 86.6741 14.8307C86.3256 14.6018 86.0748 13.9469 85.8795 13.6236C85.6769 13.2691 85.4401 12.9353 85.1724 12.627C84.8778 12.297 84.2583 11.6623 83.7532 11.8306C83.3794 11.9519 83.8727 12.5596 83.5259 12.7128C83.4417 12.7499 83.2128 12.6438 83.0646 12.6169C83.0074 12.6068 82.0629 12.1993 81.7902 12.6169C81.1184 13.6438 82.9788 14.292 83.6134 14.5058Z" fill="#37474F"/>
<path d="M91.6658 24.1206C92.1204 23.8916 94.3595 22.8764 94.4353 22.7821C94.511 22.6879 93.2046 19.1844 93.1676 18.8847C93.1305 18.5851 92.8393 14.4974 92.8527 14.4317C92.8662 14.3661 92.6928 14.6169 92.6844 14.6152C92.676 14.6136 92.5665 14.3543 92.548 14.3391C92.5295 14.324 92.4335 14.5513 92.415 14.5614C92.3965 14.5715 92.2989 14.329 92.2719 14.324C92.245 14.3189 92.1036 14.5631 92.1036 14.5664C92.1036 14.5698 91.8662 14.2684 91.8325 14.287C91.7988 14.3055 91.7063 14.5311 91.681 14.5412C91.6557 14.5513 91.5716 14.3139 91.543 14.3038C91.5143 14.2937 91.4537 14.5024 91.4285 14.5142C91.4032 14.526 91.2601 14.3459 91.2365 14.324C91.213 14.3021 91.1103 14.5193 91.085 14.5311C91.0598 14.5429 90.9352 14.3139 90.8965 14.3105C90.8577 14.3072 90.7753 14.5311 90.7534 14.5294C90.7315 14.5277 90.585 14.3964 90.5396 14.3896C90.4941 14.3829 90.4335 14.5782 90.4167 14.6051C90.3998 14.6321 90.2028 14.462 90.1776 14.4688C90.1523 14.4755 90.1305 14.6641 90.1119 14.6725C90.0934 14.6809 89.9554 14.5445 89.9436 14.5496C89.9318 14.5546 89.9436 14.7533 89.9318 14.7617C89.92 14.7701 89.7988 14.6237 89.7803 14.6152C89.7447 14.7206 89.7176 14.8287 89.6995 14.9385C89.6995 14.9385 90.4335 19.4588 90.5412 19.9605C90.649 20.4622 91.6658 24.1206 91.6658 24.1206Z" fill="#FFD613"/>
<path opacity="0.1" d="M91.6658 24.1206C92.1204 23.8916 94.3595 22.8764 94.4353 22.7821C94.511 22.6879 93.2046 19.1844 93.1676 18.8847C93.1305 18.5851 92.8393 14.4974 92.8527 14.4317C92.8662 14.3661 92.6928 14.6169 92.6844 14.6152C92.676 14.6136 92.5665 14.3543 92.548 14.3391C92.5295 14.324 92.4335 14.5513 92.415 14.5614C92.3965 14.5715 92.2989 14.329 92.2719 14.324C92.245 14.3189 92.1036 14.5631 92.1036 14.5664C92.1036 14.5698 91.8662 14.2684 91.8325 14.287C91.7988 14.3055 91.7063 14.5311 91.681 14.5412C91.6557 14.5513 91.5716 14.3139 91.543 14.3038C91.5143 14.2937 91.4537 14.5024 91.4285 14.5142C91.4032 14.526 91.2601 14.3459 91.2365 14.324C91.213 14.3021 91.1103 14.5193 91.085 14.5311C91.0598 14.5429 90.9352 14.3139 90.8965 14.3105C90.8577 14.3072 90.7753 14.5311 90.7534 14.5294C90.7315 14.5277 90.585 14.3964 90.5396 14.3896C90.4941 14.3829 90.4335 14.5782 90.4167 14.6051C90.3998 14.6321 90.2028 14.462 90.1776 14.4688C90.1523 14.4755 90.1305 14.6641 90.1119 14.6725C90.0934 14.6809 89.9554 14.5445 89.9436 14.5496C89.9318 14.5546 89.9436 14.7533 89.9318 14.7617C89.92 14.7701 89.7988 14.6237 89.7803 14.6152C89.7447 14.7206 89.7176 14.8287 89.6995 14.9385C89.6995 14.9385 90.4335 19.4588 90.5412 19.9605C90.649 20.4622 91.6658 24.1206 91.6658 24.1206Z" fill="black"/>
<path d="M89.659 14.8288C89.6456 15.0275 90.7904 20.8306 91.0059 21.4468C91.2214 22.063 91.7416 24.0647 91.6658 24.1203C91.5901 24.1759 87.0832 24.7937 87.0041 24.8392C86.925 24.8846 85.7145 19.706 85.6202 19.3862C85.5259 19.0663 84.4569 16.0005 84.4569 16.0005C84.5699 16.0685 84.6895 16.1249 84.8138 16.1689C84.8542 16.1605 84.9552 15.9753 84.9922 15.8844C85.0293 15.7935 85.1488 16.0527 85.1943 16.0662C85.2397 16.0797 85.3525 15.8221 85.3929 15.7783C85.4333 15.7345 85.6067 15.9332 85.6286 15.9366C85.6505 15.9399 85.701 15.6588 85.7532 15.6386C85.8054 15.6184 85.962 15.8356 86.0158 15.8238C86.0697 15.812 86.1202 15.5106 86.1623 15.5005C86.2044 15.4904 86.4519 15.6975 86.4856 15.6891C86.5192 15.6807 86.5782 15.3524 86.6253 15.3355C86.6724 15.3187 86.8913 15.5898 86.9384 15.5797C86.9856 15.5696 87.0243 15.1857 87.0849 15.1975C87.1455 15.2093 87.3408 15.4652 87.3644 15.4433C87.3879 15.4214 87.4755 15.1621 87.5041 15.1318C87.5327 15.1015 87.7533 15.3473 87.7735 15.3423C87.7937 15.3372 87.8728 14.9871 87.893 14.982C87.9132 14.9769 88.2129 15.2699 88.2297 15.248C88.2466 15.2261 88.329 14.8928 88.3543 14.8776C88.3796 14.8625 88.5546 15.1099 88.5765 15.1049C88.6137 15.0076 88.6446 14.9081 88.6691 14.8069C88.6691 14.7968 88.8375 15.0073 88.8375 15.0039C88.8375 15.0005 88.8829 14.7817 88.8998 14.7749C88.9166 14.7682 89.021 14.9433 89.0412 14.9433C89.0614 14.9433 89.1085 14.716 89.1287 14.6992C89.1489 14.6823 89.2533 14.8827 89.2735 14.8793C89.2937 14.8759 89.4082 14.6689 89.4217 14.6672C89.4351 14.6655 89.4755 14.7934 89.4907 14.7968C89.5058 14.8002 89.6355 14.647 89.659 14.647C89.6826 14.647 89.659 14.8288 89.659 14.8288Z" fill="#FFD613"/>
<path d="M97.895 22.2127C96.9657 22.9905 95.2013 22.9939 90.4116 22.6555C89.7483 22.6084 88.8223 17.8406 89.5328 17.854C90.4268 17.8709 93.8966 18.1318 94.1474 18.1907C96.2603 18.615 98.5179 21.6858 97.895 22.2127Z" fill="#EB9481"/>
<path d="M91.1002 17.7583L92.7635 23.2888C92.7635 23.2888 97.7754 23.2281 98.0111 22.0311C98.2249 20.9436 96.1592 18.7028 94.644 18.2078C94.0127 18.0007 91.1002 17.7583 91.1002 17.7583Z" fill="#455A64"/>
<path d="M91.1608 17.942L91.1153 17.7551L91.1052 17.7669C91.6002 17.8309 92.0968 17.8898 92.5918 17.9571C93.0868 18.0245 93.58 18.0884 94.0683 18.181C94.3119 18.2212 94.5526 18.2775 94.7888 18.3494C95.0214 18.4292 95.2467 18.5289 95.4623 18.6474C95.8961 18.8912 96.2882 19.2026 96.6239 19.57C96.3227 19.1655 95.9466 18.8225 95.5161 18.5598C95.2996 18.427 95.0693 18.3181 94.8292 18.2349C94.5892 18.1562 94.3439 18.0944 94.0952 18.0497C93.6002 17.9605 93.1019 17.8982 92.6036 17.8477C92.1053 17.7972 91.6069 17.7669 91.1069 17.7534H91.0918V17.7652L91.1608 17.942Z" fill="#263238"/>
<path d="M92.5969 18.452C92.6625 18.7332 92.7517 19.011 92.8342 19.2938C92.9167 19.5766 93.0026 19.8494 93.0901 20.1238C93.2686 20.6743 93.4487 21.2248 93.6373 21.772C93.6878 21.9218 93.74 22.0717 93.7939 22.2198C93.8477 22.368 93.9285 22.5313 93.9858 22.6912C93.9858 22.7047 94.0094 22.6912 94.0043 22.6912C93.9639 22.5548 93.942 22.4134 93.9033 22.2771C93.8646 22.1407 93.8208 21.9925 93.777 21.8528C93.6917 21.5767 93.6047 21.3006 93.5161 21.0245C93.3477 20.474 93.1592 19.9235 92.9639 19.378C92.8544 19.0699 92.7517 18.7568 92.6272 18.4554C92.6276 18.4514 92.6264 18.4474 92.6239 18.4442C92.6214 18.441 92.6177 18.439 92.6137 18.4386C92.6097 18.4381 92.6056 18.4393 92.6025 18.4418C92.5993 18.4443 92.5973 18.448 92.5969 18.452Z" fill="#263238"/>
<path d="M84.4485 18.5005C84.4081 18.6436 84.4125 18.7955 84.4609 18.9361C84.5093 19.0766 84.5996 19.1989 84.7195 19.2867C84.526 19.4492 84.3956 19.6744 84.3508 19.9231C84.2936 20.3642 84.9603 20.647 84.9603 20.647C84.796 20.8578 84.6981 21.1128 84.6791 21.3794C84.6673 21.807 85.2987 22.1892 85.2987 22.1892C85.2546 22.4661 85.3107 22.7496 85.4569 22.9888C85.8761 23.6101 87.0209 23.5714 87.7482 23.5545C88.4755 23.5377 90.5244 22.8053 90.9285 22.7127L90.8561 18.0409C90.8561 18.0409 87.5715 17.1991 86.7179 17.3321C86.0007 17.4449 84.6253 17.9601 84.4485 18.5005Z" fill="#EB9481"/>
<path d="M84.7498 19.2111C85.4839 18.9013 86.265 18.8239 87.0479 18.7061C87.0647 18.7061 87.0698 18.7313 87.0479 18.733C86.2718 18.8458 85.5327 19.1084 84.7566 19.2515C84.7512 19.2524 84.7457 19.2511 84.7413 19.248C84.7369 19.2448 84.7339 19.24 84.733 19.2347C84.7321 19.2293 84.7334 19.2238 84.7365 19.2194C84.7397 19.215 84.7445 19.212 84.7498 19.2111Z" fill="#263238"/>
<path d="M84.9737 20.5849C85.1472 20.5299 85.3273 20.4982 85.5091 20.4906C85.701 20.4704 85.8913 20.4536 86.0832 20.4401C86.4687 20.4132 86.8526 20.3946 87.2381 20.3862C87.255 20.3862 87.26 20.4132 87.2381 20.4132C86.856 20.4418 86.4738 20.4755 86.0916 20.5192L85.5209 20.5899C85.3425 20.6257 85.1607 20.6415 84.9788 20.6371C84.9552 20.6354 84.9485 20.595 84.9737 20.5849Z" fill="#263238"/>
<path d="M85.3155 22.1875C85.4727 22.1407 85.6366 22.1208 85.8004 22.1285L86.3256 22.0999C86.6758 22.078 87.026 22.0561 87.3762 22.0225C87.393 22.0225 87.3981 22.0477 87.3762 22.0494C87.0226 22.0848 86.6674 22.1268 86.3122 22.1588L85.7886 22.206C85.6311 22.2346 85.4697 22.2346 85.3121 22.206C85.3109 22.2057 85.3098 22.2053 85.3087 22.2046C85.3077 22.204 85.3068 22.2031 85.3061 22.2021C85.3054 22.2011 85.3049 22.1999 85.3046 22.1987C85.3044 22.1975 85.3043 22.1962 85.3046 22.195C85.3048 22.1938 85.3052 22.1926 85.3059 22.1916C85.3066 22.1906 85.3074 22.1897 85.3085 22.189C85.3095 22.1883 85.3106 22.1878 85.3118 22.1875C85.313 22.1872 85.3143 22.1872 85.3155 22.1875Z" fill="#263238"/>
<path d="M92.7635 23.2885C94.1575 23.1488 95.5801 23.0376 96.9337 22.6656C97.2673 22.591 97.582 22.4483 97.8579 22.2464C98.331 21.7413 98.2064 20.9265 98.1256 20.2867C98.0673 19.939 97.9846 19.5959 97.8781 19.2598C98.1662 19.9136 98.3175 20.6194 98.3226 21.3339C98.3226 21.9383 98.0819 22.4333 97.4892 22.6471C95.9858 23.206 94.3477 23.2599 92.7635 23.2885Z" fill="#263238"/>
<path d="M20.8188 30.7805C20.8188 30.7805 19.3844 30.1811 19.1689 29.8427C18.9534 29.5043 18.0207 28.0885 17.6941 28.0329C16.4634 27.8258 13.1047 27.9521 11.97 28.5582C11.3522 28.8949 12.0037 31.3445 12.5694 31.9253C13.1351 32.5061 17.1857 32.6206 17.8406 32.4893C18.4955 32.358 18.977 31.6845 18.977 31.6845L20.5881 32.1324L20.8188 30.7805Z" fill="#FFD613"/>
<path d="M21.2161 28.9722C21.2161 28.9722 20.1251 29.1304 19.8692 29.3594C19.6133 29.5883 18.7783 31.4184 18.8305 32.0531C18.8827 32.6878 19.5511 33.3376 19.5511 33.3376L21.2161 28.9722Z" fill="#FFD613"/>
<path opacity="0.1" d="M21.2161 28.9722C21.2161 28.9722 20.1251 29.1304 19.8692 29.3594C19.6133 29.5883 18.7783 31.4184 18.8305 32.0531C18.8827 32.6878 19.5511 33.3376 19.5511 33.3376L21.2161 28.9722Z" fill="black"/>
<path d="M74.4701 30.7805C74.4701 30.7805 75.9062 30.1811 76.1217 29.8427C76.3372 29.5043 77.2698 28.0885 77.5964 28.0329C78.8271 27.8258 82.1858 27.9521 83.3205 28.5582C83.9384 28.8949 83.2868 31.3445 82.7212 31.9253C82.1555 32.5061 78.1049 32.6206 77.45 32.4893C76.7951 32.358 76.3119 31.6845 76.3119 31.6845L74.7007 32.1324L74.4701 30.7805Z" fill="#FFD613"/>
<path d="M74.0728 28.9722C74.0728 28.9722 75.1637 29.1304 75.428 29.3594C75.6924 29.5883 76.519 31.4184 76.4668 32.0531C76.4146 32.6878 75.7445 33.3376 75.7445 33.3376L74.0728 28.9722Z" fill="#FFD613"/>
<path opacity="0.1" d="M74.0728 28.9722C74.0728 28.9722 75.1637 29.1304 75.428 29.3594C75.6924 29.5883 76.519 31.4184 76.4668 32.0531C76.4146 32.6878 75.7445 33.3376 75.7445 33.3376L74.0728 28.9722Z" fill="black"/>
<path d="M20.9636 45.4775H14.428C13.382 45.4775 12.534 46.3255 12.534 47.3715V65.1145C12.534 66.1605 13.382 67.0084 14.428 67.0084H20.9636C22.0096 67.0084 22.8575 66.1605 22.8575 65.1145V47.3715C22.8575 46.3255 22.0096 45.4775 20.9636 45.4775Z" fill="#263238"/>
<path d="M15.9466 39.2554C15.9466 39.2554 13.5526 40.4759 12.9903 41.6022C12.428 42.7285 12.9903 54.3652 12.9903 55.2575C12.9903 56.1498 14.7243 61.9681 15.0543 62.5776C15.3843 63.187 19.9366 63.8924 19.9366 63.8924L15.9466 39.2554Z" fill="#FFD613"/>
<path opacity="0.1" d="M15.9466 39.2554C15.9466 39.2554 13.5526 40.4759 12.9903 41.6022C12.428 42.7285 12.9903 54.3652 12.9903 55.2575C12.9903 56.1498 14.7243 61.9681 15.0543 62.5776C15.3843 63.187 19.9366 63.8924 19.9366 63.8924L15.9466 39.2554Z" fill="black"/>
<path d="M74.327 67.0068H80.8625C81.9086 67.0068 82.7565 66.1589 82.7565 65.1128V47.3699C82.7565 46.3239 81.9086 45.4759 80.8625 45.4759H74.327C73.281 45.4759 72.433 46.3239 72.433 47.3699V65.1128C72.433 66.1589 73.281 67.0068 74.327 67.0068Z" fill="#263238"/>
<path d="M79.344 39.2554C79.344 39.2554 81.738 40.4759 82.3003 41.6022C82.8626 42.7285 82.3003 54.3652 82.3003 55.2575C82.3003 56.1498 80.5662 61.9681 80.2363 62.5776C79.9063 63.187 75.354 63.8924 75.354 63.8924L79.344 39.2554Z" fill="#FFD613"/>
<path opacity="0.1" d="M79.344 39.2554C79.344 39.2554 81.738 40.4759 82.3003 41.6022C82.8626 42.7285 82.3003 54.3652 82.3003 55.2575C82.3003 56.1498 80.5662 61.9681 80.2363 62.5776C79.9063 63.187 75.354 63.8924 75.354 63.8924L79.344 39.2554Z" fill="black"/>
<path d="M80.275 58.6127C80.2514 58.9174 79.2177 63.2829 78.7951 63.7273C78.3726 64.1718 69.9262 64.5253 69.4094 64.5253C68.8925 64.5253 67.2763 63.6112 66.9716 63.5404C66.6669 63.4697 49.7169 63.5152 47.6461 63.5152C45.5754 63.5152 28.622 63.4664 28.3207 63.5388C28.0193 63.6112 26.3964 64.5253 25.8795 64.5253C25.3627 64.5253 16.918 64.1735 16.4937 63.7273C16.0695 63.2812 15.0391 58.9174 15.0156 58.6127C14.992 58.308 15.322 57.2288 15.322 56.9931C15.322 56.7574 15.0695 40.4119 15.1385 40.0937C15.2075 39.7755 15.8776 37.5599 16.1789 37.0852C16.4803 36.6104 19.1521 33.2315 19.2228 33.0194C20.8676 28.0832 25.4687 20.8608 26.1741 20.2244C26.8323 19.6389 27.6443 19.2539 28.5143 19.115C29.218 19.0291 38.7385 18.6772 47.6461 18.6772C56.5538 18.6772 66.0742 19.0291 66.7763 19.115C67.6466 19.2542 68.4591 19.6391 69.1181 20.2244C69.8201 20.8591 74.4213 28.0815 76.0678 33.0194C76.1385 33.2315 78.8137 36.6104 79.1116 37.0852C79.4096 37.5599 80.0797 39.7788 80.1487 40.0937C80.2177 40.4085 79.9703 56.7608 79.9703 56.9931C79.9703 57.2255 80.2985 58.308 80.275 58.6127Z" fill="#FFD613"/>
<path opacity="0.1" d="M78.2261 55.7021C78.2261 55.9849 77.8439 58.1752 77.5964 58.2358C70.8 59.9278 54.4763 61.347 47.6461 61.2359C40.8143 61.347 24.4906 59.9278 17.6941 58.2358C17.4466 58.1752 17.0661 55.9849 17.0661 55.7021C17.0661 55.4192 17.3473 52.3013 17.6941 52.207C18.0409 52.1128 25.2313 53.4057 31.277 54.2088C36.7061 54.8955 42.1737 55.2329 47.6461 55.2189C53.1179 55.2328 58.585 54.8954 64.0136 54.2088C70.0575 53.4057 77.2479 52.1128 77.5964 52.207C77.9449 52.3013 78.2261 55.4209 78.2261 55.7021Z" fill="black"/>
<path opacity="0.5" d="M71.5845 53.0854L69.2747 59.6681C61.7391 60.6513 52.3971 61.313 47.6478 61.2355C42.8985 61.313 33.5599 60.6513 26.0243 59.6681L23.7094 53.0854C26.0479 53.4541 28.7601 53.8734 31.2854 54.2084C36.714 54.8951 42.181 55.2325 47.6528 55.2185C53.1252 55.2325 58.5928 54.8951 64.022 54.2084C66.5305 53.8734 69.2477 53.4541 71.5845 53.0854Z" fill="white"/>
<path d="M64.0136 54.2088C64.0473 54.3654 62.7476 56.9479 61.7677 58.4833C61.4765 58.9412 60.0707 59.9985 59.7475 60.0675C59.4242 60.1366 55.3703 61.2359 47.6495 61.2359C39.9287 61.2359 35.8798 60.1366 35.5498 60.0675C35.2199 59.9985 33.8175 58.9412 33.5296 58.4833C32.5498 56.9479 31.2501 54.3654 31.2837 54.2088C31.3174 54.0522 36.166 55.2189 47.6529 55.2189C59.1397 55.2189 63.985 54.0522 64.0136 54.2088Z" fill="#263238"/>
<path d="M21.2112 56.9856C21.9388 56.6842 22.2843 55.8501 21.9829 55.1225C21.6816 54.3949 20.8474 54.0494 20.1198 54.3508C19.3922 54.6522 19.0467 55.4863 19.3481 56.2139C19.6495 56.9415 20.4836 57.287 21.2112 56.9856Z" fill="white"/>
<path d="M19.6571 54.6599C20.5528 53.7272 22.2296 54.3501 22.2717 55.67C22.2789 55.883 22.2424 56.0951 22.1642 56.2934C22.0861 56.4916 21.9681 56.6717 21.8175 56.8224C21.6669 56.9732 21.487 57.0914 21.2888 57.1697C21.0907 57.248 20.8785 57.2848 20.6656 57.2778C19.3457 57.2357 18.7244 55.5572 19.6554 54.6616L19.6571 54.6599ZM19.6571 54.6599C19.5291 54.7894 19.429 54.9438 19.363 55.1136C19.2971 55.2834 19.2668 55.4649 19.2739 55.6469C19.281 55.8289 19.3254 56.0075 19.4043 56.1716C19.4833 56.3357 19.5951 56.4819 19.7329 56.601C20.9922 57.6111 22.6117 55.9932 21.5982 54.7339C21.4788 54.5965 21.3325 54.485 21.1684 54.4064C21.0042 54.3277 20.8256 54.2835 20.6437 54.2766C20.4618 54.2696 20.2804 54.3001 20.1107 54.366C19.941 54.4319 19.7866 54.5319 19.6571 54.6599Z" fill="#DBDBDB"/>
<path d="M74.9532 57.2151C75.7171 57.0182 76.1767 56.2393 75.9799 55.4754C75.783 54.7115 75.0041 54.2518 74.2402 54.4487C73.4763 54.6456 73.0166 55.4244 73.2135 56.1884C73.4104 56.9523 74.1892 57.4119 74.9532 57.2151Z" fill="white"/>
<path d="M75.4786 54.6599C75.349 54.532 75.1947 54.432 75.025 54.3661C74.8553 54.3001 74.6739 54.2697 74.492 54.2767C74.31 54.2836 74.1315 54.3278 73.9673 54.4064C73.8031 54.4851 73.6568 54.5966 73.5374 54.734C72.5273 55.9933 74.1452 57.6146 75.4028 56.6011C75.5406 56.4819 75.6524 56.3358 75.7313 56.1717C75.8103 56.0075 75.8547 55.8289 75.8618 55.6469C75.8689 55.465 75.8386 55.2834 75.7726 55.1137C75.7067 54.9439 75.6066 54.7895 75.4786 54.6599ZM75.4786 54.6599C76.4112 55.5556 75.79 57.2341 74.4684 57.2762C74.2555 57.2832 74.0433 57.2464 73.8452 57.1681C73.647 57.0898 73.4671 56.9716 73.3165 56.8208C73.1659 56.6701 73.0479 56.49 72.9697 56.2918C72.8916 56.0935 72.8551 55.8813 72.8623 55.6684C72.9044 54.3502 74.5812 53.7273 75.4769 54.6583L75.4786 54.6599Z" fill="#DBDBDB"/>
<path d="M74.7832 32.7805C74.7832 32.7805 62.0657 33.3378 47.6461 33.3378C33.2265 33.3378 20.5073 32.7805 20.5073 32.7805C23.1101 26.2567 26.5142 21.2128 26.8897 20.9317C27.2651 20.6505 28.6018 20.1572 28.9756 20.063C30.5749 19.664 41.9978 19.5933 47.6461 19.5933C53.2944 19.5933 64.7139 19.664 66.3133 20.063C66.6887 20.1572 68.0272 20.6505 68.4026 20.9317C68.778 21.2128 72.1805 26.2567 74.7832 32.7805Z" fill="#455A64"/>
<path d="M74.7832 32.7802C74.7832 32.7802 62.0657 33.3374 47.6461 33.3374C33.2265 33.3374 20.5073 32.7802 20.5073 32.7802C20.7531 32.1674 21.004 31.5647 21.2582 30.9805C24.1859 31.0983 35.2906 31.5057 47.6461 31.5057C60.0017 31.5057 71.1047 31.0983 74.0324 30.9805C74.2866 31.5647 74.5374 32.1674 74.7832 32.7802Z" fill="#263238"/>
<g opacity="0.7">
<path d="M43.4423 27.4199H25.6859C25.4403 27.4201 25.2029 27.5078 25.0162 27.6674C24.8295 27.8269 24.7058 28.0478 24.6674 28.2903L24.2128 31.1523C24.1895 31.2989 24.1982 31.4487 24.2381 31.5915C24.2781 31.7344 24.3484 31.867 24.4443 31.9801C24.5402 32.0933 24.6595 32.1844 24.7938 32.2473C24.9282 32.3101 25.0746 32.3432 25.2229 32.3443H43.8969C44.0459 32.3444 44.1932 32.3122 44.3286 32.2499C44.464 32.1876 44.5843 32.0966 44.6811 31.9833C44.778 31.87 44.849 31.737 44.8895 31.5936C44.9299 31.4501 44.9388 31.2996 44.9154 31.1523L44.4608 28.2903C44.4224 28.0478 44.2987 27.8269 44.112 27.6674C43.9253 27.5078 43.6879 27.4201 43.4423 27.4199Z" fill="#263238"/>
<path d="M40.2065 24.0981H28.9217C28.5637 24.0981 28.2735 24.3883 28.2735 24.7463V27.8844C28.2735 28.2424 28.5637 28.5326 28.9217 28.5326H40.2065C40.5645 28.5326 40.8547 28.2424 40.8547 27.8844V24.7463C40.8547 24.3883 40.5645 24.0981 40.2065 24.0981Z" fill="#263238"/>
</g>
<g opacity="0.7">
<path d="M69.6114 27.4199H51.8483C51.6027 27.4201 51.3652 27.5078 51.1785 27.6674C50.9919 27.8269 50.8682 28.0478 50.8297 28.2903L50.3752 31.1523C50.3518 31.2996 50.3606 31.4501 50.4011 31.5936C50.4415 31.737 50.5126 31.87 50.6094 31.9833C50.7063 32.0966 50.8265 32.1876 50.9619 32.2499C51.0973 32.3122 51.2446 32.3444 51.3937 32.3443H70.0592C70.2076 32.3432 70.3539 32.3101 70.4883 32.2473C70.6227 32.1844 70.7419 32.0933 70.8378 31.9801C70.9337 31.867 71.0041 31.7344 71.044 31.5915C71.084 31.4487 71.0926 31.2989 71.0693 31.1523L70.6148 28.2903C70.5768 28.0503 70.4553 27.8315 70.2717 27.6722C70.0882 27.513 69.8543 27.4237 69.6114 27.4199Z" fill="#263238"/>
<path d="M66.3689 24.0981H55.084C54.7261 24.0981 54.4359 24.3883 54.4359 24.7463V27.8844C54.4359 28.2424 54.7261 28.5326 55.084 28.5326H66.3689C66.7268 28.5326 67.017 28.2424 67.017 27.8844V24.7463C67.017 24.3883 66.7268 24.0981 66.3689 24.0981Z" fill="#263238"/>
</g>
<path d="M69.5255 32.1607H51.9274L53.6109 29.765L60.7256 29.3862L67.8403 29.765L69.5255 32.1607Z" fill="#263238"/>
<path d="M60.7256 26.1235C59.6354 26.1249 58.5902 26.5587 57.8194 27.3298C57.0487 28.1008 56.6153 29.1462 56.6144 30.2364C56.6145 30.7929 56.7277 31.3435 56.9471 31.8549C57.1664 32.3662 57.4874 32.8277 57.8905 33.2113L59.3114 33.1827C58.7567 32.9162 58.2885 32.4984 57.9609 31.9774C57.6332 31.4565 57.4594 30.8536 57.4595 30.2381C57.4589 29.7656 57.5608 29.2985 57.7582 28.8692C57.9556 28.4398 58.2438 28.0584 58.6029 27.7513C58.9621 27.4442 59.3836 27.2187 59.8384 27.0903C60.2932 26.9619 60.7704 26.9338 61.2371 27.0078C61.7038 27.0818 62.1489 27.2562 62.5417 27.5189C62.9344 27.7817 63.2655 28.1266 63.512 28.5297C63.7586 28.9329 63.9147 29.3847 63.9696 29.8541C64.0245 30.3234 63.9769 30.7991 63.8301 31.2483C63.5705 32.0496 63.0122 32.7201 62.2711 33.1204L63.6954 33.0816C64.1928 32.5648 64.5453 31.9261 64.7173 31.2297C64.7967 30.9092 64.8363 30.5801 64.8352 30.2499C64.8365 29.7091 64.7312 29.1733 64.5254 28.6731C64.3195 28.173 64.0171 27.7183 63.6355 27.3351C63.2538 26.9519 62.8004 26.6477 62.3011 26.4398C61.8018 26.2319 61.2664 26.1244 60.7256 26.1235Z" fill="#263238"/>
<path d="M60.8098 30.718L57.7289 28.2751L58.2541 27.6118L60.8098 29.6388L63.3671 27.6118L63.8924 28.2751L60.8098 30.718Z" fill="#263238"/>
<g opacity="0.1">
<path d="M43.1291 19.6064L29.6608 33.0833C28.4823 33.0529 27.3964 33.021 26.4098 32.9923L39.7654 19.6351C40.8984 19.6233 42.0382 19.6132 43.1291 19.6064Z" fill="white"/>
<path d="M68.842 21.4769L57.0572 33.2617C55.9561 33.2769 54.8231 33.292 53.6699 33.3038L66.7696 20.2041C67.3234 20.3943 68.1265 20.7209 68.4043 20.928C68.5662 21.0976 68.7127 21.2813 68.842 21.4769Z" fill="white"/>
<path d="M73.8202 30.4991L71.4077 32.91C70.4329 32.9436 69.2713 32.9824 67.9547 33.0194L72.7461 28.228C73.103 28.9486 73.4616 29.7079 73.8202 30.4991Z" fill="white"/>
<path d="M38.6913 19.6484L25.3812 32.9586L24.8761 32.9434L38.1661 19.6552L38.6913 19.6484Z" fill="white"/>
<path d="M54.7962 19.6303L41.1224 33.3007H40.6173L54.2911 19.6235C54.4594 19.6252 54.6278 19.6252 54.7962 19.6303Z" fill="white"/>
<path d="M72.1081 26.9822L66.0069 33.0834L65.4783 33.0985L71.9296 26.6455L72.1081 26.9822Z" fill="white"/>
<path d="M31.4133 19.8389L22.0898 29.1708C22.4754 28.361 22.8626 27.5916 23.2397 26.8727L30.1911 19.9113C30.5429 19.886 30.9537 19.8608 31.4133 19.8389Z" fill="white"/>
<path d="M59.2929 19.6926L45.6562 33.3293H44.513L58.1632 19.6724C58.5471 19.6774 58.9242 19.6875 59.2929 19.6926Z" fill="white"/>
</g>
<path opacity="0.1" d="M20.5073 32.7803C19.9147 34.1625 19.1032 35.4554 18.28 36.7097L18.1924 36.8427C18.1487 36.9875 18.3153 37.2871 18.4029 37.442C18.5291 37.6676 18.6756 37.8831 18.8204 38.1053C18.4652 37.8242 17.6419 37.1289 17.9281 36.6238C18.6437 35.2516 19.5087 33.9626 20.5073 32.7803Z" fill="black"/>
<path opacity="0.1" d="M74.7832 32.7803C75.7818 33.963 76.6473 35.2519 77.3641 36.6238C77.6503 37.1289 76.8254 37.8225 76.4701 38.1053C76.6149 37.8831 76.7631 37.6676 76.8877 37.442C76.9752 37.2888 77.1436 36.9875 77.0981 36.8427C77.0779 36.809 77.0325 36.7433 77.0106 36.7097C76.1873 35.4554 75.3758 34.1642 74.7832 32.7803Z" fill="black"/>
<path opacity="0.1" d="M79.7262 43.4223C79.7262 43.7203 79.7127 45.4307 79.4803 45.5705C78.8305 45.9594 75.9634 46.8668 74.1738 47.1985C65.7998 48.7423 53.6345 49.6127 47.6461 49.5133C41.6628 49.6127 29.4907 48.7423 21.1168 47.1985C19.3288 46.8618 16.4601 45.9594 15.8102 45.5705C15.5779 45.4307 15.5644 43.7186 15.5644 43.4223C15.5644 43.126 17.5561 39.1444 17.9214 39.045C18.2867 38.9457 22.4266 41.2976 29.3544 42.5451C36.4573 43.823 47.6411 43.8566 47.6411 43.8566C47.6411 43.8566 58.8232 43.823 65.9261 42.5451C72.8539 41.2976 76.9887 39.1562 77.3591 39.2572C77.7295 39.3582 79.7262 43.1226 79.7262 43.4223Z" fill="black"/>
<path opacity="0.5" d="M79.4803 45.5703C77.0914 46.8448 74.4297 47.5098 71.7781 47.966C69.1248 48.4554 66.4609 48.8684 63.7863 49.2051C58.4326 49.8785 53.0503 50.4172 47.6461 50.4088C38.8765 50.3348 30.1372 49.2388 21.5275 47.5805C19.5363 47.177 17.6102 46.5012 15.8035 45.572C17.6491 46.3784 19.5894 46.948 21.578 47.2673C30.2045 48.5132 38.9186 49.5165 47.6394 49.562C53.0032 49.594 58.3653 49.0805 63.7021 48.5519C66.3739 48.264 69.044 47.9458 71.704 47.5619C73.0307 47.3667 74.3674 47.2168 75.6637 46.8666C76.9601 46.5165 78.2564 46.1394 79.4736 45.572L79.4803 45.5703Z" fill="white"/>
<path d="M19.4416 38.2518C20.8861 38.3848 27.7415 42.6425 28.0277 42.9927C28.3139 43.3429 29.0109 46.8649 28.5799 47.2016C28.1489 47.5383 22.9653 47.3699 21.4046 47.1208C19.844 46.8716 16.6183 45.9945 15.8927 45.4372C15.1671 44.88 15.7243 40.9438 16.4365 40.1542C17.3624 39.1475 18.5224 38.166 19.4416 38.2518Z" fill="white"/>
<path d="M19.4416 38.2521C19.8131 38.3265 20.1742 38.4452 20.5174 38.6056C21.5595 39.0602 22.5562 39.6157 23.5478 40.1528C25.0361 40.9862 26.5294 41.8195 27.9469 42.7774C28.1231 42.901 28.2468 43.086 28.2937 43.296C28.4123 43.6609 28.5117 44.0318 28.5917 44.4071C28.7736 45.1569 28.8752 45.9238 28.8947 46.6951C28.883 47.1362 28.8089 47.4291 28.3257 47.488C27.0883 47.6682 25.8391 47.6025 24.5983 47.5789C23.4552 47.5234 22.3087 47.4863 21.1774 47.2843C19.4938 46.9476 17.8271 46.493 16.2597 45.7876C16.0741 45.7037 15.9035 45.59 15.7547 45.4509C15.3338 44.7775 15.4836 43.9054 15.5324 43.1562C15.6823 42.1461 15.8186 41.0367 16.4045 40.1663C17.2025 39.3548 18.2194 38.2336 19.4349 38.2487L19.4416 38.2521ZM19.4416 38.2521C18.2783 38.2521 17.3877 39.2134 16.625 39.9861C16.3615 40.2569 16.1719 40.5908 16.0745 40.9558C15.8558 41.6778 15.7192 42.4222 15.6671 43.1748C15.6108 43.7325 15.6289 44.2952 15.721 44.8482C15.7816 45.126 15.8624 45.3381 16.12 45.4593C17.3877 46.0688 18.785 46.3651 20.147 46.6883C21.6117 47.0419 23.1185 47.1042 24.6202 47.1597C25.3728 47.19 26.1354 47.2069 26.8795 47.1968C27.3998 47.1766 27.9722 47.2052 28.4638 47.0671C28.4904 47.0288 28.5061 46.984 28.5092 46.9375C28.6069 46.1311 28.4486 45.2893 28.3156 44.4677C28.2453 44.0093 28.1326 43.5584 27.9789 43.1209C27.9553 43.0552 27.8846 43.0165 27.8206 42.9525C26.4469 41.9576 24.9923 41.0686 23.5326 40.1966C22.5592 39.6114 21.5543 39.0803 20.5225 38.6056C20.181 38.4418 19.8209 38.3202 19.45 38.2437L19.4416 38.2521Z" fill="#DBDBDB"/>
<path d="M23.0074 43.5026C23.0259 45.2098 20.9265 46.1458 19.6639 44.9623C19.4665 44.7737 19.3094 44.547 19.2021 44.296C19.0948 44.045 19.0395 43.7748 19.0395 43.5018C19.0395 43.2288 19.0948 42.9586 19.2021 42.7076C19.3094 42.4566 19.4665 42.2299 19.6639 42.0413C20.9265 40.8628 23.0309 41.7955 23.0091 43.5026H23.0074ZM23.0074 43.5026C23.0175 41.8915 20.9871 41.112 19.9214 42.3006C19.6211 42.6292 19.4545 43.0583 19.4545 43.5035C19.4545 43.9487 19.6211 44.3778 19.9214 44.7064C20.9838 45.8966 23.0192 45.1138 23.0091 43.5026H23.0074Z" fill="#DBDBDB"/>
<path d="M26.8492 44.7518C26.8779 46.1963 25.0613 47.0213 23.9872 46.0094C23.8156 45.8478 23.6789 45.6528 23.5855 45.4364C23.492 45.22 23.4438 44.9867 23.4438 44.751C23.4438 44.5153 23.492 44.282 23.5855 44.0656C23.6789 43.8492 23.8156 43.6542 23.9872 43.4925C25.0546 42.4824 26.8728 43.3073 26.8492 44.7518ZM26.8492 44.7518C26.8492 43.3865 25.1438 42.7434 24.2515 43.7518C23.4098 44.6357 24.031 46.1761 25.2516 46.2451C25.4559 46.2577 25.6606 46.2285 25.8532 46.1593C26.0459 46.0901 26.2224 45.9823 26.3719 45.8425C26.5215 45.7027 26.6409 45.5339 26.723 45.3464C26.8051 45.1588 26.848 44.9565 26.8492 44.7518Z" fill="#DBDBDB"/>
<path d="M18.8187 41.7403C18.5982 42.3818 18.3625 45.5014 18.482 45.9138C18.5806 46.1481 18.7184 46.3639 18.8894 46.5519C17.5964 46.2017 16.3271 45.769 15.9028 45.4424C15.1772 44.8852 15.7344 40.9491 16.4483 40.1612C17.3624 39.151 18.5241 38.1645 19.45 38.252C19.7766 38.2823 20.3827 38.5247 21.1336 38.885C21.1252 38.885 19.0376 41.0989 18.8187 41.7403Z" fill="#FFD613"/>
<path opacity="0.2" d="M18.8187 41.7403C18.5982 42.3801 18.3625 45.5014 18.482 45.9138C18.5806 46.1481 18.7184 46.3639 18.8894 46.5519C17.5964 46.2017 16.3271 45.7691 15.9028 45.4424C15.1772 44.8852 15.7344 40.9491 16.4483 40.1595C17.3624 39.1493 18.5241 38.1645 19.45 38.252C19.7766 38.2823 20.3827 38.5231 21.1336 38.885C21.1252 38.885 19.0376 41.0989 18.8187 41.7403Z" fill="black"/>
<path d="M75.8405 38.2518C74.3977 38.3848 67.5406 42.6425 67.2544 42.9927C66.9682 43.3429 66.2712 46.8649 66.7039 47.2016C67.1366 47.5383 72.3168 47.3699 73.8775 47.1208C75.4381 46.8716 78.6638 45.9945 79.3911 45.4372C80.1184 44.88 79.5595 40.9438 78.8456 40.1542C77.9281 39.1475 76.7681 38.166 75.8405 38.2518Z" fill="white"/>
<path d="M75.8405 38.2517C75.4696 38.3282 75.1095 38.4498 74.7681 38.6136C73.7362 39.0883 72.7313 39.6194 71.7579 40.2046C70.2999 41.0766 68.8437 41.9656 67.4699 42.9605C67.4059 43.0195 67.3352 43.0582 67.3133 43.1289C67.156 43.5659 67.0404 44.0169 66.9682 44.4757C66.8352 45.2973 66.6769 46.1391 66.7746 46.9455C66.7864 47.0229 66.8251 47.0953 66.8217 47.0751C66.886 47.0986 66.9526 47.1149 67.0204 47.124C68.2224 47.2654 69.4514 47.1997 70.6636 47.1677C72.1653 47.1122 73.6721 47.0499 75.1368 46.6963C76.4988 46.3731 77.8961 46.0768 79.1638 45.4673C79.4197 45.3461 79.5005 45.1306 79.5628 44.8562C79.6565 44.3034 79.6747 43.7404 79.6167 43.1828C79.5655 42.4272 79.4283 41.6799 79.2076 40.9554C79.1095 40.5913 78.9193 40.2585 78.6554 39.9891C77.8944 39.2163 77.0022 38.2533 75.8388 38.255L75.8405 38.2517ZM75.8405 38.2517C77.0644 38.2348 78.0779 39.3577 78.8709 40.1692C79.4568 41.0396 79.5931 42.1406 79.7447 43.1592C79.7918 43.9134 79.9416 44.772 79.5207 45.4539C79.3719 45.5929 79.2013 45.7066 79.0157 45.7906C77.4483 46.496 75.7782 46.9421 74.098 47.2873C72.2108 47.5886 70.3016 47.624 68.3959 47.6021C67.9118 47.5994 67.4285 47.5623 66.9497 47.491C66.8312 47.4743 66.717 47.4355 66.613 47.3765C66.5576 47.3313 66.5116 47.2756 66.4778 47.2127C66.444 47.1497 66.423 47.0806 66.416 47.0095C66.315 46.1273 66.5237 45.2653 66.6887 44.4101C66.7687 44.0348 66.8682 43.6639 66.9867 43.2989C67.0341 43.0891 67.1577 42.9043 67.3335 42.7804C68.7511 41.8225 70.2444 40.9891 71.7326 40.1557C72.7293 39.612 73.726 39.0631 74.763 38.6086C75.1059 38.4474 75.4672 38.3287 75.8388 38.255L75.8405 38.2517Z" fill="#DBDBDB"/>
<path d="M72.2832 43.5029C72.2731 45.1141 74.3034 45.8969 75.3708 44.7067C75.6712 44.3781 75.8377 43.949 75.8377 43.5038C75.8377 43.0586 75.6712 42.6295 75.3708 42.3009C74.3102 41.1123 72.2764 41.8918 72.2849 43.5029H72.2832ZM72.2832 43.5029C72.2647 41.7958 74.3657 40.8581 75.6284 42.0416C75.8257 42.2302 75.9828 42.4569 76.0901 42.7079C76.1974 42.9589 76.2528 43.2291 76.2528 43.5021C76.2528 43.7751 76.1974 44.0452 76.0901 44.2963C75.9828 44.5473 75.8257 44.7739 75.6284 44.9626C74.3674 46.141 72.2613 45.21 72.2849 43.5029H72.2832Z" fill="#DBDBDB"/>
<path d="M68.4481 44.7521C68.4493 44.9568 68.4922 45.1591 68.5743 45.3466C68.6564 45.5341 68.7758 45.703 68.9254 45.8427C69.0749 45.9825 69.2514 46.0903 69.4441 46.1595C69.6367 46.2288 69.8414 46.258 70.0457 46.2454C71.8808 46.0636 71.8808 43.4423 70.0457 43.2605C69.8416 43.2479 69.637 43.277 69.4445 43.3462C69.2519 43.4153 69.0755 43.523 68.926 43.6626C68.7765 43.8022 68.657 43.9708 68.5748 44.1581C68.4926 44.3454 68.4495 44.5475 68.4481 44.7521ZM68.4481 44.7521C68.4194 43.3076 70.2377 42.481 71.3101 43.4928C71.4817 43.6544 71.6184 43.8495 71.7118 44.0659C71.8052 44.2823 71.8535 44.5155 71.8535 44.7513C71.8535 44.987 71.8052 45.2202 71.7118 45.4366C71.6184 45.653 71.4817 45.8481 71.3101 46.0097C70.2427 47.0198 68.4262 46.1966 68.4481 44.7521Z" fill="#DBDBDB"/>
<path d="M76.4718 41.7403C76.6924 42.3818 76.9281 45.5014 76.8085 45.9138C76.7099 46.1481 76.5722 46.3639 76.4011 46.5519C77.6941 46.2017 78.9635 45.769 79.3877 45.4424C80.1133 44.8852 79.5561 40.9491 78.8423 40.1612C77.9281 39.151 76.7665 38.1645 75.8405 38.252C75.5156 38.2823 74.9078 38.5247 74.1671 38.885C74.1687 38.885 76.253 41.0989 76.4718 41.7403Z" fill="#FFD613"/>
<path opacity="0.2" d="M76.4718 41.7403C76.6924 42.3801 76.9281 45.5014 76.8085 45.9138C76.7099 46.1481 76.5722 46.3639 76.4011 46.5519C77.6941 46.2017 78.9635 45.7691 79.3877 45.4424C80.1133 44.8852 79.5561 40.9491 78.8423 40.1595C77.9281 39.1493 76.7665 38.1645 75.8405 38.252C75.5156 38.2823 74.9078 38.5231 74.1671 38.885C74.1687 38.885 76.253 41.0989 76.4718 41.7403Z" fill="black"/>
<path d="M65.9312 42.5432C65.9682 42.6998 64.2257 46.4457 63.9109 46.9053C63.5961 47.3649 62.0826 48.1545 61.7223 48.2235C61.362 48.2925 55.9528 49.3919 47.6428 49.3919C39.3328 49.3919 33.9134 48.2942 33.5599 48.2235C33.2063 48.1528 31.6945 47.3632 31.3797 46.9053C31.0649 46.4474 29.319 42.6964 29.3594 42.5432C29.3998 42.39 34.602 43.4018 37.7519 43.5247C39.3008 43.587 44.1578 43.8614 47.6461 43.8614C51.1344 43.8614 55.9898 43.5938 57.5387 43.5247C60.6886 43.4018 65.8975 42.3867 65.9312 42.5432Z" fill="#37474F"/>
<path d="M32.7854 42.9878C33.4959 43.0888 34.2552 43.1949 35.0094 43.2841H29.6423C29.5934 43.1763 29.5513 43.077 29.516 42.9878H32.7854ZM62.5051 42.9878C61.7964 43.0888 61.0354 43.1949 60.2828 43.2841H65.6483C65.6971 43.1763 65.7392 43.077 65.7746 42.9878H62.5051ZM50.8886 43.8009C49.7708 43.8312 48.6563 43.8548 47.6529 43.8548C46.6495 43.8548 45.5333 43.8312 44.4154 43.8009H29.8695C29.9116 43.8952 29.9554 43.9929 30.0025 44.0939H65.288C65.3352 43.9929 65.3789 43.8952 65.421 43.8009H50.8886ZM30.2467 44.6107C30.2904 44.7101 30.3376 44.8077 30.3847 44.9054H64.9143C64.9597 44.8077 65.0069 44.7101 65.0507 44.6107H30.2467ZM30.6271 45.4222L30.7719 45.7185H64.5254L64.6702 45.4222H30.6271ZM31.0228 46.232L31.176 46.5283H64.1213L64.2745 46.232H31.0228ZM31.5076 47.0435C31.6223 47.1513 31.745 47.2504 31.8746 47.3398H63.4227C63.5526 47.2508 63.6753 47.1517 63.7897 47.0435H31.5076ZM32.7333 47.8566C32.9334 47.9649 33.1391 48.0627 33.3494 48.1496H61.9529C62.164 48.0631 62.3703 47.9653 62.5708 47.8566H32.7333ZM36.3007 48.6664C37.0095 48.764 37.8462 48.8651 38.8008 48.961H56.4982C57.4528 48.8651 58.2878 48.764 58.9966 48.6664H36.3007Z" fill="#455A64"/>
<path d="M54.584 51.9609H40.7082V55.6681H54.584V51.9609Z" fill="white"/>
</svg>
