<svg width="108" height="81" viewBox="0 0 108 81" fill="none" xmlns="http://www.w3.org/2000/svg">
<path d="M53.786 80.1541C76.8242 80.1541 95.5003 79.0637 95.5003 77.7186C95.5003 76.3736 76.8242 75.2832 53.786 75.2832C30.7478 75.2832 12.0717 76.3736 12.0717 77.7186C12.0717 79.0637 30.7478 80.1541 53.786 80.1541Z" fill="#F5F5F5"/>
<path d="M50.4556 59.7214L52.2864 59.8742L53.7021 55.7004L51.8734 55.5498L50.4556 59.7214Z" fill="#FF8B7B"/>
<path d="M52.4414 59.487L50.4298 59.4482C50.3934 59.448 50.3579 59.46 50.3291 59.4822C50.3003 59.5044 50.2797 59.5356 50.2706 59.5709L49.8768 61.2017C49.8675 61.2403 49.867 61.2805 49.8752 61.3193C49.8834 61.3582 49.9002 61.3947 49.9243 61.4262C49.9484 61.4578 49.9792 61.4835 50.0146 61.5016C50.0499 61.5197 50.0889 61.5297 50.1286 61.5308C50.8536 61.5308 51.9035 61.5115 52.8136 61.5308C53.8893 61.5502 54.2141 61.6255 55.4641 61.6513C56.2214 61.6642 56.4452 60.9048 56.1289 60.8295C54.6961 60.4874 54.1044 60.4314 52.8759 59.6397C52.7477 59.5503 52.5974 59.4974 52.4414 59.487Z" fill="#263238"/>
<path opacity="0.2" d="M53.7021 55.7026L52.9728 57.854L51.1419 57.7012L51.8712 55.5498L53.7021 55.7026Z" fill="black"/>
<path d="M57.7296 45.0122C57.2541 41.5226 50.3846 37.9017 50.3846 37.9017L44.0679 36.4839C44.0679 36.4839 41.6605 37.0411 42.577 39.6938C43.4935 42.3466 50.0769 43.8891 53.2933 46.4472C52.9254 50.7953 50.9891 56.4148 50.9891 56.4148L53.6483 57.0258C53.6483 57.0258 58.3277 49.3882 57.7296 45.0122Z" fill="#FFD613"/>
<path opacity="0.3" d="M57.7296 45.0122C57.2541 41.5226 50.3846 37.9017 50.3846 37.9017L44.0679 36.4839C44.0679 36.4839 41.6605 37.0411 42.577 39.6938C43.4935 42.3466 50.0769 43.8891 53.2933 46.4472C52.9254 50.7953 50.9891 56.4148 50.9891 56.4148L53.6483 57.0258C53.6483 57.0258 58.3277 49.3882 57.7296 45.0122Z" fill="white"/>
<path d="M54.0442 57.5983L50.376 57.0131L50.5653 55.8276L54.468 56.3892L54.0442 57.5983Z" fill="#FFD613"/>
<path d="M52.6178 59.7453C52.6105 59.7425 52.6042 59.7378 52.5993 59.7318C52.5944 59.7257 52.5911 59.7185 52.5898 59.7109C52.5884 59.7018 52.5899 59.6925 52.5942 59.6844C52.5985 59.6763 52.6052 59.6697 52.6135 59.6657C52.6974 59.6248 53.4439 59.2634 53.6655 59.3925C53.6864 59.404 53.7039 59.4208 53.7164 59.4412C53.7288 59.4615 53.7358 59.4848 53.7365 59.5086C53.7412 59.5488 53.7358 59.5896 53.7208 59.6271C53.7057 59.6647 53.6816 59.6979 53.6504 59.7238C53.4353 59.8981 52.919 59.8163 52.6221 59.7518L52.6178 59.7453ZM53.6053 59.4592C53.4676 59.4097 53.0653 59.5538 52.7705 59.6872C53.175 59.7625 53.4783 59.7518 53.5924 59.6528C53.6125 59.6364 53.6281 59.6151 53.6379 59.5911C53.6477 59.567 53.6513 59.5409 53.6483 59.5151C53.6493 59.5055 53.6474 59.4959 53.6428 59.4874C53.6382 59.4789 53.6311 59.4721 53.6225 59.4678C53.6175 59.4636 53.6116 59.4607 53.6053 59.4592Z" fill="#FFD613"/>
<path d="M52.6178 59.7455C52.6115 59.7414 52.6065 59.7356 52.6034 59.7287C52.6003 59.7218 52.5994 59.7142 52.6006 59.7068C52.6006 59.6853 52.6608 59.1904 52.8996 59.0033C52.9331 58.9753 52.9719 58.9546 53.0138 58.9424C53.0556 58.9301 53.0995 58.9267 53.1427 58.9323C53.2611 58.9473 53.2955 59.0076 53.3019 59.057C53.3321 59.2722 52.8846 59.6552 52.6565 59.752C52.65 59.754 52.6431 59.7545 52.6364 59.7534C52.6296 59.7523 52.6233 59.7496 52.6178 59.7455ZM53.1664 59.0226C53.1514 59.0209 53.1362 59.0209 53.1212 59.0226C53.0894 59.019 53.0571 59.0219 53.0264 59.0312C52.9957 59.0404 52.9672 59.0558 52.9426 59.0764C52.8015 59.2325 52.7128 59.4289 52.6888 59.6379C52.919 59.5067 53.2223 59.2076 53.2051 59.0743C53.2051 59.0549 53.2008 59.0355 53.1664 59.0226Z" fill="#FFD613"/>
<path opacity="0.2" d="M47.7404 41.1484V43.4225C49.5068 44.253 51.3871 45.092 52.7963 46.0774C51.9723 44.2487 49.2228 41.5723 47.7404 41.1484Z" fill="black"/>
<path d="M33.1924 52.0175C35.5638 52.0175 37.8819 52.7207 39.8537 54.0382C41.8254 55.3557 43.3622 57.2283 44.2697 59.4191C45.1772 61.61 45.4146 64.0208 44.952 66.3466C44.4894 68.6725 43.3474 70.8089 41.6706 72.4857C39.9938 74.1625 37.8574 75.3045 35.5315 75.7671C33.2057 76.2297 30.7949 75.9923 28.604 75.0848C26.4132 74.1773 24.5406 72.6405 23.2231 70.6688C21.9056 68.697 21.2024 66.3789 21.2024 64.0075C21.2059 60.8286 22.4702 57.7809 24.718 55.5331C26.9658 53.2853 30.0135 52.021 33.1924 52.0175ZM33.1924 50.2964C30.4805 50.296 27.8294 51.0997 25.5743 52.6061C23.3193 54.1124 21.5615 56.2537 20.5234 58.759C19.4854 61.2643 19.2135 64.0213 19.7423 66.6811C20.2711 69.3409 21.5768 71.7842 23.4943 73.702C25.4117 75.6197 27.8548 76.9258 30.5146 77.455C33.1743 77.9843 35.9313 77.7129 38.4368 76.6752C40.9423 75.6375 43.0838 73.8801 44.5905 71.6252C46.0972 69.3704 46.9014 66.7194 46.9014 64.0075C46.9014 60.3711 45.4568 56.8836 42.8855 54.3123C40.3142 51.7409 36.8267 50.2964 33.1903 50.2964H33.1924Z" fill="#263238"/>
<path d="M33.1924 52.5292C35.4626 52.5287 37.682 53.2015 39.5698 54.4625C41.4576 55.7234 42.9291 57.5159 43.7982 59.6132C44.6673 61.7105 44.8949 64.0184 44.4522 66.245C44.0096 68.4716 42.9166 70.517 41.3115 72.1225C39.7063 73.7279 37.6612 74.8213 35.4346 75.2643C33.208 75.7074 30.9001 75.4802 28.8027 74.6115C26.7052 73.7428 24.9125 72.2717 23.6512 70.3841C22.3899 68.4965 21.7166 66.2773 21.7166 64.0071C21.7195 60.9642 22.9294 58.0467 25.0808 55.8949C27.2323 53.743 30.1495 52.5326 33.1924 52.5292ZM33.1924 50.8833C30.5968 50.8833 28.0594 51.653 25.9012 53.0951C23.743 54.5371 22.0609 56.5868 21.0676 58.9848C20.0743 61.3829 19.8144 64.0216 20.3208 66.5674C20.8272 69.1132 22.0771 71.4516 23.9125 73.287C25.7479 75.1224 28.0863 76.3723 30.6321 76.8787C33.1779 77.3851 35.8166 77.1252 38.2147 76.1319C40.6127 75.1386 42.6624 73.4565 44.1045 71.2983C45.5465 69.1401 46.3162 66.6027 46.3162 64.0071C46.3162 60.5264 44.9335 57.1884 42.4723 54.7272C40.0112 52.266 36.6731 50.8833 33.1924 50.8833Z" fill="#FFD613"/>
<path d="M74.3796 52.0175C76.7511 52.0171 79.0694 52.7199 81.0414 54.0372C83.0135 55.3544 84.5506 57.2268 85.4584 59.4177C86.3662 61.6085 86.604 64.0194 86.1416 66.3453C85.6792 68.6713 84.5374 70.8079 82.8607 72.4849C81.1839 74.162 79.0475 75.3041 76.7216 75.767C74.3958 76.2298 71.9849 75.9924 69.7939 75.085C67.6029 74.1776 65.7301 72.6408 64.4126 70.669C63.095 68.6972 62.3918 66.379 62.3918 64.0075C62.3952 60.8286 63.6595 57.7809 65.9073 55.5331C68.1551 53.2853 71.2028 52.021 74.3817 52.0175M74.3817 50.2964C71.6699 50.2964 69.019 51.1005 66.7642 52.6071C64.5095 54.1137 62.7521 56.2551 61.7143 58.7605C60.6765 61.2659 60.405 64.0227 60.9341 66.6824C61.4631 69.3421 62.769 71.7852 64.6865 73.7027C66.604 75.6203 69.0471 76.9261 71.7068 77.4552C74.3665 77.9842 77.1234 77.7127 79.6287 76.675C82.1341 75.6372 84.2755 73.8798 85.7821 71.625C87.2887 69.3702 88.0929 66.7193 88.0929 64.0075C88.0929 62.2069 87.7382 60.424 87.0492 58.7605C86.3601 57.097 85.3502 55.5855 84.077 54.3123C82.8038 53.0391 81.2923 52.0291 79.6287 51.3401C77.9652 50.651 76.1823 50.2964 74.3817 50.2964Z" fill="#263238"/>
<path d="M74.3796 52.5292C76.6498 52.5287 78.8692 53.2015 80.757 54.4625C82.6448 55.7234 84.1163 57.5159 84.9854 59.6132C85.8544 61.7105 86.082 64.0184 85.6394 66.245C85.1968 68.4716 84.1038 70.517 82.4986 72.1225C80.8935 73.7279 78.8483 74.8213 76.6218 75.2643C74.3952 75.7074 72.0873 75.4802 69.9898 74.6115C67.8924 73.7428 66.0996 72.2717 64.8383 70.3841C63.577 68.4965 62.9038 66.2773 62.9038 64.0071C62.9067 60.9642 64.1166 58.0467 66.268 55.8949C68.4195 53.743 71.3367 52.5326 74.3796 52.5292ZM74.3796 50.8833C71.784 50.8833 69.2466 51.653 67.0884 53.0951C64.9302 54.5371 63.2481 56.5868 62.2548 58.9848C61.2615 61.3829 61.0016 64.0216 61.508 66.5674C62.0144 69.1132 63.2643 71.4516 65.0997 73.287C66.9351 75.1224 69.2735 76.3723 71.8193 76.8787C74.365 77.3851 77.0038 77.1252 79.4018 76.1319C81.7999 75.1386 83.8496 73.4565 85.2916 71.2983C86.7337 69.1401 87.5034 66.6027 87.5034 64.0071C87.5034 60.5264 86.1207 57.1884 83.6595 54.7272C81.1983 52.266 77.8602 50.8833 74.3796 50.8833Z" fill="#FFD613"/>
<path d="M51.5291 66.647C51.9478 66.647 52.3571 66.7712 52.7053 67.0038C53.0534 67.2364 53.3248 67.567 53.485 67.9539C53.6452 68.3407 53.6872 68.7664 53.6055 69.177C53.5238 69.5877 53.3222 69.9649 53.0261 70.261C52.73 70.5571 52.3528 70.7587 51.9421 70.8404C51.5315 70.9221 51.1058 70.8801 50.719 70.7199C50.3322 70.5597 50.0015 70.2883 49.7689 69.9402C49.5363 69.592 49.4121 69.1827 49.4121 68.764C49.4127 68.2027 49.6359 67.6646 50.0328 67.2677C50.4297 66.8708 50.9678 66.6476 51.5291 66.647ZM51.5291 65.5713C50.8977 65.5713 50.2804 65.7585 49.7553 66.1094C49.2303 66.4602 48.8211 66.9588 48.5794 67.5422C48.3378 68.1256 48.2746 68.7676 48.3977 69.3869C48.5209 70.0062 48.825 70.5751 49.2715 71.0216C49.718 71.4681 50.2869 71.7722 50.9063 71.8954C51.5256 72.0186 52.1675 71.9554 52.7509 71.7137C53.3343 71.4721 53.833 71.0629 54.1838 70.5378C54.5346 70.0128 54.7219 69.3955 54.7219 68.764C54.7222 68.3447 54.6398 67.9294 54.4794 67.5419C54.3191 67.1544 54.0839 66.8023 53.7874 66.5058C53.4908 66.2093 53.1388 65.9741 52.7513 65.8137C52.3638 65.6534 51.9485 65.571 51.5291 65.5713Z" fill="#263238"/>
<path d="M33.1924 66.1223C34.3604 66.1223 35.3073 65.1755 35.3073 64.0074C35.3073 62.8394 34.3604 61.8926 33.1924 61.8926C32.0244 61.8926 31.0775 62.8394 31.0775 64.0074C31.0775 65.1755 32.0244 66.1223 33.1924 66.1223Z" fill="#263238"/>
<path d="M74.3796 66.1223C75.5476 66.1223 76.4945 65.1755 76.4945 64.0074C76.4945 62.8394 75.5476 61.8926 74.3796 61.8926C73.2116 61.8926 72.2647 62.8394 72.2647 64.0074C72.2647 65.1755 73.2116 66.1223 74.3796 66.1223Z" fill="#263238"/>
<path d="M33.1903 62.5359C33.3249 62.5364 33.4588 62.5552 33.5883 62.5918H33.6119H33.6356L52.1746 66.288C52.7748 66.4438 53.2976 66.8133 53.6449 67.3271C53.9921 67.8409 54.1401 68.4638 54.0609 69.0788C53.9817 69.6939 53.6808 70.259 53.2147 70.6681C52.7486 71.0771 52.1493 71.3021 51.5291 71.3008C51.3217 71.3005 51.1152 71.2753 50.9138 71.2255L32.8181 65.4167H32.8073H32.7944C32.4534 65.3199 32.1588 65.1033 31.9647 64.8067C31.7707 64.51 31.6902 64.1534 31.7381 63.8022C31.786 63.4509 31.959 63.1288 32.2254 62.895C32.4918 62.6612 32.8337 62.5314 33.1881 62.5294M33.1881 61.884C32.6709 61.8769 32.169 62.0595 31.7771 62.3971C31.3853 62.7348 31.1306 63.2043 31.0613 63.7169C30.9919 64.2295 31.1126 64.7498 31.4006 65.1794C31.6886 65.6091 32.1239 65.9185 32.6244 66.0492L50.7396 71.8581C50.9984 71.9237 51.2643 71.9569 51.5313 71.957C52.3089 71.9562 53.0595 71.6716 53.6422 71.1566C54.2248 70.6416 54.5995 69.9317 54.6959 69.16C54.7923 68.3884 54.6038 67.6081 54.1657 66.9656C53.7276 66.3232 53.0701 65.8626 52.3166 65.6705L33.7604 61.9614C33.5749 61.9086 33.3831 61.8819 33.1903 61.8818L33.1881 61.884Z" fill="#263238"/>
<path d="M51.5291 69.4095C51.4983 69.4116 51.4674 69.4116 51.4366 69.4095C51.3264 69.3938 51.2222 69.3499 51.134 69.2821C51.0458 69.2142 50.9766 69.1247 50.9332 69.0222L39.4466 41.8044C39.4137 41.7262 39.3965 41.6424 39.396 41.5576C39.3955 41.4729 39.4117 41.3888 39.4436 41.3103C39.4756 41.2318 39.5227 41.1604 39.5823 41.1C39.6419 41.0397 39.7128 40.9918 39.7909 40.9588C39.869 40.9259 39.9528 40.9087 40.0376 40.9082C40.1224 40.9077 40.2064 40.9239 40.2849 40.9559C40.3634 40.9878 40.4349 41.0349 40.4952 41.0945C40.5555 41.1541 40.6035 41.225 40.6364 41.3031L51.7056 67.5248L69.3474 45.9373C69.4575 45.8105 69.6127 45.7316 69.78 45.7174C69.9474 45.7032 70.1136 45.7548 70.2436 45.8612C70.3735 45.9676 70.4568 46.1205 70.4759 46.2873C70.4949 46.4542 70.4482 46.6219 70.3456 46.7548L52.0347 69.1728C51.9735 69.2476 51.8963 69.3077 51.8088 69.3487C51.7213 69.3896 51.6257 69.4104 51.5291 69.4095Z" fill="#263238"/>
<path d="M33.1924 64.4376C33.1197 64.4378 33.0481 64.4195 32.9844 64.3845C32.9206 64.3495 32.8668 64.2989 32.8279 64.2374C32.789 64.176 32.7663 64.1057 32.762 64.0331C32.7576 63.9605 32.7717 63.888 32.803 63.8223L41.4367 45.5953C41.4589 45.5413 41.4919 45.4924 41.5336 45.4515C41.5754 45.4106 41.625 45.3787 41.6794 45.3576C41.7339 45.3365 41.7921 45.3268 41.8505 45.3289C41.9088 45.331 41.9661 45.345 42.0189 45.37C42.0717 45.395 42.1188 45.4305 42.1575 45.4743C42.1961 45.5181 42.2254 45.5693 42.2436 45.6248C42.2618 45.6803 42.2685 45.7389 42.2633 45.7971C42.2581 45.8553 42.2411 45.9118 42.2134 45.9632L33.5818 64.1902C33.5471 64.2642 33.4921 64.3267 33.4231 64.3705C33.3541 64.4143 33.2741 64.4376 33.1924 64.4376Z" fill="#263238"/>
<path d="M74.3796 64.6528C74.236 64.653 74.0965 64.6052 73.9831 64.5172C73.8697 64.4291 73.7889 64.3057 73.7535 64.1666L68.5729 44.0076L41.8821 46.4215C41.7109 46.4369 41.5406 46.3837 41.4087 46.2736C41.2768 46.1634 41.194 46.0054 41.1786 45.8342C41.1632 45.663 41.2164 45.4927 41.3265 45.3608C41.4367 45.2288 41.5947 45.1461 41.7659 45.1307L69.0032 42.6673C69.1559 42.6532 69.3086 42.694 69.4339 42.7823C69.5593 42.8706 69.6491 43.0007 69.6873 43.1492L75.0057 63.8396C75.0481 64.0053 75.023 64.1812 74.9359 64.3284C74.8487 64.4757 74.7067 64.5823 74.541 64.6249C74.4887 64.6416 74.4344 64.651 74.3796 64.6528Z" fill="#263238"/>
<path d="M69.0612 43.9601C68.9049 43.9617 68.7534 43.9065 68.6347 43.8049C68.5159 43.7032 68.4382 43.5619 68.4158 43.4072L67.6477 38.0802C67.6229 37.9107 67.6664 37.7384 67.7687 37.601C67.871 37.4636 68.0236 37.3725 68.1931 37.3476C68.3626 37.3228 68.535 37.3663 68.6723 37.4686C68.8097 37.5709 68.9009 37.7236 68.9257 37.893L69.7066 43.2221C69.7188 43.3061 69.7143 43.3916 69.6935 43.4737C69.6726 43.5559 69.6357 43.6332 69.585 43.7011C69.5342 43.7691 69.4706 43.8263 69.3977 43.8696C69.3248 43.913 69.2441 43.9415 69.1602 43.9536C69.1274 43.9582 69.0943 43.9604 69.0612 43.9601Z" fill="#263238"/>
<path d="M66.0621 40.1629C65.9242 40.1622 65.7904 40.1163 65.6811 40.0323C65.5718 39.9483 65.4931 39.8308 65.4569 39.6977C65.4208 39.5647 65.4293 39.4235 65.4811 39.2957C65.5329 39.168 65.6251 39.0607 65.7437 38.9904L69.7798 36.6238C69.9239 36.5382 70.096 36.5133 70.2584 36.5547C70.4208 36.5961 70.5602 36.7002 70.6457 36.8443C70.7313 36.9884 70.7562 37.1606 70.7148 37.323C70.6735 37.4854 70.5693 37.6247 70.4252 37.7103L66.3913 40.0768C66.2912 40.1345 66.1775 40.1642 66.0621 40.1629Z" fill="#FFD613"/>
<path d="M35.5697 41.4514C36.6949 42.8843 41.4561 41.2836 42.8997 40.806C44.3433 40.3284 47.6329 41.2836 47.1402 40.1605C46.6475 39.0375 39.4208 39.4785 38.4161 39.0848C36.2883 38.2479 33.6421 38.988 35.5697 41.4514Z" fill="#FFD613"/>
<path d="M49.6273 76.0532C49.561 76.0532 49.4956 76.038 49.4362 76.0086C49.3768 75.9793 49.325 75.9366 49.2848 75.8839C49.2446 75.8312 49.2172 75.77 49.2045 75.7049C49.1919 75.6399 49.1945 75.5728 49.212 75.5089L53.0158 61.7892C53.0502 61.6839 53.1239 61.596 53.2216 61.5437C53.3192 61.4914 53.4332 61.4787 53.54 61.5084C53.6467 61.538 53.7378 61.6077 53.7945 61.7029C53.8511 61.7981 53.8689 61.9114 53.8441 62.0194L50.0403 75.7305C50.0166 75.8223 49.9633 75.9036 49.8886 75.962C49.8139 76.0204 49.7221 76.0524 49.6273 76.0532Z" fill="#263238"/>
<path d="M54.4981 62.3357H50.6966C50.5824 62.3357 50.473 62.2903 50.3923 62.2096C50.3116 62.129 50.2663 62.0195 50.2663 61.9054C50.2663 61.7913 50.3116 61.6818 50.3923 61.6011C50.473 61.5204 50.5824 61.4751 50.6966 61.4751H54.4981C54.6123 61.4751 54.7217 61.5204 54.8024 61.6011C54.8831 61.6818 54.9284 61.7913 54.9284 61.9054C54.9284 62.0195 54.8831 62.129 54.8024 62.2096C54.7217 62.2903 54.6123 62.3357 54.4981 62.3357Z" fill="#263238"/>
<path d="M52.3596 76.053H48.5602C48.4461 76.053 48.3366 76.0076 48.2559 75.9269C48.1752 75.8462 48.1299 75.7368 48.1299 75.6227C48.1299 75.5086 48.1752 75.3991 48.2559 75.3184C48.3366 75.2377 48.4461 75.1924 48.5602 75.1924H52.3596C52.4737 75.1924 52.5832 75.2377 52.6639 75.3184C52.7446 75.3991 52.7899 75.5086 52.7899 75.6227C52.7899 75.7368 52.7446 75.8462 52.6639 75.9269C52.5832 76.0076 52.4737 76.053 52.3596 76.053Z" fill="#263238"/>
<path d="M48.0653 73.7428L49.9048 73.5943L49.9155 69.3237L48.0782 69.47L48.0653 73.7428Z" fill="#FF8B7B"/>
<path d="M50.206 73.1768L47.962 73.2004C47.9257 73.201 47.8906 73.2139 47.8625 73.237C47.8344 73.26 47.8149 73.2918 47.8071 73.3274L47.4608 74.9689C47.4527 75.0089 47.4537 75.0502 47.4638 75.0898C47.4738 75.1293 47.4927 75.1661 47.519 75.1973C47.5452 75.2285 47.5782 75.2534 47.6155 75.2701C47.6527 75.2868 47.6932 75.2949 47.734 75.2938C48.4547 75.2723 48.9818 75.2249 49.8854 75.2163C50.4448 75.2163 52.1315 75.2507 52.8975 75.2421C53.6634 75.2335 53.758 74.4698 53.4461 74.4031C52.024 74.1083 50.9504 73.6909 50.4921 73.2886C50.4129 73.2189 50.3116 73.1793 50.206 73.1768Z" fill="#263238"/>
<path d="M56.0343 24.7563C56.74 26.0085 57.48 27.2907 58.2309 28.53C58.9532 29.7591 59.7433 30.9471 60.5975 32.0885C61.3311 33.0631 62.4649 33.8655 63.6826 34.5884C64.2894 34.9499 64.924 35.2855 65.5716 35.6082C65.8965 35.7674 66.217 35.9309 66.5505 36.0815L67.5359 36.5118L67.1508 37.8393C65.631 37.5383 64.1475 37.0767 62.7253 36.4623C61.9923 36.1459 61.2846 35.7741 60.6082 35.35C60.2577 35.1314 59.9194 34.8936 59.5949 34.6379C59.4292 34.5045 59.2679 34.3561 59.1087 34.2076L58.872 33.9667C58.7946 33.8871 58.7365 33.8161 58.6569 33.7386C58.1316 33.1554 57.6381 32.5442 57.1788 31.9077C56.7163 31.2881 56.2881 30.6556 55.8729 30.0166C55.0382 28.7258 54.2787 27.4349 53.5601 26.0859L56.0343 24.7563Z" fill="#FF8B7B"/>
<path d="M53.3751 27.1791C53.5221 28.6123 54.1168 29.9627 55.0747 31.0388L58.6805 28.3086C58.6805 28.3086 57.891 25.6602 56.4517 24.2209C53.7559 21.5488 53.1793 25.0836 53.3751 27.1791Z" fill="#FFD613"/>
<path opacity="0.2" d="M54.4314 26.8022L53.3557 27.0604C53.3557 27.1013 53.3557 27.14 53.3557 27.1787C53.4525 28.1198 53.7457 29.0301 54.2163 29.8508C54.6832 29.0204 54.6466 27.5079 54.4314 26.8022Z" fill="black"/>
<path opacity="0.2" d="M48.0782 69.472L49.9155 69.3257L49.9091 71.5266L48.0696 71.6729L48.0782 69.472Z" fill="black"/>
<path d="M45.5008 22.0479C44.5692 28.6915 41.0237 34.3541 40.7676 35.744C42.1747 36.0645 47.4823 37.25 50.376 37.8954C53.8355 32.3124 55.5394 23.5539 55.5394 23.5539C55.5394 23.5539 54.9908 23.2183 54.2163 22.8375C53.9732 22.7191 53.7086 22.5965 53.431 22.476C53.2761 22.4086 53.1191 22.3441 52.9599 22.2824C51.6416 21.819 50.2975 21.4326 48.9345 21.1249C48.6785 21.0647 48.416 21.0087 48.1578 20.9593C47.8997 20.9098 47.6845 20.8732 47.4629 20.8388L47.1531 20.7914C46.9619 20.7642 46.7673 20.7752 46.5804 20.8238C46.3935 20.8723 46.2181 20.9575 46.0644 21.0744C45.9107 21.1913 45.7818 21.3375 45.685 21.5046C45.5883 21.6717 45.5256 21.8564 45.5008 22.0479Z" fill="#FFD613"/>
<path d="M46.3399 24.7175C46.1247 25.5523 44.9544 27.0647 44.0163 27.9597C44.3756 26.9335 44.7112 25.8427 44.9866 24.7046L46.3399 24.7175Z" fill="#FFD613"/>
<path opacity="0.2" d="M46.3399 24.7175C46.1247 25.5523 44.9544 27.0647 44.0163 27.9597C44.3756 26.9335 44.7112 25.8427 44.9866 24.7046L46.3399 24.7175Z" fill="black"/>
<path d="M66.9636 36.4669L69.3302 36.4131L69.1537 37.8868C69.1537 37.8868 67.7876 38.5473 66.7291 37.6286L66.9636 36.4669Z" fill="#FF8B7B"/>
<path d="M70.3155 36.8434L69.6765 38.117L69.1581 37.8868L69.3345 36.4131L70.3155 36.8434Z" fill="#FF8B7B"/>
<path d="M48.6376 15.7052C48.3278 17.1488 49.4164 18.5021 51.3699 18.2869C53.3234 18.0718 49.1217 13.4376 48.6376 15.7052Z" fill="#263238"/>
<path d="M50.6427 16.7144C50.5244 18.0827 50.0941 20.5267 48.9409 21.1313C49.4422 22.0327 50.1307 23.1041 51.6518 23.6011C53.1728 24.0981 53.2094 22.9557 52.9641 22.2887C51.6195 21.5271 51.9637 20.4686 52.5059 19.5349L50.6427 16.7144Z" fill="#FF8B7B"/>
<path opacity="0.2" d="M51.4022 17.8569L52.5037 19.5243C52.3742 19.7401 52.2641 19.9668 52.1746 20.202C51.872 20.0536 51.6108 19.8328 51.4142 19.5592C51.2175 19.2856 51.0914 18.9676 51.0472 18.6336C51.0192 18.227 51.2473 17.8677 51.4022 17.8569Z" fill="black"/>
<path d="M54.4917 13.2935C55.434 13.3064 55.2533 15.176 54.7068 15.6343C54.1604 16.0925 53.4633 13.2806 54.4917 13.2935Z" fill="#263238"/>
<path d="M49.9371 14.9438C49.9672 16.7725 49.8941 17.8418 50.7719 18.8164C52.095 20.2837 54.382 19.5479 54.8962 17.7406C55.3587 16.1206 55.2296 13.4055 53.4784 12.6009C53.0922 12.4211 52.6665 12.3434 52.2418 12.3751C51.8171 12.4067 51.4076 12.5467 51.0524 12.7817C50.6972 13.0167 50.4082 13.3389 50.2129 13.7174C50.0177 14.0959 49.9227 14.5181 49.9371 14.9438Z" fill="#FF8B7B"/>
<path d="M49.8231 16.297C50.7568 15.544 51.3119 14.6081 51.0085 13.84C51.9745 14.1993 55.4405 14.2897 55.1242 12.8181C54.808 11.3465 52.4952 11.0625 52.4952 11.0625C52.4952 11.0625 53.0201 11.4089 52.9943 11.6778C51.8045 11.2475 50.4126 11.2239 49.9263 11.3314C50.2749 11.5702 50.3093 11.7338 50.3093 11.7338C50.3093 11.7338 48.1041 11.8693 48.5881 12.5943C47.7254 12.5621 47.1166 15.658 49.8231 16.297Z" fill="#263238"/>
<path d="M49.0937 16.7808C49.3214 17.1801 49.6983 17.4726 50.1415 17.5941C50.731 17.7511 51.0171 17.224 50.8471 16.6711C50.6944 16.1741 50.2017 15.4943 49.6165 15.5825C49.0313 15.6707 48.8205 16.2968 49.0937 16.7808Z" fill="#FF8B7B"/>
<path d="M46.9595 37.1252C46.9595 37.1252 51.5485 48.2761 51.2043 53.6611C50.8321 59.5582 50.6987 70.6145 50.6987 70.6145L47.5103 70.8662C47.5103 70.8662 46.2302 60.3026 46.5378 54.5518C46.8906 47.9985 38.1063 40.4685 40.7719 35.7461C43.7904 36.3765 46.9595 37.1252 46.9595 37.1252Z" fill="#FFD613"/>
<path opacity="0.3" d="M46.9595 37.1252C46.9595 37.1252 51.5485 48.2761 51.2043 53.6611C50.8321 59.5582 50.6987 70.6145 50.6987 70.6145L47.5103 70.8662C47.5103 70.8662 46.2302 60.3026 46.5378 54.5518C46.8906 47.9985 38.1063 40.4685 40.7719 35.7461C43.7904 36.3765 46.9595 37.1252 46.9595 37.1252Z" fill="white"/>
<path d="M50.9719 70.9649L47.0197 71.3543L46.9035 70.1753L51.1419 69.6826L50.9719 70.9649Z" fill="#FFD613"/>
<path d="M52.678 15.5761C52.678 15.7245 52.7447 15.8471 52.8415 15.8514C52.9383 15.8558 53.0222 15.7396 53.0287 15.5911C53.0351 15.4427 52.962 15.3179 52.8652 15.3136C52.7684 15.3093 52.6845 15.4276 52.678 15.5761Z" fill="#263238"/>
<path d="M54.354 15.6496C54.354 15.798 54.4207 15.9207 54.5175 15.925C54.6143 15.9293 54.7004 15.8131 54.7068 15.6647C54.7133 15.5162 54.6401 15.3936 54.5411 15.3893C54.4422 15.385 54.3604 15.5012 54.354 15.6496Z" fill="#263238"/>
<path d="M53.8183 15.7051C53.973 16.1664 54.1902 16.6043 54.4637 17.0067C54.1905 17.2391 53.7495 17.1078 53.7495 17.1078L53.8183 15.7051Z" fill="#FF5652"/>
<path d="M53.1126 17.4716C52.9484 17.4442 52.7915 17.3837 52.6513 17.2938C52.5112 17.204 52.3907 17.0866 52.2972 16.9488C52.2942 16.9439 52.2923 16.9384 52.2914 16.9327C52.2906 16.927 52.2909 16.9212 52.2923 16.9156C52.2937 16.91 52.2961 16.9047 52.2996 16.9001C52.303 16.8955 52.3073 16.8915 52.3123 16.8886C52.3172 16.8856 52.3227 16.8837 52.3284 16.8828C52.3341 16.882 52.3399 16.8822 52.3455 16.8836C52.3511 16.885 52.3564 16.8875 52.361 16.891C52.3656 16.8944 52.3695 16.8987 52.3725 16.9036C52.4785 17.055 52.6187 17.1792 52.7817 17.2663C52.9446 17.3534 53.1258 17.4009 53.3105 17.4049C53.3162 17.4052 53.3217 17.4066 53.3269 17.409C53.332 17.4114 53.3366 17.4148 53.3404 17.419C53.3441 17.4232 53.3471 17.4281 53.349 17.4335C53.3509 17.4388 53.3517 17.4445 53.3514 17.4501C53.3509 17.4617 53.3459 17.4727 53.3374 17.4807C53.329 17.4887 53.3179 17.4931 53.3062 17.4931C53.2413 17.4895 53.1767 17.4823 53.1126 17.4716Z" fill="#263238"/>
<path d="M52.1853 15.0103C52.1706 15.0078 52.1566 15.0019 52.1445 14.9931C52.1356 14.9859 52.1283 14.9769 52.1229 14.9668C52.1175 14.9566 52.1143 14.9455 52.1133 14.9341C52.1123 14.9227 52.1136 14.9111 52.1171 14.9002C52.1206 14.8893 52.1262 14.8792 52.1337 14.8705C52.2191 14.7613 52.3296 14.6743 52.4559 14.617C52.5821 14.5597 52.7203 14.5337 52.8587 14.5413C52.8701 14.5427 52.881 14.5462 52.891 14.5518C52.9009 14.5574 52.9097 14.565 52.9167 14.574C52.9237 14.583 52.9288 14.5933 52.9318 14.6043C52.9348 14.6153 52.9355 14.6268 52.934 14.6381C52.933 14.6495 52.9297 14.6605 52.9243 14.6705C52.919 14.6805 52.9117 14.6894 52.9029 14.6966C52.8941 14.7038 52.8839 14.7092 52.873 14.7125C52.8621 14.7157 52.8507 14.7168 52.8394 14.7156C52.7298 14.7106 52.6205 14.732 52.5209 14.7781C52.4213 14.8241 52.3343 14.8935 52.2671 14.9802C52.2577 14.9924 52.245 15.0018 52.2306 15.0071C52.2161 15.0124 52.2004 15.0135 52.1853 15.0103Z" fill="#263238"/>
<path d="M55.1027 15.105C55.0887 15.102 55.0755 15.0957 55.0643 15.0868C55.0531 15.0778 55.0442 15.0664 55.0381 15.0533C54.9978 14.9516 54.9339 14.8608 54.8516 14.7886C54.7693 14.7165 54.671 14.6649 54.5648 14.6381C54.5421 14.6339 54.5219 14.621 54.5087 14.6021C54.4954 14.5832 54.4901 14.5598 54.4938 14.537C54.4957 14.5258 54.4997 14.5151 54.5056 14.5055C54.5116 14.4959 54.5194 14.4876 54.5286 14.481C54.5378 14.4744 54.5482 14.4697 54.5592 14.4671C54.5702 14.4645 54.5816 14.4642 54.5928 14.466C54.7279 14.4973 54.8534 14.5608 54.9587 14.6511C55.0639 14.7414 55.1458 14.8558 55.1973 14.9845C55.202 14.9949 55.2044 15.0062 55.2047 15.0176C55.2049 15.029 55.2028 15.0404 55.1986 15.051C55.1944 15.0616 55.1882 15.0712 55.1802 15.0794C55.1722 15.0876 55.1627 15.0941 55.1522 15.0985C55.1365 15.105 55.1195 15.1072 55.1027 15.105Z" fill="#263238"/>
<path d="M50.8192 73.4932C50.6568 73.4907 50.4952 73.4705 50.3372 73.4329C50.3288 73.4304 50.3211 73.4258 50.315 73.4193C50.309 73.4129 50.3048 73.405 50.3028 73.3963C50.3018 73.3881 50.303 73.3797 50.3064 73.3721C50.3099 73.3645 50.3153 73.358 50.3222 73.3533C50.3889 73.3103 50.9805 72.9402 51.1828 73.0414C51.2054 73.0529 51.2244 73.0704 51.2377 73.092C51.251 73.1137 51.258 73.1386 51.2581 73.164C51.2635 73.207 51.2583 73.2506 51.2429 73.2912C51.2276 73.3317 51.2025 73.3678 51.1699 73.3963C51.0671 73.4669 50.9436 73.501 50.8192 73.4932ZM50.462 73.3705C50.7761 73.4286 51.0171 73.4157 51.1075 73.3296C51.1291 73.3097 51.1457 73.2848 51.1558 73.2571C51.1659 73.2294 51.1693 73.1997 51.1656 73.1704C51.1661 73.1601 51.1638 73.1498 51.1589 73.1407C51.1539 73.1315 51.1466 73.124 51.1376 73.1188C51.0386 73.0672 50.703 73.2264 50.462 73.3641V73.3705Z" fill="#FFD613"/>
<path d="M50.3437 73.4327H50.3179C50.3115 73.428 50.3064 73.4219 50.303 73.4147C50.2996 73.4076 50.2981 73.3997 50.2985 73.3918C50.2985 73.3703 50.3394 72.8389 50.5503 72.6625C50.5751 72.64 50.6045 72.6232 50.6364 72.6132C50.6684 72.6032 50.7021 72.6002 50.7353 72.6044C50.768 72.6037 50.7999 72.6146 50.8255 72.635C50.851 72.6554 50.8686 72.6842 50.8751 72.7163C50.9182 72.9314 50.5524 73.3294 50.3631 73.4348L50.3437 73.4327ZM50.7073 72.6818C50.6701 72.6841 50.6346 72.6985 50.6062 72.7227C50.4777 72.8895 50.4027 73.0913 50.391 73.3015C50.5782 73.1552 50.8213 72.8475 50.7869 72.727C50.7869 72.7163 50.7869 72.6904 50.7224 72.684H50.703L50.7073 72.6818Z" fill="#FFD613"/>
<path d="M47.762 23.7991C47.5727 23.8894 47.4178 23.9604 47.2456 24.0357C47.0735 24.111 46.9122 24.1777 46.7444 24.2509C46.4066 24.3864 46.071 24.5155 45.731 24.6403C45.0533 24.8899 44.3627 25.1071 43.6592 25.2986C42.2273 25.7046 40.7513 25.9351 39.2638 25.9849C38.8754 25.993 38.4869 25.9808 38.0999 25.9484C37.9019 25.929 37.7062 25.9118 37.5061 25.8774L37.3576 25.8558H37.2823L37.2221 25.8451L37.1446 25.8279C36.9088 25.7759 36.6848 25.6804 36.4841 25.546C36.2634 25.3978 36.0777 25.2033 35.9398 24.9759C35.8279 24.7905 35.7479 24.5876 35.7032 24.3757C35.643 24.0812 35.6314 23.7789 35.6687 23.4807C35.7255 23.0509 35.8346 22.6297 35.9936 22.2264C36.2696 21.5296 36.6081 20.8592 37.0048 20.2234C37.1898 19.9136 37.3834 19.6102 37.59 19.3176C37.7965 19.025 37.9966 18.7367 38.2354 18.4463L39.423 19.152L39.0551 20.0921L38.7066 21.0345C38.4847 21.6359 38.2993 22.2502 38.1515 22.874C38.092 23.1265 38.0595 23.3847 38.0547 23.6442C38.0547 23.7367 38.0784 23.8077 38.0848 23.7776C38.0832 23.7339 38.0699 23.6915 38.0461 23.6549C37.9996 23.575 37.9365 23.5061 37.8611 23.4527C37.8049 23.4131 37.7433 23.3819 37.6782 23.3602H37.6631H37.7169H37.8266C37.9686 23.3752 38.1171 23.3774 38.2569 23.3838C38.5538 23.3838 38.855 23.3838 39.1627 23.3559C39.7892 23.3097 40.4118 23.2198 41.0258 23.0869C41.654 22.96 42.2823 22.7965 42.9083 22.6093C43.5344 22.4221 44.1583 22.2135 44.7779 21.9919C45.0877 21.88 45.3954 21.7638 45.7009 21.6412L46.1549 21.4562L46.5851 21.2733L47.762 23.7991Z" fill="#FF8B7B"/>
<path d="M47.7985 24.4163C46.598 25.7072 42.9578 26.5807 42.9578 26.5807L41.5228 22.4241C41.5228 22.4241 43.9044 20.9977 46.1699 20.7976C49.6423 20.4899 49.0378 23.0846 47.7985 24.4163Z" fill="#FFD613"/>
<path d="M39.3907 19.2593L40.3137 17.635L37.9708 17.4263C37.9708 17.4263 37.4932 18.9839 38.2892 19.3303L39.3907 19.2593Z" fill="#FF8B7B"/>
<path d="M39.9071 15.8174L38.1515 16.0347L37.9708 17.4331L40.3137 17.6353L39.9071 15.8174Z" fill="#FF8B7B"/>
</svg>
