<svg width="128" height="128" viewBox="0 0 128 128" fill="none" xmlns="http://www.w3.org/2000/svg">
<mask id="mask0_321_3531" style="mask-type:alpha" maskUnits="userSpaceOnUse" x="0" y="0" width="128" height="128">
<rect width="128" height="128" fill="#D9D9D9"/>
</mask>
<g mask="url(#mask0_321_3531)">
<path d="M56.4306 75.4467L44.0413 63.056C43.3026 62.3182 42.3742 61.9404 41.256 61.9226C40.1386 61.9058 39.1933 62.2835 38.42 63.056C37.6475 63.8293 37.2613 64.7662 37.2613 65.8666C37.2613 66.9671 37.6475 67.904 38.42 68.6773L53.056 83.3133C54.0204 84.2769 55.1453 84.7587 56.4306 84.7587C57.716 84.7587 58.8409 84.2769 59.8053 83.3133L89.4773 53.6413C90.2151 52.9026 90.5929 51.9742 90.6107 50.856C90.6275 49.7386 90.2498 48.7933 89.4773 48.02C88.704 47.2475 87.7671 46.8613 86.6666 46.8613C85.5662 46.8613 84.6293 47.2475 83.856 48.02L56.4306 75.4467ZM64.0093 114.667C57.0013 114.667 50.4142 113.337 44.248 110.677C38.0818 108.018 32.7182 104.408 28.1573 99.8493C23.5964 95.2902 19.9853 89.9289 17.324 83.7653C14.6635 77.6018 13.3333 71.0164 13.3333 64.0093C13.3333 57.0013 14.6631 50.4142 17.3226 44.248C19.9822 38.0818 23.5915 32.7182 28.1506 28.1573C32.7098 23.5964 38.0711 19.9853 44.2346 17.324C50.3982 14.6635 56.9835 13.3333 63.9906 13.3333C70.9986 13.3333 77.5858 14.6631 83.752 17.3226C89.9182 19.9822 95.2818 23.5915 99.8427 28.1506C104.404 32.7098 108.015 38.0711 110.676 44.2346C113.336 50.3982 114.667 56.9835 114.667 63.9906C114.667 70.9986 113.337 77.5858 110.677 83.752C108.018 89.9182 104.408 95.2818 99.8493 99.8427C95.2902 104.404 89.9289 108.015 83.7653 110.676C77.6018 113.336 71.0164 114.667 64.0093 114.667ZM64 106.667C75.9111 106.667 86 102.533 94.2666 94.2666C102.533 86 106.667 75.9111 106.667 64C106.667 52.0889 102.533 42 94.2666 33.7333C86 25.4666 75.9111 21.3333 64 21.3333C52.0889 21.3333 42 25.4666 33.7333 33.7333C25.4666 42 21.3333 52.0889 21.3333 64C21.3333 75.9111 25.4666 86 33.7333 94.2666C42 102.533 52.0889 106.667 64 106.667Z" fill="#00920F"/>
</g>
</svg>
