<svg width="28" height="28" viewBox="0 0 28 28" fill="none" xmlns="http://www.w3.org/2000/svg">
<mask id="mask0_239_1298" style="mask-type:alpha" maskUnits="userSpaceOnUse" x="0" y="0" width="28" height="28">
<rect width="28" height="28" fill="#D9D9D9"/>
</mask>
<g mask="url(#mask0_239_1298)">
<path d="M8.16665 24.4999H4.66665C4.02498 24.4999 3.47567 24.2714 3.01873 23.8145C2.56179 23.3576 2.33331 22.8083 2.33331 22.1666V11.6666C2.33331 11.2971 2.41595 10.9471 2.58123 10.6166C2.74651 10.286 2.97498 10.0138 3.26665 9.79992L10.2666 4.54992C10.4805 4.39436 10.7041 4.2777 10.9375 4.19992C11.1708 4.12214 11.4139 4.08325 11.6666 4.08325C11.9194 4.08325 12.1625 4.12214 12.3958 4.19992C12.6291 4.2777 12.8528 4.39436 13.0666 4.54992L16.9166 7.46659C17.1111 7.62214 17.184 7.81659 17.1354 8.04992C17.0868 8.28325 16.9361 8.43881 16.6833 8.51658C15.925 8.78881 15.2541 9.202 14.6708 9.75617C14.0875 10.3103 13.6305 10.9569 13.3 11.6958C12.9694 12.4346 12.809 13.2076 12.8187 14.0145C12.8285 14.8214 12.9986 15.5944 13.3291 16.3333C13.4264 16.586 13.4312 16.8339 13.3437 17.077C13.2562 17.3201 13.0958 17.4902 12.8625 17.5874C12.0458 17.9569 11.4236 18.3166 10.9958 18.6666C10.568 19.0166 10.218 19.4444 9.94581 19.9499C9.73192 20.2999 9.57637 20.6742 9.47915 21.0728C9.38192 21.4714 9.33331 21.8749 9.33331 22.2833V23.3333C9.33331 23.6638 9.22151 23.9409 8.9979 24.1645C8.77429 24.3881 8.4972 24.4999 8.16665 24.4999ZM18.6666 18.6666C19.7166 18.6666 20.7326 18.8027 21.7146 19.0749C22.6965 19.3471 23.6347 19.7458 24.5291 20.2708C24.8791 20.4846 25.1562 20.7714 25.3604 21.1312C25.5646 21.4909 25.6666 21.8749 25.6666 22.2833C25.6666 22.9055 25.4528 23.4305 25.025 23.8583C24.5972 24.286 24.0722 24.4999 23.45 24.4999H13.8833C13.2611 24.4999 12.7361 24.286 12.3083 23.8583C11.8805 23.4305 11.6666 22.9055 11.6666 22.2833C11.6666 21.8749 11.7687 21.4909 11.9729 21.1312C12.1771 20.7714 12.4541 20.4846 12.8041 20.2708C13.6986 19.7458 14.6368 19.3471 15.6187 19.0749C16.6007 18.8027 17.6166 18.6666 18.6666 18.6666ZM18.6666 17.4999C17.6944 17.4999 16.868 17.1596 16.1875 16.4791C15.5069 15.7985 15.1666 14.9721 15.1666 13.9999C15.1666 13.0277 15.5069 12.2013 16.1875 11.5208C16.868 10.8402 17.6944 10.4999 18.6666 10.4999C19.6389 10.4999 20.4653 10.8402 21.1458 11.5208C21.8264 12.2013 22.1666 13.0277 22.1666 13.9999C22.1666 14.9721 21.8264 15.7985 21.1458 16.4791C20.4653 17.1596 19.6389 17.4999 18.6666 17.4999Z" fill="black"/>
</g>
</svg>
