<svg width="24" height="24" viewBox="0 0 24 24" fill="none" xmlns="http://www.w3.org/2000/svg">
<mask id="mask0_239_412" style="mask-type:alpha" maskUnits="userSpaceOnUse" x="0" y="0" width="24" height="24">
<rect width="24" height="24" fill="#D9D9D9"/>
</mask>
<g mask="url(#mask0_239_412)">
<path d="M5.1905 21.6923C3.89167 21.6923 2.78525 21.2346 1.87125 20.3193C0.957083 19.4039 0.5 18.2968 0.5 16.998C0.5 15.6993 0.957667 14.5929 1.873 13.6788C2.7885 12.7648 3.89558 12.3078 5.19425 12.3078C6.49292 12.3078 7.59933 12.7654 8.5135 13.6808C9.4275 14.5961 9.8845 15.7032 9.8845 17.002C9.8845 18.3007 9.42683 19.4071 8.5115 20.3213C7.59617 21.2353 6.48917 21.6923 5.1905 21.6923ZM5.19 20.1923C6.07617 20.1923 6.83017 19.8822 7.452 19.262C8.07383 18.6417 8.38475 17.8884 8.38475 17.0023C8.38475 16.1161 8.07458 15.3621 7.45425 14.7403C6.83392 14.1186 6.08067 13.8078 5.1945 13.8078C4.3085 13.8078 3.55458 14.1178 2.93275 14.738C2.31092 15.3583 2 16.1116 2 16.9978C2 17.8839 2.31017 18.6379 2.9305 19.2598C3.55067 19.8814 4.30383 20.1923 5.19 20.1923ZM13.2 7.75376L10.5115 10.4423L12.248 12.2635C12.4122 12.4275 12.5368 12.6166 12.622 12.8308C12.7073 13.0449 12.75 13.2693 12.75 13.5038V18C12.75 18.2125 12.6781 18.3906 12.5343 18.5343C12.3904 18.6781 12.2122 18.75 11.9998 18.75C11.7871 18.75 11.609 18.6781 11.4655 18.5343C11.3218 18.3906 11.25 18.2125 11.25 18V13.7788L7.9155 11.0653C7.741 10.9076 7.60858 10.7232 7.51825 10.512C7.42792 10.3008 7.38275 10.0788 7.38275 9.84576C7.38275 9.61276 7.4305 9.39301 7.526 9.18651C7.6215 8.98018 7.75133 8.79493 7.9155 8.63076L10.773 5.77301C10.9475 5.59868 11.1493 5.46634 11.3785 5.37601C11.6078 5.28568 11.8482 5.24051 12.0997 5.24051C12.3512 5.24051 12.5918 5.28568 12.8212 5.37601C13.0506 5.46634 13.2525 5.59868 13.427 5.77301L15.327 7.67301C15.7305 8.07451 16.1736 8.40176 16.6562 8.65476C17.1389 8.90793 17.6522 9.07818 18.1962 9.16551C18.4089 9.20268 18.5768 9.30393 18.7 9.46926C18.823 9.63459 18.8659 9.82368 18.8288 10.0365C18.7916 10.2493 18.6903 10.4173 18.525 10.5403C18.3597 10.6634 18.1706 10.7064 17.9578 10.6693C17.2269 10.5488 16.542 10.3234 15.903 9.99326C15.2638 9.66309 14.6872 9.24101 14.173 8.72701L13.2 7.75376ZM15.3077 5.44226C14.8217 5.44226 14.4086 5.27209 14.0682 4.93176C13.7279 4.59143 13.5577 4.17826 13.5577 3.69226C13.5577 3.20643 13.7279 2.79334 14.0682 2.45301C14.4086 2.11251 14.8217 1.94226 15.3077 1.94226C15.7936 1.94226 16.2067 2.11251 16.547 2.45301C16.8875 2.79334 17.0578 3.20643 17.0578 3.69226C17.0578 4.17826 16.8875 4.59143 16.547 4.93176C16.2067 5.27209 15.7936 5.44226 15.3077 5.44226ZM18.8057 21.6923C17.5071 21.6923 16.4007 21.2346 15.4865 20.3193C14.5725 19.4039 14.1155 18.2968 14.1155 16.998C14.1155 15.6993 14.5732 14.5929 15.4885 13.6788C16.4038 12.7648 17.5108 12.3078 18.8095 12.3078C20.1083 12.3078 21.2148 12.7654 22.1288 13.6808C23.0429 14.5961 23.5 15.7032 23.5 17.002C23.5 18.3007 23.0423 19.4071 22.127 20.3213C21.2115 21.2353 20.1044 21.6923 18.8057 21.6923ZM18.8055 20.1923C19.6915 20.1923 20.4454 19.8822 21.0673 19.262C21.6891 18.6417 22 17.8884 22 17.0023C22 16.1161 21.6898 15.3621 21.0695 14.7403C20.4493 14.1186 19.6962 13.8078 18.81 13.8078C17.9238 13.8078 17.1698 14.1178 16.548 14.738C15.9262 15.3583 15.6152 16.1116 15.6152 16.9978C15.6152 17.8839 15.9254 18.6379 16.5458 19.2598C17.1661 19.8814 17.9193 20.1923 18.8055 20.1923Z" fill="white"/>
</g>
</svg>
