<svg width="28" height="28" viewBox="0 0 28 28" fill="none" xmlns="http://www.w3.org/2000/svg">
<mask id="mask0_239_1301" style="mask-type:alpha" maskUnits="userSpaceOnUse" x="0" y="0" width="28" height="28">
<rect width="28" height="28" fill="#D9D9D9"/>
</mask>
<g mask="url(#mask0_239_1301)">
<path d="M14 15.925L15.4584 17.0535C15.6573 17.2135 15.8681 17.2183 16.091 17.068C16.3138 16.9177 16.3841 16.7177 16.3019 16.4678L15.7141 14.6102L17.3991 13.3067C17.5904 13.1467 17.645 12.9485 17.5627 12.7123C17.4805 12.4758 17.3145 12.3576 17.0649 12.3576H15.1261L14.4982 10.4373C14.4159 10.1874 14.2499 10.0625 14 10.0625C13.7502 10.0625 13.5841 10.1874 13.5019 10.4373L12.8739 12.3576H10.906C10.6564 12.3576 10.4934 12.4758 10.4172 12.7123C10.3408 12.9485 10.3983 13.1467 10.5899 13.3067L12.2276 14.6102L11.6399 16.5083C11.5576 16.758 11.62 16.9581 11.8271 17.1086C12.0342 17.2589 12.2432 17.254 12.4542 17.094L14 15.925ZM5.02573 22.75C4.44395 22.75 3.94695 22.544 3.53473 22.132C3.1227 21.7197 2.91669 21.2227 2.91669 20.641V17.444C2.91669 17.2525 2.97171 17.0827 3.08177 16.9347C3.19163 16.7866 3.33853 16.6856 3.52248 16.6317C4.03406 16.3939 4.44988 16.0409 4.76994 15.5727C5.08999 15.1046 5.25002 14.5804 5.25002 14C5.25002 13.4196 5.08999 12.8954 4.76994 12.4273C4.44988 11.9591 4.03406 11.6061 3.52248 11.3683C3.33853 11.3144 3.19163 11.2134 3.08177 11.0653C2.97171 10.9173 2.91669 10.7475 2.91669 10.556V7.35904C2.91669 6.77726 3.1227 6.28026 3.53473 5.86804C3.94695 5.45601 4.44395 5.25 5.02573 5.25H22.9743C23.5561 5.25 24.0531 5.45601 24.4653 5.86804C24.8773 6.28026 25.0834 6.77726 25.0834 7.35904V10.556C25.0834 10.7475 25.0283 10.9173 24.9183 11.0653C24.8084 11.2134 24.6615 11.3144 24.4776 11.3683C23.966 11.6061 23.5502 11.9591 23.2301 12.4273C22.91 12.8954 22.75 13.4196 22.75 14C22.75 14.5804 22.91 15.1046 23.2301 15.5727C23.5502 16.0409 23.966 16.3939 24.4776 16.6317C24.6615 16.6856 24.8084 16.7866 24.9183 16.9347C25.0283 17.0827 25.0834 17.2525 25.0834 17.444V20.641C25.0834 21.2227 24.8773 21.7197 24.4653 22.132C24.0531 22.544 23.5561 22.75 22.9743 22.75H5.02573ZM5.02573 21H22.9743C23.0791 21 23.1652 20.9664 23.2324 20.8991C23.2997 20.8318 23.3334 20.7458 23.3334 20.641V18.025C22.6139 17.5972 22.0452 17.0285 21.6271 16.3187C21.209 15.609 21 14.8361 21 14C21 13.1639 21.209 12.391 21.6271 11.6813C22.0452 10.9715 22.6139 10.4028 23.3334 9.975V7.35904C23.3334 7.25424 23.2997 7.1682 23.2324 7.10092C23.1652 7.03364 23.0791 7 22.9743 7H5.02573C4.92092 7 4.83488 7.03364 4.7676 7.10092C4.70033 7.1682 4.66669 7.25424 4.66669 7.35904V9.975C5.38613 10.4028 5.95488 10.9715 6.37294 11.6813C6.79099 12.391 7.00002 13.1639 7.00002 14C7.00002 14.8361 6.79099 15.609 6.37294 16.3187C5.95488 17.0285 5.38613 17.5972 4.66669 18.025V20.641C4.66669 20.7458 4.70033 20.8318 4.7676 20.8991C4.83488 20.9664 4.92092 21 5.02573 21Z" fill="black"/>
</g>
</svg>
