<svg width="28" height="28" viewBox="0 0 28 28" fill="none" xmlns="http://www.w3.org/2000/svg">
<mask id="mask0_239_1307" style="mask-type:alpha" maskUnits="userSpaceOnUse" x="0" y="0" width="28" height="28">
<rect width="28" height="28" fill="#D9D9D9"/>
</mask>
<g mask="url(#mask0_239_1307)">
<path d="M7.02685 20.1744C8.01852 19.4386 9.09885 18.8575 10.2679 18.4311C11.4367 18.0049 12.6807 17.7917 14 17.7917C15.3193 17.7917 16.5634 18.0049 17.7322 18.4311C18.9012 18.8575 19.9815 19.4386 20.9732 20.1744C21.6985 19.3772 22.2731 18.4543 22.6972 17.4059C23.1213 16.3574 23.3334 15.2222 23.3334 14.0001C23.3334 11.414 22.4243 9.21189 20.6063 7.39383C18.7882 5.57578 16.5861 4.66675 14 4.66675C11.4139 4.66675 9.21183 5.57578 7.39377 7.39383C5.57571 9.21189 4.66669 11.414 4.66669 14.0001C4.66669 15.2222 4.87873 16.3574 5.30281 17.4059C5.7269 18.4543 6.30158 19.3772 7.02685 20.1744ZM14.0003 14.8751C12.9351 14.8751 12.0369 14.5095 11.3056 13.7784C10.5741 13.0471 10.2084 12.1489 10.2084 11.0837C10.2084 10.0185 10.5739 9.1203 11.305 8.389C12.0363 7.6575 12.9346 7.29175 13.9997 7.29175C15.0649 7.29175 15.9631 7.6573 16.6944 8.38841C17.4259 9.11972 17.7917 10.018 17.7917 11.0831C17.7917 12.1483 17.4261 13.0465 16.695 13.7778C15.9637 14.5093 15.0655 14.8751 14.0003 14.8751ZM14 25.0834C12.461 25.0834 11.0172 24.794 9.66877 24.2151C8.3203 23.6363 7.14731 22.848 6.14981 21.8503C5.15212 20.8528 4.36384 19.6798 3.78498 18.3313C3.20612 16.9829 2.91669 15.5391 2.91669 14.0001C2.91669 12.4611 3.20612 11.0173 3.78498 9.66883C4.36384 8.32036 5.15212 7.14737 6.14981 6.14987C7.14731 5.15218 8.3203 4.3639 9.66877 3.78504C11.0172 3.20618 12.461 2.91675 14 2.91675C15.539 2.91675 16.9828 3.20618 18.3313 3.78504C19.6797 4.3639 20.8527 5.15218 21.8502 6.14987C22.8479 7.14737 23.6362 8.32036 24.2151 9.66883C24.7939 11.0173 25.0834 12.4611 25.0834 14.0001C25.0834 15.5391 24.7939 16.9829 24.2151 18.3313C23.6362 19.6798 22.8479 20.8528 21.8502 21.8503C20.8527 22.848 19.6797 23.6363 18.3313 24.2151C16.9828 24.794 15.539 25.0834 14 25.0834ZM14 23.3334C15.0529 23.3334 16.0681 23.1641 17.0456 22.8253C18.0231 22.4864 18.891 22.0126 19.6493 21.404C18.891 20.8176 18.0344 20.3606 17.0794 20.0332C16.1243 19.7056 15.0979 19.5417 14 19.5417C12.9022 19.5417 11.8739 19.7036 10.9151 20.0274C9.95626 20.3513 9.10148 20.8102 8.35073 21.404C9.10906 22.0126 9.97696 22.4864 10.9544 22.8253C11.9319 23.1641 12.9471 23.3334 14 23.3334ZM14 13.1251C14.5804 13.1251 15.0658 12.9299 15.456 12.5394C15.8465 12.1492 16.0417 11.6638 16.0417 11.0834C16.0417 10.503 15.8465 10.0177 15.456 9.62741C15.0658 9.23697 14.5804 9.04175 14 9.04175C13.4196 9.04175 12.9343 9.23697 12.544 9.62741C12.1536 10.0177 11.9584 10.503 11.9584 11.0834C11.9584 11.6638 12.1536 12.1492 12.544 12.5394C12.9343 12.9299 13.4196 13.1251 14 13.1251Z" fill="black"/>
</g>
</svg>
