<svg width="28" height="28" viewBox="0 0 28 28" fill="none" xmlns="http://www.w3.org/2000/svg">
<mask id="mask0_239_1304" style="mask-type:alpha" maskUnits="userSpaceOnUse" x="0" y="0" width="28" height="28">
<rect width="28" height="28" fill="#D9D9D9"/>
</mask>
<g mask="url(#mask0_239_1304)">
<path d="M6.55111 21.5834V22.6827C6.55111 23.0255 6.43104 23.3169 6.1909 23.5568C5.95076 23.7968 5.65909 23.9167 5.3159 23.9167C4.9729 23.9167 4.68172 23.7968 4.44235 23.5568C4.20299 23.3169 4.08331 23.0255 4.08331 22.6827V14.4533C4.08331 14.3322 4.09119 14.2111 4.10694 14.0899C4.12269 13.9688 4.14913 13.8527 4.18627 13.7417L6.27548 7.83483C6.41529 7.41464 6.66865 7.07329 7.03556 6.81079C7.40248 6.5481 7.81315 6.41675 8.26756 6.41675H19.7324C20.1868 6.41675 20.5975 6.5481 20.9644 6.81079C21.3313 7.07329 21.5847 7.41464 21.7245 7.83483L23.8137 13.7417C23.8508 13.8527 23.8773 13.9688 23.893 14.0899C23.9088 14.2111 23.9166 14.3322 23.9166 14.4533V22.6827C23.9166 23.0255 23.7966 23.3169 23.5564 23.5568C23.3161 23.7968 23.0244 23.9167 22.6814 23.9167C22.3382 23.9167 22.047 23.7968 21.8076 23.5568C21.5684 23.3169 21.4489 23.0255 21.4489 22.6827V21.5834H6.55111ZM6.54235 12.3399H21.4576L20.0757 8.40242C20.0457 8.32755 20.0008 8.26961 19.9409 8.22858C19.8811 8.18736 19.81 8.16675 19.7277 8.16675H8.27223C8.18998 8.16675 8.11891 8.18736 8.05902 8.22858C7.99913 8.26961 7.95422 8.32755 7.92427 8.40242L6.54235 12.3399ZM8.70769 18.4874C9.13216 18.4874 9.49217 18.3387 9.78773 18.0414C10.0831 17.7443 10.2308 17.3835 10.2308 16.959C10.2308 16.5346 10.0822 16.1746 9.7851 15.879C9.4878 15.5836 9.12691 15.436 8.70244 15.436C8.27797 15.436 7.91805 15.5845 7.62269 15.8816C7.32713 16.1789 7.17935 16.5398 7.17935 16.9643C7.17935 17.3888 7.32801 17.7487 7.62531 18.044C7.92242 18.3396 8.28322 18.4874 8.70769 18.4874ZM19.2975 18.4874C19.722 18.4874 20.0819 18.3387 20.3773 18.0414C20.6728 17.7443 20.8206 17.3835 20.8206 16.959C20.8206 16.5346 20.672 16.1746 20.3746 15.879C20.0775 15.5836 19.7167 15.436 19.2923 15.436C18.8678 15.436 18.5078 15.5845 18.2122 15.8816C17.9169 16.1789 17.7692 16.5398 17.7692 16.9643C17.7692 17.3888 17.9177 17.7487 18.2149 18.044C18.5122 18.3396 18.8731 18.4874 19.2975 18.4874ZM5.83331 19.8334H22.1666V14.0899H5.83331V19.8334Z" fill="black"/>
</g>
</svg>
