<svg width="48" height="48" viewBox="0 0 48 48" fill="none" xmlns="http://www.w3.org/2000/svg">
<rect width="48" height="48" rx="10" fill="#202020"/>
<mask id="mask0_239_1283" style="mask-type:alpha" maskUnits="userSpaceOnUse" x="10" y="10" width="28" height="28">
<rect x="10" y="10" width="28" height="28" fill="#D9D9D9"/>
</mask>
<g mask="url(#mask0_239_1283)">
<path d="M24 26.6408L26.0709 27.904C26.2624 28.0252 26.4557 28.0184 26.6507 27.8836C26.8459 27.7491 26.9181 27.5666 26.8674 27.3362L26.3176 24.967L28.1665 23.3695C28.346 23.2095 28.3986 23.0211 28.3246 22.8042C28.2505 22.5874 28.0923 22.4693 27.85 22.4499L25.4336 22.2457L24.4801 20.0223C24.3905 19.8114 24.2304 19.7059 24 19.7059C23.7696 19.7059 23.6096 19.8114 23.5199 20.0223L22.5665 22.2457L20.15 22.4499C19.9077 22.4693 19.7496 22.5874 19.6755 22.8042C19.6014 23.0211 19.6541 23.2095 19.8336 23.3695L21.6824 24.967L21.1326 27.3362C21.0819 27.5666 21.1541 27.7491 21.3494 27.8836C21.5444 28.0184 21.7377 28.0252 21.9292 27.904L24 26.6408ZM20.3384 32.7501H17.3591C16.7773 32.7501 16.2803 32.5441 15.8681 32.132C15.456 31.7198 15.25 31.2228 15.25 30.641V27.6617L13.0826 25.4762C12.8837 25.2654 12.7334 25.0322 12.6317 24.7765C12.53 24.5206 12.4792 24.2618 12.4792 24.0001C12.4792 23.7384 12.53 23.4796 12.6317 23.2237C12.7334 22.968 12.8837 22.7347 13.0826 22.524L15.25 20.3385V17.3591C15.25 16.7773 15.456 16.2803 15.8681 15.8681C16.2803 15.4561 16.7773 15.2501 17.3591 15.2501H20.3384L22.5239 13.0827C22.7347 12.8838 22.9679 12.7335 23.2236 12.6318C23.4795 12.5301 23.7383 12.4792 24 12.4792C24.2617 12.4792 24.5205 12.5301 24.7764 12.6318C25.0321 12.7335 25.2654 12.8838 25.4761 13.0827L27.6616 15.2501H30.641C31.2228 15.2501 31.7198 15.4561 32.132 15.8681C32.544 16.2803 32.75 16.7773 32.75 17.3591V20.3385L34.9174 22.524C35.1163 22.7347 35.2666 22.968 35.3683 23.2237C35.47 23.4796 35.5209 23.7384 35.5209 24.0001C35.5209 24.2618 35.47 24.5206 35.3683 24.7765C35.2666 25.0322 35.1163 25.2654 34.9174 25.4762L32.75 27.6617V30.641C32.75 31.2228 32.544 31.7198 32.132 32.132C31.7198 32.5441 31.2228 32.7501 30.641 32.7501H27.6616L25.4761 34.9175C25.2654 35.1164 25.0321 35.2667 24.7764 35.3684C24.5205 35.4701 24.2617 35.5209 24 35.5209C23.7383 35.5209 23.4795 35.4701 23.2236 35.3684C22.9679 35.2667 22.7347 35.1164 22.5239 34.9175L20.3384 32.7501ZM21.0834 31.0001L23.7419 33.6586C23.8092 33.7259 23.8952 33.7595 24 33.7595C24.1048 33.7595 24.1909 33.7259 24.2581 33.6586L26.9167 31.0001H30.641C30.7458 31.0001 30.8318 30.9664 30.8991 30.8992C30.9664 30.8319 31 30.7458 31 30.641V26.9167L33.6586 24.2582C33.7258 24.1909 33.7595 24.1049 33.7595 24.0001C33.7595 23.8953 33.7258 23.8092 33.6586 23.742L31 21.0834V17.3591C31 17.2543 30.9664 17.1683 30.8991 17.101C30.8318 17.0337 30.7458 17.0001 30.641 17.0001H26.9167L24.2581 14.3415C24.1909 14.2743 24.1048 14.2406 24 14.2406C23.8952 14.2406 23.8092 14.2743 23.7419 14.3415L21.0834 17.0001H17.3591C17.2543 17.0001 17.1682 17.0337 17.1009 17.101C17.0337 17.1683 17 17.2543 17 17.3591V21.0834L14.3415 23.742C14.2742 23.8092 14.2406 23.8953 14.2406 24.0001C14.2406 24.1049 14.2742 24.1909 14.3415 24.2582L17 26.9167V30.641C17 30.7458 17.0337 30.8319 17.1009 30.8992C17.1682 30.9664 17.2543 31.0001 17.3591 31.0001H21.0834Z" fill="#FFD613"/>
</g>
</svg>
