<svg width="48" height="48" viewBox="0 0 48 48" fill="none" xmlns="http://www.w3.org/2000/svg">
<rect width="48" height="48" rx="10" fill="#202020"/>
<mask id="mask0_239_1290" style="mask-type:alpha" maskUnits="userSpaceOnUse" x="10" y="10" width="28" height="28">
<rect x="10" y="10" width="28" height="28" fill="#D9D9D9"/>
</mask>
<g mask="url(#mask0_239_1290)">
<path d="M34.2982 24.875H31.8301C31.5818 24.875 31.3739 24.7912 31.2065 24.6236C31.0389 24.4562 30.9551 24.2483 30.9551 24C30.9551 23.7517 31.0389 23.5439 31.2065 23.3765C31.3739 23.2088 31.5818 23.125 31.8301 23.125H34.2982C34.5465 23.125 34.7543 23.2088 34.9218 23.3765C35.0894 23.5439 35.1732 23.7517 35.1732 24C35.1732 24.2483 35.0894 24.4562 34.9218 24.6236C34.7543 24.7912 34.5465 24.875 34.2982 24.875ZM29.4451 29.4991C29.5947 29.2942 29.7858 29.176 30.0186 29.1445C30.2511 29.1132 30.4699 29.1723 30.6748 29.3218L32.6424 30.8002C32.8473 30.95 32.9655 31.1411 32.9968 31.3737C33.0283 31.6062 32.9692 31.825 32.8194 32.0299C32.6699 32.2347 32.4789 32.3528 32.2463 32.3843C32.0137 32.4158 31.795 32.3567 31.5901 32.207L29.6225 30.7285C29.4175 30.579 29.2994 30.3879 29.2681 30.1554C29.2366 29.9228 29.2956 29.7041 29.4451 29.4991ZM32.5975 17.1549L30.6299 18.6334C30.4249 18.7829 30.2062 18.842 29.9736 18.8107C29.7411 18.7792 29.5499 18.661 29.4002 18.456C29.2507 18.2513 29.1917 18.0325 29.2232 17.7998C29.2545 17.5672 29.3726 17.3762 29.5776 17.2267L31.5451 15.7482C31.7501 15.5987 31.9688 15.5396 32.2014 15.5709C32.4339 15.6024 32.6251 15.7205 32.7748 15.9252C32.9243 16.1302 32.9833 16.3489 32.9518 16.5815C32.9205 16.8142 32.8024 17.0054 32.5975 17.1549ZM16.125 27.0065H14.9359C14.3541 27.0065 13.8572 26.8004 13.4452 26.3882C13.033 25.9762 12.8268 25.4793 12.8268 24.8975V23.1026C12.8268 22.5208 13.033 22.0239 13.4452 21.6119C13.8572 21.1997 14.3541 20.9935 14.9359 20.9935H19.4456L23.0734 18.8241C23.4249 18.6132 23.7794 18.6113 24.1368 18.8186C24.4944 19.0257 24.6732 19.3304 24.6732 19.7327V28.2674C24.6732 28.6697 24.4944 28.9744 24.1368 29.1815C23.7794 29.3888 23.4249 29.3869 23.0734 29.176L19.4456 27.0065H17.875V30.6859C17.875 30.9342 17.7912 31.1421 17.6236 31.3095C17.4562 31.4771 17.2483 31.5609 17 31.5609C16.7517 31.5609 16.5438 31.4771 16.3764 31.3095C16.2088 31.1421 16.125 30.9342 16.125 30.6859V27.0065ZM22.9232 27.0156V20.9845L19.9301 22.7435H14.9359C14.8462 22.7435 14.764 22.781 14.6891 22.8558C14.6143 22.9307 14.5768 23.0129 14.5768 23.1026V24.8975C14.5768 24.9871 14.6143 25.0694 14.6891 25.1442C14.764 25.2191 14.8462 25.2565 14.9359 25.2565H19.9301L22.9232 27.0156ZM26.2884 27.6392V20.3609C26.7461 20.7753 27.1148 21.2973 27.3944 21.9269C27.6742 22.5567 27.8141 23.2477 27.8141 24C27.8141 24.7523 27.6742 25.4434 27.3944 26.0732C27.1148 26.7028 26.7461 27.2248 26.2884 27.6392Z" fill="#FFD613"/>
</g>
</svg>
