<svg width="48" height="48" viewBox="0 0 48 48" fill="none" xmlns="http://www.w3.org/2000/svg">
<rect width="48" height="48" rx="10" fill="#202020"/>
<mask id="mask0_239_1276" style="mask-type:alpha" maskUnits="userSpaceOnUse" x="10" y="10" width="28" height="28">
<rect x="10" y="10" width="28" height="28" fill="#D9D9D9"/>
</mask>
<g mask="url(#mask0_239_1276)">
<path d="M14.6667 29.3399V31.4487C14.6667 31.6283 14.7414 31.7929 14.891 31.9425C15.0405 32.092 15.2051 32.1668 15.3847 32.1668H32.6152C32.7949 32.1668 32.9595 32.092 33.109 31.9425C33.2586 31.7929 33.3333 31.6283 33.3333 31.4487V29.3399H14.6667ZM15.3847 18.2117H19.275C19.1778 18.0367 19.0959 17.8519 19.0294 17.6575C18.9627 17.4631 18.9294 17.2589 18.9294 17.045C18.9294 16.3868 19.1538 15.8333 19.6025 15.3845C20.0513 14.936 20.6047 14.7117 21.2627 14.7117C21.6576 14.7117 22.0229 14.8151 22.3585 15.022C22.6941 15.2289 22.987 15.4859 23.2373 15.7929L23.9551 16.7758L24.6732 15.7929C24.9184 15.4759 25.2113 15.2164 25.552 15.0144C25.8924 14.8126 26.2592 14.7117 26.6521 14.7117C27.3072 14.7117 27.859 14.936 28.3076 15.3845C28.7564 15.8333 28.9808 16.3868 28.9808 17.045C28.9808 17.2589 28.9512 17.4631 28.8921 17.6575C28.833 17.8519 28.7474 18.0367 28.6352 18.2117H32.6152C33.1523 18.2117 33.6007 18.3915 33.9604 18.7513C34.3201 19.111 34.5 19.5593 34.5 20.0961V31.4487C34.5 31.9857 34.3201 32.4341 33.9604 32.7938C33.6007 33.1536 33.1523 33.3334 32.6152 33.3334H15.3847C14.8477 33.3334 14.3993 33.1536 14.0396 32.7938C13.6799 32.4341 13.5 31.9857 13.5 31.4487V20.0961C13.5 19.5593 13.6799 19.111 14.0396 18.7513C14.3993 18.3915 14.8477 18.2117 15.3847 18.2117ZM14.6667 26.8269H33.3333V20.0961C33.3333 19.9167 33.2586 19.7522 33.109 19.6026C32.9595 19.4531 32.7949 19.3783 32.6152 19.3783H25.8127L27.7873 22.1066C27.8769 22.2441 27.9136 22.3887 27.8972 22.5406C27.8807 22.6924 27.8036 22.8132 27.666 22.9028C27.5285 22.9927 27.3838 23.0283 27.232 23.0096C27.0801 22.9909 26.9592 22.915 26.8694 22.7818L23.9551 18.8128L21.0408 22.7818C20.9509 22.915 20.8302 22.9909 20.6785 23.0096C20.5266 23.0283 20.3819 22.9927 20.2442 22.9028C20.1065 22.8132 20.0284 22.6924 20.0097 22.5406C19.991 22.3887 20.0266 22.2441 20.1165 22.1066L22.084 19.3783H15.3847C15.2051 19.3783 15.0405 19.4531 14.891 19.6026C14.7414 19.7522 14.6667 19.9167 14.6667 20.0961V26.8269ZM21.2627 18.2117C21.5933 18.2117 21.8703 18.0999 22.094 17.8763C22.3176 17.6526 22.4294 17.3756 22.4294 17.045C22.4294 16.7144 22.3176 16.4374 22.094 16.2138C21.8703 15.9901 21.5933 15.8783 21.2627 15.8783C20.9322 15.8783 20.6551 15.9901 20.4315 16.2138C20.2078 16.4374 20.096 16.7144 20.096 17.045C20.096 17.3756 20.2078 17.6526 20.4315 17.8763C20.6551 18.0999 20.9322 18.2117 21.2627 18.2117ZM26.6475 18.2117C26.978 18.2117 27.2551 18.0999 27.4787 17.8763C27.7023 17.6526 27.8141 17.3756 27.8141 17.045C27.8141 16.7144 27.7023 16.4374 27.4787 16.2138C27.2551 15.9901 26.978 15.8783 26.6475 15.8783C26.3169 15.8783 26.0398 15.9901 25.8162 16.2138C25.5926 16.4374 25.4808 16.7144 25.4808 17.045C25.4808 17.3756 25.5926 17.6526 25.8162 17.8763C26.0398 18.0999 26.3169 18.2117 26.6475 18.2117Z" fill="#FFD613"/>
</g>
</svg>
