<svg width="319" height="238" viewBox="0 0 319 238" fill="none" xmlns="http://www.w3.org/2000/svg">
<path d="M319 208.881H0V209.041H319V208.881Z" fill="#EBEBEB"/>
<path d="M287.036 219.147H265.906V219.306H287.036V219.147Z" fill="#EBEBEB"/>
<path d="M211.318 220.882H205.774V221.041H211.318V220.882Z" fill="#EBEBEB"/>
<path d="M265.268 213.226H253.024V213.385H265.268V213.226Z" fill="#EBEBEB"/>
<path d="M61.0247 214.298H33.4695V214.457H61.0247V214.298Z" fill="#EBEBEB"/>
<path d="M70.7478 214.298H66.7093V214.457H70.7478V214.298Z" fill="#EBEBEB"/>
<path d="M143.646 216.99H83.8779V217.15H143.646V216.99Z" fill="#EBEBEB"/>
<path d="M151.206 180.426H28.0146C27.0495 180.425 26.1246 180.04 25.4427 179.357C24.7609 178.674 24.378 177.749 24.378 176.783V3.61108C24.3864 2.65154 24.773 1.73407 25.4539 1.05794C26.1348 0.381816 27.055 0.00164374 28.0146 0H151.206C152.172 0 153.099 0.383813 153.782 1.067C154.465 1.7502 154.849 2.6768 154.849 3.64298V176.783C154.849 177.75 154.465 178.676 153.782 179.359C153.099 180.043 152.172 180.426 151.206 180.426ZM28.0146 0.127601C27.0918 0.129291 26.2074 0.497044 25.5555 1.15014C24.9036 1.80324 24.5375 2.68831 24.5375 3.61108V176.783C24.5375 177.706 24.9036 178.591 25.5555 179.244C26.2074 179.897 27.0918 180.265 28.0146 180.267H151.206C152.129 180.265 153.014 179.898 153.667 179.245C154.32 178.592 154.688 177.707 154.689 176.783V3.61108C154.688 2.68772 154.32 1.80266 153.667 1.14975C153.014 0.496836 152.129 0.129287 151.206 0.127601H28.0146Z" fill="#EBEBEB"/>
<path d="M289.212 180.426H166.014C165.048 180.425 164.123 180.04 163.44 179.358C162.757 178.675 162.373 177.749 162.371 176.783V3.61108C162.381 2.65096 162.769 1.7335 163.451 1.05754C164.133 0.381593 165.054 0.00162581 166.014 0H289.212C290.17 0.00332047 291.089 0.384235 291.768 1.06018C292.448 1.73613 292.834 2.65265 292.842 3.61108V176.783C292.842 177.747 292.46 178.672 291.779 179.355C291.099 180.038 290.176 180.423 289.212 180.426ZM166.014 0.127601C165.091 0.129287 164.206 0.496836 163.553 1.14975C162.9 1.80266 162.532 2.68772 162.53 3.61108V176.783C162.532 177.707 162.9 178.592 163.553 179.245C164.206 179.898 165.091 180.265 166.014 180.267H289.212C290.135 180.265 291.02 179.898 291.673 179.245C292.326 178.592 292.694 177.707 292.695 176.783V3.61108C292.694 2.68772 292.326 1.80266 291.673 1.14975C291.02 0.496836 290.135 0.129287 289.212 0.127601H166.014Z" fill="#EBEBEB"/>
<path d="M34.6945 210.393V178.933H49.2153V149.758H51.2633V166.48H56.8458V161.854H66.9007V145.84H68.7637V126.273H70.2502V145.49H73.7911V173.951H80.4901V145.49H92.593V169.561H105.296V140.386H107.344V157.108H112.926V152.482H122.981V136.468H124.844V116.894H126.33V136.111H129.871V164.578H136.57V136.111H148.673V163.647H156.833V147.633H158.696V128.066H160.183V147.282H163.724V175.743H170.423V147.282H182.525V175.743H188.478V178.933H198.916V149.758H200.964V166.48H206.553V161.854H216.601V145.84H218.464V126.273H219.951V145.49H223.198V143.882H235.301V145.49H242V143.882H245.541V124.672H247.027V144.239H248.89V160.253H258.945V164.878H264.528V148.156H266.576V177.332H281.096V210.393H34.6945Z" fill="#E0E0E0"/>
<path d="M238.616 54.4028C242.363 45.3562 238.067 34.9847 229.021 31.2374C219.974 27.4902 209.603 31.7862 205.855 40.8329C202.108 49.8795 206.404 60.251 215.451 63.9982C224.497 67.7455 234.869 63.4495 238.616 54.4028Z" fill="#FAFAFA"/>
<path d="M231.428 47.4225C231.428 46.9394 231.541 46.4628 231.758 46.0313C231.976 45.5998 232.291 45.2253 232.68 44.938C233.068 44.6507 233.519 44.4585 233.995 44.377C234.471 44.2955 234.96 44.3268 235.422 44.4686C235.286 43.5439 235.35 42.6008 235.61 41.7031C235.871 40.8055 236.321 39.9744 236.931 39.2662C237.541 38.5581 238.297 37.9896 239.146 37.5993C239.995 37.2089 240.918 37.0059 241.853 37.004C242.257 37.0044 242.661 37.0407 243.059 37.1125C243.703 36.0573 244.672 35.2399 245.821 34.7833C246.97 34.3268 248.236 34.2558 249.429 34.5812C250.621 34.9065 251.676 35.6105 252.434 36.5871C253.191 37.5638 253.612 38.7602 253.631 39.9962H253.726C254.417 39.9962 255.1 40.1322 255.738 40.3964C256.376 40.6606 256.955 41.0478 257.444 41.536C257.932 42.0242 258.319 42.6037 258.583 43.2415C258.847 43.8794 258.983 44.563 258.983 45.2533C258.983 45.9437 258.847 46.6273 258.583 47.2652C258.319 47.903 257.932 48.4825 257.444 48.9707C256.955 49.4589 256.376 49.8461 255.738 50.1103C255.1 50.3745 254.417 50.5105 253.726 50.5105H234.427C233.622 50.4904 232.858 50.1559 232.297 49.5786C231.737 49.0013 231.425 48.2272 231.428 47.4225Z" fill="#F0F0F0"/>
<path d="M34.5477 95.8978C34.5445 95.4169 34.6546 94.9421 34.869 94.5117C35.0835 94.0813 35.3963 93.7075 35.7821 93.4205C36.1679 93.1334 36.6158 92.9413 37.0897 92.8596C37.5636 92.7779 38.05 92.809 38.5097 92.9502C38.4658 92.6353 38.4444 92.3176 38.4459 91.9996C38.4509 90.2719 39.1408 88.6167 40.3642 87.3969C41.5877 86.177 43.2449 85.492 44.9726 85.492C45.375 85.4945 45.7764 85.5329 46.172 85.6068C46.8075 84.5348 47.7766 83.7005 48.9311 83.2313C50.0856 82.7622 51.362 82.684 52.5652 83.0089C53.7683 83.3337 54.8319 84.0436 55.5934 85.0301C56.3549 86.0166 56.7724 87.2253 56.782 88.4715H56.8777C57.5681 88.4715 58.2517 88.6074 58.8895 88.8716C59.5273 89.1358 60.1069 89.5231 60.595 90.0112C61.0832 90.4994 61.4704 91.0789 61.7346 91.7168C61.9988 92.3546 62.1348 93.0382 62.1348 93.7286C62.1348 94.419 61.9988 95.1026 61.7346 95.7404C61.4704 96.3782 61.0832 96.9578 60.595 97.4459C60.1069 97.9341 59.5273 98.3213 58.8895 98.5855C58.2517 98.8497 57.5681 98.9857 56.8777 98.9857H37.5399C36.7376 98.9608 35.9766 98.6245 35.418 98.0481C34.8595 97.4717 34.5473 96.7004 34.5477 95.8978Z" fill="#F0F0F0"/>
<path d="M137.808 59.0788C137.807 58.3189 137.629 57.5698 137.287 56.891C136.945 56.2123 136.45 55.6226 135.84 55.1691C135.231 54.7155 134.524 54.4106 133.775 54.2786C133.027 54.1466 132.258 54.1911 131.53 54.4086C131.602 53.9121 131.638 53.4111 131.639 52.9093C131.643 51.3911 131.312 49.8906 130.67 48.5151C130.027 47.1395 129.089 45.9228 127.922 44.9519C126.755 43.981 125.388 43.2798 123.918 42.8985C122.448 42.5172 120.913 42.4651 119.421 42.746C118.398 41.084 116.864 39.7986 115.048 39.0825C113.233 38.3665 111.234 38.2584 109.352 38.7746C107.47 39.2907 105.806 40.4033 104.61 41.9453C103.414 43.4873 102.75 45.3756 102.718 47.3268H102.565C100.359 47.3268 98.2439 48.203 96.6843 49.7626C95.1247 51.3223 94.2485 53.4375 94.2485 55.6432C94.2485 57.8488 95.1247 59.9641 96.6843 61.5237C98.2439 63.0833 100.359 63.9595 102.565 63.9595H133.106C134.37 63.9164 135.568 63.3828 136.446 62.4718C137.323 61.5608 137.812 60.3438 137.808 59.0788Z" fill="#F0F0F0"/>
<path d="M225.367 100.938C225.368 100.023 225.155 99.1202 224.745 98.3023C224.334 97.4843 223.738 96.7738 223.004 96.2275C222.27 95.6812 221.418 95.3143 220.517 95.1563C219.615 94.9982 218.689 95.0533 217.813 95.3172C217.903 94.7217 217.948 94.1203 217.947 93.518C217.947 91.8859 217.626 90.2698 217.001 88.762C216.377 87.2541 215.461 85.884 214.307 84.7299C213.153 83.5759 211.783 82.6604 210.275 82.0358C208.767 81.4113 207.151 81.0898 205.519 81.0898C204.753 81.0917 203.988 81.1621 203.235 81.3003C202.016 79.2826 200.173 77.7169 197.985 76.8402C195.797 75.9634 193.383 75.8234 191.108 76.4413C188.833 77.0593 186.822 78.4014 185.378 80.2647C183.934 82.128 183.136 84.411 183.106 86.768H182.927C181.592 86.7343 180.263 86.9682 179.02 87.4559C177.776 87.9437 176.643 88.6754 175.686 89.608C174.73 90.5405 173.97 91.6551 173.451 92.886C172.932 94.1169 172.664 95.4392 172.664 96.775C172.664 98.1109 172.932 99.4332 173.451 100.664C173.97 101.895 174.73 103.01 175.686 103.942C176.643 104.875 177.776 105.606 179.02 106.094C180.263 106.582 181.592 106.816 182.927 106.782H219.676C221.198 106.737 222.642 106.103 223.705 105.012C224.767 103.921 225.363 102.46 225.367 100.938Z" fill="#F0F0F0"/>
<path d="M192.759 56.6544C192.758 56.3551 192.827 56.0598 192.961 55.7921C193.095 55.5244 193.29 55.2919 193.53 55.1132C193.77 54.9345 194.049 54.8147 194.344 54.7632C194.639 54.7118 194.942 54.7302 195.228 54.817C195.2 54.6225 195.185 54.4264 195.183 54.23C195.183 53.1538 195.611 52.1218 196.372 51.3608C197.133 50.5998 198.165 50.1723 199.241 50.1723C199.491 50.173 199.741 50.1964 199.987 50.2425C200.387 49.5849 200.99 49.0752 201.705 48.7903C202.42 48.5054 203.209 48.4608 203.951 48.6632C204.694 48.8656 205.35 49.304 205.822 49.9123C206.293 50.5206 206.554 51.2657 206.565 52.0353H206.623C207.489 52.0353 208.32 52.3794 208.932 52.992C209.545 53.6046 209.889 54.4355 209.889 55.3018C209.889 56.1682 209.545 56.9991 208.932 57.6116C208.32 58.2242 207.489 58.5684 206.623 58.5684H194.622C194.123 58.5551 193.649 58.3476 193.301 57.9901C192.953 57.6326 192.759 57.1533 192.759 56.6544Z" fill="#F0F0F0"/>
<path d="M64.3232 35.9832C64.3226 35.6875 64.2535 35.3959 64.1214 35.1314C63.9892 34.8669 63.7975 34.6366 63.5614 34.4585C63.3253 34.2805 63.0511 34.1596 62.7604 34.1054C62.4698 34.0511 62.1705 34.0649 61.886 34.1457C61.9138 33.9513 61.9287 33.7552 61.9307 33.5588C61.9307 32.4826 61.5032 31.4505 60.7422 30.6896C59.9812 29.9286 58.9492 29.5011 57.873 29.5011C57.6204 29.5017 57.3685 29.5252 57.1201 29.5713C56.7219 28.9121 56.1195 28.4007 55.4044 28.1147C54.6894 27.8287 53.9005 27.7836 53.1575 27.9863C52.4145 28.189 51.7578 28.6284 51.287 29.238C50.8163 29.8475 50.5571 30.5939 50.5488 31.3641H50.4658C50.0243 31.3446 49.5834 31.4147 49.1696 31.5702C48.7559 31.7257 48.378 31.9634 48.0587 32.269C47.7393 32.5745 47.4852 32.9416 47.3115 33.348C47.1379 33.7545 47.0484 34.1919 47.0484 34.6338C47.0484 35.0758 47.1379 35.5132 47.3115 35.9196C47.4852 36.3261 47.7393 36.6931 48.0587 36.9987C48.378 37.3042 48.7559 37.5419 49.1696 37.6974C49.5834 37.853 50.0243 37.9231 50.4658 37.9036H62.4602C62.96 37.8902 63.4348 37.6818 63.783 37.323C64.1311 36.9641 64.325 36.4832 64.3232 35.9832Z" fill="#F0F0F0"/>
<path d="M159.5 237.693C227.819 237.693 283.202 234.46 283.202 230.471C283.202 226.482 227.819 223.249 159.5 223.249C91.1814 223.249 35.7982 226.482 35.7982 230.471C35.7982 234.46 91.1814 237.693 159.5 237.693Z" fill="#F5F5F5"/>
<path d="M82.6529 45.2916H79.2077V215.58H82.6529V45.2916Z" fill="#2E353A"/>
<path d="M93.1991 38.548H68.6488C66.9646 38.548 65.5992 39.9133 65.5992 41.5976V66.1478C65.5992 67.8321 66.9646 69.1975 68.6488 69.1975H93.1991C94.8833 69.1975 96.2487 67.8321 96.2487 66.1478V41.5976C96.2487 39.9133 94.8833 38.548 93.1991 38.548Z" fill="#FFD613"/>
<path d="M93.199 67.9215H68.6552C68.1848 67.9215 67.7336 67.7346 67.401 67.402C67.0684 67.0694 66.8815 66.6182 66.8815 66.1478V41.5976C66.8815 41.1272 67.0684 40.6761 67.401 40.3434C67.7336 40.0108 68.1848 39.824 68.6552 39.824H93.199C93.67 39.824 94.1218 40.0106 94.4554 40.3431C94.7891 40.6755 94.9774 41.1266 94.979 41.5976V66.1478C94.9774 66.6188 94.7891 67.0699 94.4554 67.4024C94.1218 67.7348 93.67 67.9215 93.199 67.9215ZM68.6552 41.1255C68.5232 41.1255 68.3966 41.1779 68.3033 41.2712C68.21 41.3646 68.1575 41.4911 68.1575 41.6231V66.1734C68.1575 66.3053 68.21 66.4319 68.3033 66.5252C68.3966 66.6186 68.5232 66.671 68.6552 66.671H93.199C93.3316 66.671 93.4588 66.6188 93.5532 66.5256C93.6475 66.4325 93.7014 66.3059 93.703 66.1734V41.5976C93.7014 41.465 93.6475 41.3385 93.5532 41.2453C93.4588 41.1522 93.3316 41.0999 93.199 41.1L68.6552 41.1255Z" fill="white"/>
<path d="M81.1217 46.574C84.3117 46.574 86.13 48.1499 86.13 50.9188C86.13 53.8344 84.3053 55.5188 81.1217 55.5188H78.6399V59.0916H75.8135V46.574H81.1217ZM78.6399 53.1582H80.9813C82.5572 53.1582 83.4504 52.4372 83.4504 51.0081C83.4504 49.579 82.5572 48.9155 80.9813 48.9155H78.6399V53.1582Z" fill="white"/>
<path opacity="0.4" d="M82.6465 215.587H79.2077V97.614L82.6465 102.08V215.587Z" fill="white"/>
<path d="M92.7844 76.3941H68.534C67.6778 76.3941 66.9836 77.0882 66.9836 77.9445V92.0124C66.9836 92.8686 67.6778 93.5627 68.534 93.5627H92.7844C93.6406 93.5627 94.3347 92.8686 94.3347 92.0124V77.9445C94.3347 77.0882 93.6406 76.3941 92.7844 76.3941Z" fill="#FFD613"/>
<path opacity="0.4" d="M92.7844 76.3941H68.534C67.6778 76.3941 66.9836 77.0882 66.9836 77.9445V92.0124C66.9836 92.8686 67.6778 93.5627 68.534 93.5627H92.7844C93.6406 93.5627 94.3347 92.8686 94.3347 92.0124V77.9445C94.3347 77.0882 93.6406 76.3941 92.7844 76.3941Z" fill="white"/>
<path d="M77.5999 87.2465C77.5999 87.696 77.4666 88.1354 77.2167 88.509C76.9669 88.8827 76.6117 89.1738 76.1964 89.3455C75.781 89.5172 75.324 89.5618 74.8832 89.4737C74.4424 89.3855 74.0378 89.1686 73.7204 88.8503C73.403 88.532 73.1872 88.1267 73.1002 87.6857C73.0133 87.2447 73.0592 86.7878 73.2321 86.3729C73.405 85.958 73.6971 85.6037 74.0714 85.3549C74.4458 85.1061 74.8856 84.974 75.335 84.9752C75.9363 84.9769 76.5124 85.2169 76.9369 85.6427C77.3615 86.0685 77.5999 86.6452 77.5999 87.2465ZM85.3644 84.9752C84.9152 84.9752 84.4761 85.1084 84.1025 85.358C83.729 85.6076 83.4379 85.9623 83.266 86.3773C83.0941 86.7923 83.0491 87.249 83.1368 87.6896C83.2244 88.1302 83.4407 88.5349 83.7584 88.8525C84.076 89.1702 84.4807 89.3865 84.9213 89.4741C85.3619 89.5618 85.8186 89.5168 86.2336 89.3449C86.6486 89.173 87.0033 88.8819 87.2529 88.5084C87.5025 88.1348 87.6357 87.6957 87.6357 87.2465C87.6357 86.6441 87.3964 86.0664 86.9704 85.6405C86.5445 85.2145 85.9668 84.9752 85.3644 84.9752ZM74.1101 84.9752C74.1101 84.9752 76.0241 84.2607 77.0768 85.3963C77.397 85.7888 77.6303 86.2449 77.7612 86.7343C77.8921 87.2238 77.9176 87.7354 77.836 88.2354H82.4424L82.6976 87.7314C82.251 84.7009 86.1045 84.3181 86.1045 84.3181L85.3644 83.5014L86.1045 82.7422L85.6579 81.8618L81.6831 82.2382L81.4981 83.1824L82.1872 84.0118L80.9112 87.2465H78.8249L77.5489 84.2607L78.0976 83.1824L77.5489 82.5444L78.6654 81.8235L79.9924 81.5683V81.1281L78.3528 81.2557C78.3528 81.2557 78.3528 80.7517 77.9126 80.8155C77.3855 80.9746 76.8766 81.1884 76.3941 81.4535L76.8407 82.0915C76.0186 82.6604 75.3465 83.42 74.8821 84.3053C73.8613 84.2607 74.1101 84.9752 74.1101 84.9752Z" fill="white"/>
<path d="M273.409 212.352V220.008H57.5668V212.352C57.5495 212.044 57.5949 211.735 57.7004 211.446C57.8059 211.156 57.9692 210.89 58.1804 210.665C58.3916 210.44 58.6463 210.261 58.9291 210.137C59.2118 210.014 59.5167 209.949 59.8253 209.947H271.15C271.459 209.949 271.763 210.014 272.046 210.137C272.329 210.261 272.584 210.44 272.795 210.665C273.006 210.89 273.169 211.156 273.275 211.446C273.38 211.735 273.426 212.044 273.409 212.352Z" fill="#263238"/>
<path d="M83.2909 209.947H69.8674V220.014H83.2909V209.947Z" fill="#FFD613"/>
<path d="M108.454 209.947H95.5916V220.014H108.454V209.947Z" fill="#FFD613"/>
<path d="M134.171 209.947H120.754V220.014H134.171V209.947Z" fill="#FFD613"/>
<path d="M159.341 209.947H146.478V220.014H159.341V209.947Z" fill="#FFD613"/>
<path d="M184.503 209.947H171.641V220.014H184.503V209.947Z" fill="#FFD613"/>
<path d="M210.221 209.947H196.804V220.014H210.221V209.947Z" fill="#FFD613"/>
<path d="M235.384 209.947H222.522V220.014H235.384V209.947Z" fill="#FFD613"/>
<path d="M261.101 209.947H247.684V220.014H261.101V209.947Z" fill="#FFD613"/>
<path opacity="0.6" d="M83.2909 209.947H69.8674V220.014H83.2909V209.947Z" fill="white"/>
<path opacity="0.6" d="M108.454 209.947H95.5916V220.014H108.454V209.947Z" fill="white"/>
<path opacity="0.6" d="M134.171 209.947H120.754V220.014H134.171V209.947Z" fill="white"/>
<path opacity="0.6" d="M159.341 209.947H146.478V220.014H159.341V209.947Z" fill="white"/>
<path opacity="0.6" d="M184.503 209.947H171.641V220.014H184.503V209.947Z" fill="white"/>
<path opacity="0.6" d="M210.221 209.947H196.804V220.014H210.221V209.947Z" fill="white"/>
<path opacity="0.6" d="M235.384 209.947H222.522V220.014H235.384V209.947Z" fill="white"/>
<path opacity="0.6" d="M261.101 209.947H247.684V220.014H261.101V209.947Z" fill="white"/>
<path opacity="0.2" d="M273.409 212.352V220.008H57.5668V212.352C57.5495 212.044 57.5949 211.735 57.7004 211.446C57.8059 211.156 57.9692 210.89 58.1804 210.665C58.3916 210.44 58.6463 210.261 58.9291 210.137C59.2118 210.014 59.5167 209.949 59.8253 209.947H271.15C271.459 209.949 271.763 210.014 272.046 210.137C272.329 210.261 272.584 210.44 272.795 210.665C273.006 210.89 273.169 211.156 273.275 211.446C273.38 211.735 273.426 212.044 273.409 212.352Z" fill="white"/>
<path d="M151.225 231.384C164.023 231.384 174.397 218.864 174.397 203.42C174.397 187.976 164.023 175.456 151.225 175.456C138.428 175.456 128.053 187.976 128.053 203.42C128.053 218.864 138.428 231.384 151.225 231.384Z" fill="#2E353A"/>
<path d="M155.104 221.054C163.177 221.054 169.721 213.159 169.721 203.42C169.721 193.681 163.177 185.786 155.104 185.786C147.032 185.786 140.488 193.681 140.488 203.42C140.488 213.159 147.032 221.054 155.104 221.054Z" fill="black"/>
<path d="M158.46 210.534C161.822 210.534 164.547 207.246 164.547 203.19C164.547 199.135 161.822 195.847 158.46 195.847C155.099 195.847 152.374 199.135 152.374 203.19C152.374 207.246 155.099 210.534 158.46 210.534Z" fill="#FFD613"/>
<path opacity="0.4" d="M158.46 210.534C161.822 210.534 164.547 207.246 164.547 203.19C164.547 199.135 161.822 195.847 158.46 195.847C155.099 195.847 152.374 199.135 152.374 203.19C152.374 207.246 155.099 210.534 158.46 210.534Z" fill="black"/>
<path d="M127.198 176.407L133.591 195.841L130.394 197.219L124.627 180.127L127.198 176.407Z" fill="black"/>
<path d="M129.884 180.599L125.322 184.267C125.256 184.323 125.179 184.365 125.097 184.39C125.014 184.415 124.927 184.423 124.841 184.413C124.755 184.404 124.672 184.377 124.597 184.334C124.522 184.291 124.456 184.234 124.404 184.165C124.348 184.099 124.306 184.022 124.281 183.939C124.256 183.857 124.248 183.77 124.258 183.684C124.267 183.598 124.294 183.515 124.337 183.44C124.379 183.364 124.437 183.299 124.506 183.246L129.067 179.578C129.134 179.522 129.21 179.481 129.293 179.456C129.376 179.43 129.463 179.422 129.549 179.432C129.635 179.442 129.718 179.468 129.793 179.511C129.868 179.554 129.934 179.611 129.986 179.68C130.042 179.746 130.083 179.823 130.109 179.906C130.134 179.988 130.142 180.075 130.132 180.161C130.123 180.247 130.096 180.33 130.053 180.405C130.01 180.481 129.953 180.546 129.884 180.599Z" fill="#2E353A"/>
<path d="M130.688 183.023L126.133 186.685C126.067 186.741 125.99 186.783 125.908 186.809C125.825 186.834 125.739 186.843 125.653 186.834C125.567 186.825 125.484 186.799 125.408 186.757C125.333 186.715 125.267 186.658 125.214 186.59C125.158 186.524 125.116 186.447 125.09 186.365C125.065 186.282 125.056 186.196 125.065 186.11C125.074 186.024 125.1 185.941 125.142 185.865C125.184 185.79 125.241 185.724 125.31 185.671L129.871 182.002C129.937 181.947 130.014 181.905 130.097 181.88C130.18 181.855 130.267 181.847 130.353 181.856C130.438 181.866 130.522 181.893 130.597 181.935C130.672 181.978 130.738 182.036 130.79 182.104C130.846 182.171 130.887 182.247 130.912 182.33C130.937 182.413 130.945 182.5 130.936 182.586C130.926 182.672 130.899 182.755 130.857 182.83C130.814 182.905 130.757 182.971 130.688 183.023Z" fill="#2E353A"/>
<path d="M131.498 185.441L126.962 189.11C126.896 189.165 126.819 189.207 126.736 189.232C126.654 189.257 126.567 189.265 126.481 189.256C126.395 189.246 126.312 189.219 126.237 189.176C126.161 189.134 126.096 189.076 126.043 189.008C125.987 188.942 125.945 188.865 125.92 188.783C125.894 188.7 125.885 188.614 125.894 188.528C125.903 188.442 125.93 188.359 125.972 188.283C126.014 188.208 126.071 188.142 126.139 188.089L130.701 184.427C130.766 184.371 130.843 184.329 130.925 184.303C131.008 184.277 131.095 184.269 131.181 184.278C131.266 184.287 131.35 184.313 131.425 184.355C131.501 184.397 131.567 184.454 131.619 184.522C131.674 184.59 131.714 184.668 131.738 184.751C131.762 184.834 131.768 184.922 131.756 185.008C131.745 185.094 131.716 185.177 131.672 185.251C131.628 185.326 131.568 185.39 131.498 185.441Z" fill="#2E353A"/>
<path d="M132.302 187.866L127.74 191.534C127.674 191.59 127.597 191.631 127.515 191.656C127.432 191.681 127.345 191.69 127.259 191.68C127.173 191.67 127.09 191.644 127.015 191.601C126.94 191.558 126.874 191.501 126.822 191.432C126.766 191.366 126.724 191.29 126.698 191.207C126.672 191.125 126.664 191.038 126.673 190.952C126.682 190.866 126.708 190.783 126.75 190.708C126.792 190.632 126.849 190.566 126.917 190.513L131.479 186.845C131.545 186.789 131.622 186.747 131.705 186.722C131.787 186.697 131.874 186.689 131.96 186.699C132.046 186.708 132.129 186.735 132.205 186.778C132.28 186.82 132.345 186.878 132.398 186.947C132.454 187.013 132.496 187.089 132.521 187.171C132.547 187.254 132.556 187.341 132.547 187.427C132.538 187.513 132.511 187.596 132.469 187.671C132.427 187.747 132.37 187.813 132.302 187.866Z" fill="#2E353A"/>
<path d="M133.106 190.29L128.544 193.952C128.479 194.008 128.402 194.05 128.32 194.076C128.237 194.101 128.15 194.11 128.064 194.101C127.979 194.092 127.895 194.066 127.82 194.024C127.744 193.982 127.678 193.925 127.626 193.856C127.57 193.791 127.527 193.714 127.502 193.632C127.476 193.549 127.468 193.462 127.477 193.376C127.486 193.291 127.512 193.207 127.554 193.132C127.596 193.057 127.653 192.99 127.721 192.938L132.283 189.269C132.349 189.213 132.426 189.172 132.509 189.147C132.591 189.122 132.678 189.114 132.764 189.123C132.85 189.133 132.933 189.16 133.008 189.202C133.084 189.245 133.149 189.302 133.202 189.371C133.258 189.437 133.3 189.513 133.325 189.596C133.351 189.678 133.36 189.765 133.351 189.851C133.342 189.937 133.315 190.02 133.273 190.096C133.231 190.171 133.174 190.237 133.106 190.29Z" fill="#2E353A"/>
<path d="M133.91 192.714L129.348 196.376C129.282 196.432 129.205 196.474 129.122 196.499C129.04 196.524 128.953 196.532 128.867 196.522C128.781 196.513 128.698 196.486 128.623 196.443C128.547 196.401 128.482 196.343 128.429 196.274C128.374 196.208 128.332 196.131 128.307 196.049C128.282 195.966 128.274 195.879 128.283 195.793C128.293 195.707 128.32 195.624 128.363 195.549C128.405 195.474 128.463 195.408 128.531 195.356L133.087 191.694C133.153 191.638 133.229 191.595 133.311 191.57C133.394 191.544 133.481 191.536 133.567 191.545C133.653 191.554 133.736 191.58 133.811 191.622C133.887 191.664 133.953 191.721 134.006 191.789C134.063 191.855 134.105 191.932 134.132 192.015C134.158 192.098 134.167 192.186 134.158 192.272C134.149 192.359 134.122 192.443 134.08 192.519C134.037 192.595 133.979 192.662 133.91 192.714Z" fill="#2E353A"/>
<path d="M121.182 193.001L169.261 190.973L172.05 194.124L164.362 194.45L160.093 204.135L117.571 205.934L121.182 193.001Z" fill="#2E353A"/>
<path opacity="0.1" d="M127.555 192.733L169.261 190.973L172.05 194.124L164.362 194.45L160.093 204.135L123.951 205.666L127.555 192.733Z" fill="white"/>
<path d="M107.21 206.891L99.9555 231.262H101.831L108.39 212.02H114.304L116.805 231.262H118.572L117.277 206.693L107.21 206.891Z" fill="#2E353A"/>
<path d="M70.18 168.515L66.5307 179.999L58.3005 205.895L55.1807 203.981L63.162 178.047L66.8433 166.065C67.8194 166.741 68.9487 167.558 70.18 168.515Z" fill="#FFD613"/>
<path opacity="0.6" d="M70.18 168.515L66.5307 179.999L58.3005 205.895L55.1807 203.981L63.162 178.047L66.8433 166.065C67.8194 166.741 68.9487 167.558 70.18 168.515Z" fill="white"/>
<path d="M80.2732 140.456L67.4558 180.012H66.486C64.6932 177.881 63.1429 178.047 63.1429 178.047L62.5049 177.102L75.6477 138.822C75.6987 138.873 78.474 136.762 80.2732 140.456Z" fill="#2E353A"/>
<path d="M59.8955 203.382C59.8955 205.455 58.7215 207.133 57.2733 207.133C55.825 207.133 54.6447 205.455 54.6447 203.382C54.6447 201.308 55.825 199.637 57.2733 199.637C58.7215 199.637 59.8955 201.315 59.8955 203.382Z" fill="#2E353A"/>
<path d="M160.725 161.727L172.209 174.244V175.322H167.156C165.167 172.782 162.644 170.71 159.765 169.253C156.886 167.795 153.723 166.988 150.498 166.888L160.725 161.727Z" fill="black"/>
<path d="M99.9555 171.622L107.886 202.016L116.301 209.87C116.303 210.129 116.406 210.376 116.589 210.559C116.772 210.741 117.019 210.845 117.277 210.846H123.019C123.279 210.846 123.528 210.744 123.712 210.561C123.896 210.378 124 210.13 124.002 209.87V193.952C124.004 189.155 125.75 184.523 128.914 180.918C130.751 178.837 133.002 177.163 135.524 176.005L159.838 164.885L158.071 161.733L117.309 164.381L99.9555 171.622Z" fill="#2E353A"/>
<path opacity="0.1" d="M99.9555 171.622L107.886 202.016L116.301 209.87C116.303 210.129 116.406 210.376 116.589 210.559C116.772 210.741 117.019 210.845 117.277 210.846H123.019C123.279 210.846 123.528 210.744 123.712 210.561C123.896 210.378 124 210.13 124.002 209.87V193.952C124.004 189.155 125.75 184.523 128.914 180.918C130.751 178.837 133.002 177.163 135.524 176.005L159.838 164.885L158.071 161.733L117.309 164.381L99.9555 171.622Z" fill="white"/>
<path d="M117.692 188.644H102.654C100.593 188.644 98.9219 190.315 98.9219 192.376V202.01C98.9219 204.071 100.593 205.742 102.654 205.742H117.692C119.753 205.742 121.424 204.071 121.424 202.01V192.376C121.424 190.315 119.753 188.644 117.692 188.644Z" fill="#2E353A"/>
<path opacity="0.2" d="M121.431 192.383V202.01C121.429 203 121.034 203.95 120.333 204.649C119.632 205.349 118.682 205.742 117.692 205.742H102.654C101.664 205.742 100.715 205.349 100.015 204.649C99.3152 203.949 98.9219 203 98.9219 202.01V192.383C98.9219 191.393 99.3152 190.443 100.015 189.743C100.715 189.043 101.664 188.65 102.654 188.65H117.692C118.682 188.65 119.632 189.043 120.333 189.743C121.034 190.443 121.429 191.392 121.431 192.383Z" fill="white"/>
<path opacity="0.2" d="M121.431 192.383V202.01C121.429 203 121.034 203.95 120.333 204.649C119.632 205.349 118.682 205.742 117.692 205.742H111.65C110.66 205.742 109.711 205.349 109.011 204.649C108.311 203.949 107.918 203 107.918 202.01V192.383C107.918 191.393 108.311 190.443 109.011 189.743C109.711 189.043 110.66 188.65 111.65 188.65H117.724C118.709 188.659 119.651 189.055 120.345 189.754C121.039 190.453 121.429 191.398 121.431 192.383Z" fill="white"/>
<path d="M77.0385 150.383C80.0499 147.359 88.5225 144.718 100.007 150.383C111.491 156.048 116.161 163.213 113.634 166.888C111.108 170.563 94.3284 180.037 83.2208 174.92C72.1132 169.804 71.858 155.57 77.0385 150.383Z" fill="#FFD613"/>
<path opacity="0.2" d="M77.0385 150.383C80.0499 147.359 88.5225 144.718 100.007 150.383C111.491 156.048 116.161 163.213 113.634 166.888C111.108 170.563 94.3284 180.037 83.2208 174.92C72.1132 169.804 71.858 155.57 77.0385 150.383Z" fill="black"/>
<path d="M126.962 165.472C126.869 165.98 126.669 166.463 126.375 166.888C123.823 170.557 107.069 180.037 95.9616 174.921C84.854 169.804 84.5988 155.564 89.7794 150.377C92.7908 147.365 101.263 144.718 112.747 150.377C115.335 151.629 117.798 153.124 120.104 154.843C125.208 158.709 127.53 162.69 126.962 165.472Z" fill="#FFD613"/>
<path d="M70.3714 158.262H84.8093C85.4862 158.262 86.1353 157.993 86.6139 157.515C87.0925 157.036 87.3613 156.387 87.3613 155.71V150.434C87.3613 149.018 86.5064 146.498 85.0901 146.498L72.413 147.869L70.3714 158.262Z" fill="#263238"/>
<path d="M92.51 202.246H87.2337C86.5182 202.248 85.8155 202.056 85.2009 201.689C84.5862 201.323 84.0826 200.796 83.7439 200.166C80.9813 194.986 72.9426 181.722 61.6436 178.474C47.5246 174.397 69.2996 171.947 77.1661 177.581C85.0326 183.214 92.51 202.246 92.51 202.246Z" fill="#263238"/>
<path opacity="0.4" d="M92.51 202.246H87.2337C86.5182 202.248 85.8155 202.056 85.2009 201.689C84.5862 201.323 84.0826 200.796 83.7439 200.166C80.9813 194.986 72.9426 181.722 61.6436 178.474C47.5246 174.397 69.2996 171.947 77.1661 177.581C85.0326 183.214 92.51 202.246 92.51 202.246Z" fill="black"/>
<path d="M61.6436 231.384C73.9479 231.384 83.9225 219.349 83.9225 204.505C83.9225 189.66 73.9479 177.626 61.6436 177.626C49.3393 177.626 39.3646 189.66 39.3646 204.505C39.3646 219.349 49.3393 231.384 61.6436 231.384Z" fill="#2E353A"/>
<path d="M65.3759 221.456C73.1348 221.456 79.4247 213.867 79.4247 204.505C79.4247 195.142 73.1348 187.553 65.3759 187.553C57.617 187.553 51.3271 195.142 51.3271 204.505C51.3271 213.867 57.617 221.456 65.3759 221.456Z" fill="black"/>
<path d="M68.5978 211.338C71.8289 211.338 74.4482 208.175 74.4482 204.275C74.4482 200.374 71.8289 197.212 68.5978 197.212C65.3667 197.212 62.7473 200.374 62.7473 204.275C62.7473 208.175 65.3667 211.338 68.5978 211.338Z" fill="#FFD613"/>
<path opacity="0.4" d="M68.5978 211.338C71.8289 211.338 74.4482 208.175 74.4482 204.275C74.4482 200.374 71.8289 197.212 68.5978 197.212C65.3667 197.212 62.7473 200.374 62.7473 204.275C62.7473 208.175 65.3667 211.338 68.5978 211.338Z" fill="black"/>
<path d="M43.6456 187.674H46.121C48.1776 187.672 50.1775 187 51.8184 185.76C55.6464 182.883 63.7936 178.053 72.2344 180.854C82.0149 184.095 88.6565 196.925 90.5513 200.989C90.7221 201.365 90.9978 201.684 91.3453 201.907C91.6927 202.13 92.0972 202.247 92.51 202.246C92.51 202.246 89.4348 177.122 72.2407 170.295C55.5634 163.673 44.2708 177.606 41.84 185.218C41.7564 185.501 41.7393 185.8 41.7902 186.09C41.8411 186.381 41.9585 186.656 42.1334 186.894C42.3082 187.132 42.5357 187.326 42.798 187.461C43.0603 187.597 43.3504 187.67 43.6456 187.674Z" fill="#FFD613"/>
<path d="M83.578 168.515L79.9223 179.999L71.6984 205.883L68.5786 203.969L76.56 178.047L80.2413 166.065C81.2174 166.741 82.3467 167.558 83.578 168.515Z" fill="#FFD613"/>
<path opacity="0.6" d="M83.578 168.515L79.9223 179.999L71.6984 205.883L68.5786 203.969L76.56 178.047L80.2413 166.065C81.2174 166.741 82.3467 167.558 83.578 168.515Z" fill="white"/>
<path d="M93.6712 140.456L80.8602 180.012H79.8904C78.0912 177.881 76.5409 178.047 76.5409 178.047L75.9029 177.102L89.0457 138.822C89.1031 138.873 91.872 136.762 93.6712 140.456Z" fill="#2E353A"/>
<path d="M73.2999 203.382C73.2999 205.455 72.1196 207.133 70.6713 207.133C69.223 207.133 68.0491 205.455 68.0491 203.382C68.0491 201.308 69.223 199.637 70.6713 199.637C72.1196 199.637 73.2999 201.315 73.2999 203.382Z" fill="#2E353A"/>
<path d="M76.7451 148.877C76.7451 148.877 75.284 158.224 70.3714 158.262C65.7906 158.326 65.3631 149.573 69.7334 148.227C73.268 147.142 76.7451 148.877 76.7451 148.877Z" fill="#FFD613"/>
<path d="M76.7451 148.877C76.7451 148.877 75.284 158.224 70.3714 158.262C65.7906 158.326 65.3631 149.573 69.7334 148.227C73.268 147.142 76.7451 148.877 76.7451 148.877Z" fill="#263238"/>
<path d="M66.99 153.165C66.8816 155.532 68.3107 157.452 70.18 157.452C72.0494 157.452 73.6444 155.538 73.7528 153.165C73.8613 150.791 72.4386 148.877 70.5628 148.877C68.6871 148.877 67.0985 150.798 66.99 153.165Z" fill="#FFD613"/>
<path opacity="0.7" d="M66.99 153.165C66.8816 155.532 68.3107 157.452 70.18 157.452C72.0494 157.452 73.6444 155.538 73.7528 153.165C73.8613 150.791 72.4386 148.877 70.5628 148.877C68.6871 148.877 67.0985 150.798 66.99 153.165Z" fill="white"/>
<path d="M71.2072 154.281C71.2072 155.328 70.5692 156.195 69.7334 156.195C68.8976 156.195 68.2596 155.347 68.2596 154.281C68.2596 153.216 68.8976 152.367 69.7334 152.367C70.5692 152.367 71.2072 153.235 71.2072 154.281Z" fill="white"/>
<path d="M72.4513 151.844C72.4156 151.981 72.3422 152.106 72.2395 152.203C72.1367 152.301 72.0087 152.368 71.8699 152.396C71.7311 152.425 71.5871 152.414 71.4542 152.365C71.3212 152.316 71.2046 152.231 71.1175 152.119C71.0305 152.007 70.9765 151.873 70.9616 151.732C70.9467 151.591 70.9716 151.449 71.0333 151.322C71.0951 151.194 71.1913 151.086 71.3111 151.011C71.4309 150.935 71.5695 150.894 71.7112 150.893C71.9344 150.924 72.1368 151.04 72.2751 151.218C72.4135 151.395 72.4767 151.62 72.4513 151.844Z" fill="white"/>
<path d="M84.4903 148.877C84.4903 148.877 83.0102 158.199 78.1103 158.262C73.5231 158.326 73.0957 149.573 77.4723 148.227C81.026 147.142 84.4903 148.877 84.4903 148.877Z" fill="#FFD613"/>
<path d="M84.4903 148.877C84.4903 148.877 83.0102 158.199 78.1103 158.262C73.5231 158.326 73.0957 149.573 77.4723 148.227C81.026 147.142 84.4903 148.877 84.4903 148.877Z" fill="#263238"/>
<path d="M81.4762 153.568C81.7599 151.21 80.4896 149.119 78.639 148.896C76.7883 148.673 75.0582 150.404 74.7745 152.762C74.4908 155.12 75.7611 157.212 77.6117 157.435C79.4624 157.657 81.1925 155.926 81.4762 153.568Z" fill="#FFD613"/>
<path opacity="0.7" d="M81.4762 153.568C81.7599 151.21 80.4896 149.119 78.639 148.896C76.7883 148.673 75.0582 150.404 74.7745 152.762C74.4908 155.12 75.7611 157.212 77.6117 157.435C79.4624 157.657 81.1925 155.926 81.4762 153.568Z" fill="white"/>
<path d="M78.9525 154.281C78.9525 155.328 78.3145 156.195 77.4788 156.195C76.643 156.195 76.0114 155.347 76.0114 154.281C76.0114 153.216 76.6494 152.367 77.4788 152.367C78.3082 152.367 78.9525 153.235 78.9525 154.281Z" fill="white"/>
<path d="M79.4629 152.769C79.8682 152.769 80.1966 152.344 80.1966 151.818C80.1966 151.293 79.8682 150.868 79.4629 150.868C79.0577 150.868 78.7292 151.293 78.7292 151.818C78.7292 152.344 79.0577 152.769 79.4629 152.769Z" fill="white"/>
<path d="M84.854 155.034C84.983 155.031 85.1081 154.99 85.2128 154.915C85.3176 154.839 85.3972 154.734 85.441 154.613L89.7347 141.981C89.7822 141.839 89.7954 141.688 89.773 141.54C89.7507 141.392 89.6936 141.251 89.6064 141.13C89.5192 141.009 89.4044 140.909 89.2714 140.841C89.1384 140.773 88.9911 140.737 88.8415 140.736H78.474C78.1681 140.735 77.8662 140.805 77.5917 140.94C77.3172 141.075 77.0777 141.272 76.8918 141.515L72.0749 147.799H82.6657C83.0921 147.799 83.501 147.968 83.8026 148.27C84.1041 148.572 84.2734 148.98 84.2734 149.407V154.396C84.2728 154.556 84.3321 154.71 84.4396 154.828C84.5471 154.946 84.695 155.02 84.854 155.034Z" fill="#FFD613"/>
<path d="M81.2684 166.888H67.2324C67.0371 166.908 66.84 166.874 66.6624 166.79C66.4847 166.706 66.3331 166.576 66.2237 166.413C66.1144 166.25 66.0513 166.06 66.0413 165.864C66.0313 165.668 66.0748 165.473 66.167 165.299L68.2405 159.851C68.434 159.4 68.7499 159.012 69.1524 158.731C69.5549 158.451 70.028 158.288 70.5181 158.262H84.5541C84.75 158.241 84.9479 158.274 85.1265 158.358C85.3051 158.441 85.4577 158.571 85.5679 158.734C85.6781 158.898 85.7417 159.088 85.752 159.285C85.7622 159.481 85.7186 159.677 85.626 159.851L83.578 165.299C83.3803 165.754 83.059 166.144 82.6507 166.424C82.2424 166.705 81.7635 166.866 81.2684 166.888Z" fill="#2E353A"/>
<path opacity="0.2" d="M81.2684 166.888H67.2324C67.0371 166.908 66.84 166.874 66.6624 166.79C66.4847 166.706 66.3331 166.576 66.2237 166.413C66.1144 166.25 66.0513 166.06 66.0413 165.864C66.0313 165.668 66.0748 165.473 66.167 165.299L68.2405 159.851C68.434 159.4 68.7499 159.012 69.1524 158.731C69.5549 158.451 70.028 158.288 70.5181 158.262H84.5541C84.75 158.241 84.9479 158.274 85.1265 158.358C85.3051 158.441 85.4577 158.571 85.5679 158.734C85.6781 158.898 85.7417 159.088 85.752 159.285C85.7622 159.481 85.7186 159.677 85.626 159.851L83.578 165.299C83.3803 165.754 83.059 166.144 82.6507 166.424C82.2424 166.705 81.7635 166.866 81.2684 166.888Z" fill="white"/>
<path opacity="0.2" d="M112.849 204.556C115.312 204.556 117.309 201.259 117.309 197.193C117.309 193.127 115.312 189.831 112.849 189.831C110.386 189.831 108.39 193.127 108.39 197.193C108.39 201.259 110.386 204.556 112.849 204.556Z" fill="white"/>
<path d="M110.195 179.367L112.358 185.951C112.503 186.384 112.779 186.76 113.149 187.027C113.519 187.294 113.963 187.437 114.419 187.438H122.356C122.707 187.439 123.054 187.354 123.365 187.191C123.677 187.027 123.943 186.79 124.142 186.5L129.642 178.532C129.958 178.073 130.086 177.511 129.999 176.962C129.912 176.412 129.618 175.916 129.176 175.578L125.105 172.464C124.778 172.214 124.387 172.063 123.976 172.028C123.566 171.993 123.154 172.076 122.789 172.266C120.569 173.415 115.733 175.769 111.829 176.567C111.528 176.626 111.243 176.749 110.994 176.927C110.744 177.105 110.535 177.334 110.38 177.599C110.226 177.863 110.13 178.158 110.098 178.463C110.066 178.768 110.099 179.076 110.195 179.367Z" fill="#FFD613"/>
<path d="M94.7239 193.952L100.223 206.202C100.698 207.26 101.475 208.155 102.457 208.773C103.439 209.39 104.582 209.703 105.742 209.672C110.317 209.551 117.309 209.787 117.309 209.787C118.152 208.579 118.598 207.139 118.585 205.666H109.781C108.861 205.666 107.965 205.379 107.217 204.845C106.469 204.311 105.906 203.556 105.608 202.686L102.718 194.163L94.7239 193.952Z" fill="#2E353A"/>
<path d="M107.184 179.769V180.127L107.133 180.765L106.999 182.379L106.954 183.017L106.82 184.631L106.769 185.269L106.642 186.883L106.591 187.521L106.463 189.148L106.412 189.786L106.253 191.77C106.198 192.445 105.891 193.074 105.394 193.533C104.896 193.992 104.243 194.246 103.567 194.246H93.786C93.1916 194.247 92.6136 194.051 92.1426 193.688C91.6715 193.326 91.334 192.817 91.183 192.242L90.545 189.786L90.3791 189.148L89.9516 187.521L89.7921 186.883L89.3647 185.269L89.1988 184.631L88.7713 183.017L88.6118 182.379L88.1844 180.765L88.0185 180.127L87.6421 178.691C87.499 178.136 87.5356 177.55 87.7465 177.017C87.9574 176.484 88.3318 176.031 88.816 175.724C89.2457 175.46 89.7406 175.321 90.2451 175.322H102.501C103.088 175.319 103.66 175.51 104.128 175.865L106.163 177.409C106.518 177.685 106.798 178.046 106.976 178.458C107.155 178.871 107.226 179.322 107.184 179.769Z" fill="#2E353A"/>
<path opacity="0.2" d="M107.184 179.769V180.127L107.133 180.765L106.999 182.379L106.954 183.017L106.82 184.631L106.769 185.269L106.642 186.883L106.591 187.521L106.463 189.148L106.412 189.786L106.253 191.77C106.198 192.445 105.891 193.074 105.394 193.533C104.896 193.992 104.243 194.246 103.567 194.246H93.786C93.1916 194.247 92.6136 194.051 92.1426 193.688C91.6715 193.326 91.334 192.817 91.183 192.242L90.545 189.786L90.3791 189.148L89.9516 187.521L89.7921 186.883L89.3647 185.269L89.1988 184.631L88.7713 183.017L88.6118 182.379L88.1844 180.765L88.0185 180.127L87.6421 178.691C87.499 178.136 87.5356 177.55 87.7465 177.017C87.9574 176.484 88.3318 176.031 88.816 175.724C89.2457 175.46 89.7406 175.321 90.2451 175.322H102.501C103.088 175.319 103.66 175.51 104.128 175.865L106.163 177.409C106.518 177.685 106.798 178.046 106.976 178.458C107.155 178.871 107.226 179.322 107.184 179.769Z" fill="white"/>
<path opacity="0.2" d="M107.184 179.769V180.127L107.133 180.765L106.999 182.379L106.954 183.017L106.82 184.631L106.769 185.269L106.642 186.883L106.591 187.521L106.463 189.148L106.412 189.786L106.253 191.77C106.198 192.445 105.891 193.074 105.394 193.533C104.896 193.992 104.243 194.246 103.567 194.246H102.718C102.124 194.247 101.546 194.051 101.075 193.688C100.604 193.326 100.266 192.817 100.115 192.242L99.477 189.786L99.3111 189.148L98.8836 187.521L98.7241 186.883L98.2967 185.269L98.1308 184.631L97.7033 183.017L97.5438 182.379L97.1164 180.765L96.9505 180.127L96.5741 178.691C96.431 178.136 96.4676 177.55 96.6785 177.017C96.8894 176.484 97.2638 176.031 97.748 175.724C98.1777 175.46 98.6726 175.321 99.1771 175.322H102.501C103.088 175.319 103.66 175.51 104.128 175.865L106.163 177.409C106.518 177.685 106.798 178.046 106.976 178.458C107.155 178.871 107.226 179.322 107.184 179.769Z" fill="white"/>
<path opacity="0.2" d="M107.171 180.127L107.12 180.752H88.1589L87.993 180.127H107.171Z" fill="black"/>
<path opacity="0.2" d="M106.986 182.372L106.942 182.985H88.7458L88.5863 182.372H106.986Z" fill="black"/>
<path opacity="0.2" d="M106.808 184.612L106.757 185.224H89.3392L89.1733 184.612H106.808Z" fill="black"/>
<path opacity="0.2" d="M106.629 186.851L106.578 187.464H89.9261L89.7666 186.851H106.629Z" fill="black"/>
<path opacity="0.2" d="M106.45 189.09L106.399 189.709H90.5195L90.3536 189.09H106.45Z" fill="black"/>
<path opacity="0.2" d="M118.572 205.647C118.583 207.086 118.161 208.495 117.36 209.691C117.346 209.717 117.328 209.74 117.309 209.762C117.309 209.762 113.838 209.647 110.189 209.621H107.58C106.942 209.621 106.304 209.621 105.736 209.621C104.577 209.654 103.435 209.342 102.454 208.726C101.473 208.109 100.696 207.215 100.223 206.157L94.7175 193.952L97.2695 194.022L102.667 194.182L105.576 202.686C105.875 203.554 106.436 204.308 107.183 204.842C107.93 205.376 108.824 205.664 109.742 205.666L118.572 205.647Z" fill="white"/>
<path opacity="0.2" d="M118.572 205.647C118.583 207.086 118.161 208.495 117.36 209.692C115.446 209.647 112.664 209.596 110.189 209.621H109.691H108.288C108.052 209.634 107.815 209.634 107.58 209.621C106.546 209.522 105.558 209.15 104.714 208.545C103.87 207.94 103.201 207.123 102.775 206.176L97.3014 194.003L102.699 194.163L105.608 202.667C105.907 203.535 106.468 204.289 107.215 204.823C107.962 205.357 108.856 205.645 109.774 205.647H118.572Z" fill="white"/>
<path d="M126.962 163.749H127.415C127.654 163.754 127.882 163.854 128.048 164.026C128.214 164.198 128.305 164.429 128.302 164.668C128.302 165.548 128.302 166.869 128.302 167.641C128.302 169.351 131.447 172.579 132.072 172.745C132.698 172.911 162.109 163.634 162.109 163.634C162.109 163.634 162.613 157.299 159.838 156.023C157.063 154.747 141.719 156.106 140.405 157.427C139.09 158.747 134.663 161.701 130.024 161.701C130.024 161.727 126.962 162.543 126.962 163.749Z" fill="#2E353A"/>
<path d="M170.346 156.182L157.446 168.713L142.134 173.268L141.668 170.033L156.744 159.353C156.976 159.184 157.145 158.942 157.223 158.665C157.3 158.388 157.282 158.094 157.171 157.828L156.884 157.159C156.778 156.907 156.601 156.692 156.374 156.54C156.147 156.388 155.881 156.306 155.608 156.304H143.965C143.965 156.304 146.459 155.442 148.603 154.677C150.747 153.911 165.389 154.677 167.532 154.677C167.957 154.659 168.38 154.726 168.779 154.872C169.177 155.019 169.543 155.243 169.855 155.532C170.055 155.718 170.222 155.938 170.346 156.182Z" fill="#FFD613"/>
<path d="M90.3536 142.166C90.3536 142.166 95.649 142.293 98.4051 136.36H102.788V138.274L115.165 142.172C115.165 142.172 115.414 144.239 114.661 144.654L101.155 141.119H97.614C97.614 141.119 94.9663 144.533 91.872 144.692C88.7777 144.852 90.3536 142.166 90.3536 142.166Z" fill="#2E353A"/>
<path d="M99.2218 139.512V142.376C99.2218 142.376 105.098 143.467 107.21 145.738V146.498H107.969V145.738C107.969 145.738 107.363 144.284 101.831 141.872V139.512H99.2218Z" fill="#2E353A"/>
<path d="M76.8662 141.502C76.2352 140.021 75.9056 138.429 75.8965 136.819H72.4513L71.7112 138.586L64.1381 144.328C64.1381 144.328 63.615 146.179 66.0521 145.93L72.7894 141.394L72.4385 142.784C72.4385 142.784 69.1783 144.628 68.2469 145.974C67.3154 147.321 69.089 147.097 69.089 147.097L69.172 145.955C69.172 145.955 71.4241 143.754 73.7464 143.716L76.8662 141.502Z" fill="#2E353A"/>
<path opacity="0.2" d="M126.962 165.472C124.512 170.352 112.926 174.71 107.95 173.268C102.973 171.826 94.0668 164.496 101.812 161.733C108.001 159.506 116.811 156.119 120.104 154.855C125.208 158.709 127.53 162.69 126.962 165.472Z" fill="black"/>
<path opacity="0.2" d="M157.146 157.828L156.859 157.159C156.753 156.907 156.575 156.692 156.349 156.54C156.122 156.388 155.856 156.306 155.583 156.304H143.965C143.965 156.304 146.459 155.442 148.603 154.677C150.747 153.911 165.389 154.677 167.532 154.677C167.957 154.659 168.38 154.726 168.779 154.872C169.178 155.019 169.543 155.243 169.855 155.532C169.855 155.532 160.54 156.642 156.718 159.36C156.952 159.19 157.122 158.947 157.2 158.669C157.277 158.391 157.258 158.094 157.146 157.828Z" fill="black"/>
<path d="M124.002 205.474L135.735 204.466C135.735 204.466 142.357 202.118 143.965 202.106C145.572 202.093 161.35 201.391 161.35 201.391C161.35 201.391 163.628 202.922 164.132 204.466C164.636 206.01 162.122 209.258 162.122 209.258C162.122 209.258 137.055 210.081 136.015 210.062C135.162 209.956 134.338 209.683 133.591 209.258L124.021 208.588L124.002 205.474Z" fill="#2E353A"/>
<path opacity="0.2" d="M124.002 205.474L135.735 204.466C135.735 204.466 142.357 202.118 143.965 202.106C145.572 202.093 161.35 201.391 161.35 201.391C161.35 201.391 163.628 202.922 164.132 204.466C164.636 206.01 162.122 209.258 162.122 209.258C162.122 209.258 137.055 210.081 136.015 210.062C135.162 209.956 134.338 209.683 133.591 209.258L124.021 208.588L124.002 205.474Z" fill="white"/>
<path d="M164.183 231.383L168.834 218.445H177.817L177.313 231.383H175.667L174.914 219.829H170.633L165.574 231.383H164.183Z" fill="black"/>
<path d="M200.785 211.982L198.29 217.724C197.819 218.81 197.041 219.734 196.052 220.384C195.062 221.033 193.904 221.379 192.721 221.38H182.264C180.876 221.38 179.545 220.829 178.563 219.848H159.028C158.272 219.847 157.528 219.667 156.856 219.322C156.184 218.977 155.603 218.477 155.162 217.864L152.61 214.279L200.785 211.982Z" fill="#2E353A"/>
<path opacity="0.4" d="M200.785 211.982L198.29 217.724C197.819 218.81 197.041 219.734 196.052 220.384C195.062 221.033 193.904 221.379 192.721 221.38H182.264C180.876 221.38 179.545 220.829 178.563 219.848H159.028C158.272 219.847 157.528 219.667 156.856 219.322C156.184 218.977 155.603 218.477 155.162 217.864L152.61 214.279L200.785 211.982Z" fill="black"/>
<path d="M155.174 149.356C155.147 149.362 155.119 149.362 155.091 149.356C155.04 149.335 154.999 149.294 154.977 149.242C154.956 149.191 154.956 149.133 154.977 149.081C155.774 147.116 159.979 145.387 163.271 145.068C164.3 145.008 165.323 144.874 166.333 144.667C166.358 144.647 166.387 144.634 166.418 144.629C166.45 144.623 166.482 144.625 166.512 144.635C166.567 144.651 166.613 144.688 166.64 144.738C166.668 144.789 166.674 144.848 166.658 144.903C166.614 145.056 166.575 145.171 163.315 145.496C160.17 145.802 156.106 147.474 155.391 149.241C155.37 149.279 155.339 149.31 155.3 149.331C155.262 149.351 155.218 149.36 155.174 149.356Z" fill="#263238"/>
<path d="M144.131 149.101C144.101 149.108 144.071 149.108 144.041 149.101C142.631 148.418 142.37 147.493 142.006 146.217L141.961 146.038C141.636 144.896 140.303 145.056 140.252 145.062C140.223 145.067 140.195 145.065 140.167 145.058C140.139 145.051 140.113 145.039 140.091 145.022C140.068 145.004 140.049 144.983 140.035 144.958C140.021 144.933 140.012 144.905 140.009 144.877C140.002 144.82 140.017 144.763 140.052 144.718C140.087 144.672 140.138 144.643 140.194 144.635C140.65 144.548 141.122 144.629 141.522 144.864C141.922 145.098 142.223 145.47 142.37 145.911L142.421 146.089C142.759 147.301 142.989 148.105 144.226 148.705C144.278 148.73 144.317 148.774 144.336 148.828C144.355 148.881 144.353 148.941 144.328 148.992C144.309 149.027 144.28 149.055 144.245 149.074C144.21 149.093 144.17 149.102 144.131 149.101Z" fill="#263238"/>
<path d="M235.422 206.891H234.216V205.04H236.628C236.606 205.427 236.484 205.802 236.272 206.127C236.06 206.451 235.767 206.715 235.422 206.891Z" fill="#2E353A"/>
<path d="M216.837 231.384C225.699 231.384 232.883 222.714 232.883 212.02C232.883 201.326 225.699 192.657 216.837 192.657C207.975 192.657 200.791 201.326 200.791 212.02C200.791 222.714 207.975 231.384 216.837 231.384Z" fill="#2E353A"/>
<path opacity="0.4" d="M216.837 231.384C225.699 231.384 232.883 222.714 232.883 212.02C232.883 201.326 225.699 192.657 216.837 192.657C207.975 192.657 200.791 201.326 200.791 212.02C200.791 222.714 207.975 231.384 216.837 231.384Z" fill="black"/>
<path d="M219.523 224.232C225.111 224.232 229.642 218.764 229.642 212.02C229.642 205.276 225.111 199.809 219.523 199.809C213.935 199.809 209.404 205.276 209.404 212.02C209.404 218.764 213.935 224.232 219.523 224.232Z" fill="black"/>
<path d="M221.845 206.769C224.174 206.769 226.063 209.047 226.063 211.873C226.063 214.7 224.149 216.977 221.845 216.977C219.542 216.977 217.628 214.7 217.628 211.873C217.628 209.047 219.517 206.769 221.845 206.769Z" fill="#FFD613"/>
<path opacity="0.4" d="M221.845 206.769C224.174 206.769 226.063 209.047 226.063 211.873C226.063 214.7 224.149 216.977 221.845 216.977C219.542 216.977 217.628 214.7 217.628 211.873C217.628 209.047 219.517 206.769 221.845 206.769Z" fill="black"/>
<path d="M233.833 202.099C233.833 202.099 235.645 206.023 233.833 209.117C228.419 211.755 222.495 213.179 216.473 213.29C206.999 213.303 219.319 201.187 233.833 202.099Z" fill="#2E353A"/>
<path opacity="0.2" d="M233.833 202.099C233.833 202.099 235.645 206.023 233.833 209.117C228.419 211.755 222.495 213.179 216.473 213.29C206.999 213.303 219.319 201.187 233.833 202.099Z" fill="white"/>
<path d="M227.256 177.555C227.256 177.555 228.806 178.034 228.806 181.517C228.806 183.636 226.656 185.767 226.656 185.767C226.656 185.767 223.204 177.441 227.256 177.555Z" fill="#263238"/>
<path opacity="0.7" d="M227.256 177.555C227.256 177.555 228.806 178.034 228.806 181.517C228.806 183.636 226.656 185.767 226.656 185.767C226.656 185.767 223.204 177.441 227.256 177.555Z" fill="white"/>
<path d="M220.301 176.598H227.957C227.957 176.598 229.144 178.634 226.043 181.013C222.943 183.393 220.301 176.598 220.301 176.598Z" fill="#263238"/>
<path d="M228.327 180.611C228.327 181.294 228.117 181.849 227.849 181.849C227.581 181.849 227.377 181.294 227.377 180.611C227.377 179.929 227.587 179.38 227.849 179.38C228.111 179.38 228.327 179.916 228.327 180.611Z" fill="white"/>
<path d="M184.873 189.212C184.873 191.961 173.893 211.542 172.796 212.301C171.699 213.06 157.369 212.212 157.369 212.212L158.441 216.269H197.78L214.119 184.529L203.312 168.936L183.61 169.478C183.61 169.478 184.873 186.462 184.873 189.212Z" fill="#FFD613"/>
<path opacity="0.5" d="M184.873 189.212C184.873 191.961 173.893 211.542 172.796 212.301C171.699 213.06 157.369 212.212 157.369 212.212L158.441 216.269H197.78L214.119 184.529L203.312 168.936L183.61 169.478C183.61 169.478 184.873 186.462 184.873 189.212Z" fill="white"/>
<path d="M127.428 182.774C127.428 182.774 140.226 192.587 146.351 212.76C146.693 213.915 147.399 214.929 148.363 215.651C149.327 216.373 150.499 216.764 151.704 216.767H170.633L148.66 181.039L137.068 176.216L127.428 182.774Z" fill="#FFD613"/>
<path opacity="0.2" d="M125.909 181.645C125.909 181.645 140.067 192.491 146.325 212.799C146.672 213.947 147.379 214.954 148.342 215.671C149.304 216.388 150.472 216.776 151.672 216.78H170.614L148.641 181.052L137.049 176.228L125.909 181.645Z" fill="white"/>
<path d="M236.207 200.204C236.163 200.583 235.98 200.931 235.693 201.182C235.407 201.433 235.037 201.569 234.656 201.563H231.875C231.621 201.563 231.37 201.616 231.138 201.72C230.906 201.823 230.698 201.974 230.529 202.163L222.203 211.344C221.951 211.619 221.658 211.853 221.335 212.039C215.805 215.145 209.571 216.777 203.229 216.78H164.311C163.274 216.768 162.28 216.369 161.524 215.66C160.768 214.951 160.306 213.985 160.227 212.952C159.283 201.71 152.514 193.448 146.829 188.382C145.02 186.764 143.101 185.272 141.087 183.916C139.666 182.986 138.001 182.5 136.302 182.519H127.37C126.241 182.519 125.456 181.077 125.788 180.005C127.262 175.539 129.999 170.71 132.73 166.575C135.175 162.884 137.829 159.335 140.679 155.946H153.203C153.838 155.956 154.461 156.122 155.018 156.429C155.574 156.736 156.046 157.175 156.393 157.707C157.038 158.62 157.306 159.747 157.139 160.853C156.373 166.008 156.318 171.243 156.974 176.413C158.766 191.687 165.561 205.576 169.096 211.899C169.713 213.032 170.617 213.982 171.718 214.654C172.819 215.326 174.078 215.696 175.367 215.727H185.103C192.217 213.685 197.716 193.767 197.716 188.567C197.716 183.068 192.121 169.734 192.121 169.734H220.002V176.362C220.512 176.42 220.257 176.49 220.423 176.567C231.103 180.854 234.829 191.808 236.156 198.182C236.277 198.849 236.294 199.532 236.207 200.204Z" fill="#FFD613"/>
<path opacity="0.7" d="M220.372 176.598C220.206 176.522 220.461 176.452 219.951 176.394V169.765H192.07C192.07 169.765 197.665 183.1 197.665 188.599C197.665 193.799 192.166 213.711 185.052 215.753H175.316C174.026 215.722 172.768 215.352 171.667 214.68C170.566 214.008 169.661 213.058 169.045 211.925C165.497 205.602 158.703 191.713 156.923 176.433C156.264 171.265 156.319 166.031 157.088 160.878C157.251 159.773 156.984 158.647 156.342 157.733C155.994 157.201 155.522 156.763 154.966 156.456C154.41 156.149 153.787 155.983 153.152 155.972H140.628C137.787 159.361 135.141 162.91 132.704 166.601C129.973 170.735 127.236 175.533 125.763 180.031C125.412 181.103 126.216 182.545 127.345 182.545H136.277C137.975 182.523 139.642 183.01 141.062 183.942C143.076 185.297 144.994 186.789 146.804 188.408C152.501 193.474 159.277 201.742 160.202 212.977C160.281 214.01 160.745 214.975 161.5 215.684C162.256 216.392 163.249 216.792 164.285 216.805H196.657V204.454C196.658 200.855 197.448 197.301 198.973 194.041L203.579 184.178C204.634 181.921 206.311 180.011 208.413 178.674C210.515 177.337 212.955 176.628 215.446 176.63H219.759L220.257 176.598C221.386 177.026 221.418 177.02 220.372 176.598Z" fill="white"/>
<path d="M147.378 151.844H150.944C151.885 151.843 152.796 151.521 153.528 150.932L160.885 144.979C161.174 144.743 161.537 144.614 161.912 144.615H176.088C176.359 144.615 176.618 144.508 176.81 144.317C177.001 144.125 177.109 143.865 177.109 143.595C177.109 143.324 177.001 143.064 176.81 142.873C176.618 142.681 176.359 142.574 176.088 142.574H161.937C161.094 142.572 160.277 142.861 159.621 143.391L152.265 149.343C151.903 149.635 151.454 149.797 150.989 149.802H147.378C146.882 149.8 146.403 149.62 146.028 149.294C145.654 148.969 145.408 148.52 145.336 148.029L145.011 145.732C144.883 144.857 144.444 144.056 143.776 143.477C143.107 142.897 142.253 142.577 141.368 142.574H138.682C138.411 142.574 138.152 142.681 137.96 142.873C137.769 143.064 137.661 143.324 137.661 143.595C137.661 143.865 137.769 144.125 137.96 144.317C138.152 144.508 138.411 144.615 138.682 144.615H141.368C141.761 144.617 142.141 144.76 142.438 145.017C142.735 145.275 142.931 145.63 142.989 146.019L143.314 148.316C143.457 149.293 143.946 150.186 144.692 150.833C145.438 151.481 146.391 151.839 147.378 151.844Z" fill="#2E353A"/>
<path d="M156.342 154.568L154.747 157.12H139.907L138.746 154.926C138.557 154.575 138.485 154.174 138.541 153.78C138.597 153.386 138.779 153.02 139.058 152.737L143.467 148.227C143.632 148.055 143.821 147.909 144.029 147.793C144.135 147.733 144.246 147.681 144.36 147.64C144.641 147.531 144.94 147.474 145.241 147.474H153.701C153.701 147.474 153.656 149.892 155.914 149.739L156.655 152.354C156.76 152.725 156.787 153.113 156.733 153.495C156.68 153.876 156.546 154.242 156.342 154.568Z" fill="#263238"/>
<path opacity="0.4" d="M148.112 150.734L143.384 150.568L144.022 147.805C144.128 147.745 144.239 147.694 144.354 147.652C144.635 147.543 144.933 147.487 145.234 147.486H152.61L148.112 150.734Z" fill="white"/>
<path d="M181.115 169.07V170.984C181.115 172.726 182.545 173.855 184.305 173.855H218.834C220.582 173.855 221.986 172.726 221.986 170.984V169.07C221.986 167.328 220.582 166.199 218.834 166.199H184.286C182.545 166.193 181.115 167.322 181.115 169.07Z" fill="#2E353A"/>
<path opacity="0.1" d="M192.357 169.07V170.984C192.338 171.372 192.401 171.76 192.543 172.122C192.685 172.483 192.903 172.811 193.181 173.082C193.459 173.354 193.791 173.563 194.156 173.696C194.521 173.829 194.911 173.884 195.298 173.855H218.834C220.582 173.855 221.986 172.726 221.986 170.984V169.07C221.986 167.328 220.582 166.199 218.834 166.199H195.292C194.905 166.172 194.516 166.226 194.152 166.36C193.788 166.494 193.456 166.703 193.179 166.974C192.901 167.246 192.685 167.573 192.543 167.934C192.401 168.295 192.338 168.682 192.357 169.07Z" fill="white"/>
<path d="M167.848 135.671L162.313 142.907L163.124 143.528L168.659 136.291L167.848 135.671Z" fill="#2E353A"/>
<path d="M171.175 134.765H168.572C168.3 134.764 168.034 134.843 167.807 134.993C167.58 135.143 167.402 135.356 167.296 135.607L166.945 136.417C166.859 136.627 166.825 136.856 166.847 137.082C166.869 137.308 166.947 137.525 167.073 137.715C167.199 137.904 167.37 138.059 167.57 138.167C167.77 138.274 167.994 138.331 168.221 138.331H171.061C171.393 138.331 171.714 138.211 171.965 137.993C172.216 137.775 172.38 137.474 172.426 137.145L172.547 136.334C172.572 136.139 172.556 135.94 172.499 135.752C172.441 135.563 172.345 135.389 172.215 135.24C172.085 135.092 171.926 134.973 171.746 134.891C171.567 134.809 171.373 134.766 171.175 134.765Z" fill="#263238"/>
<path d="M141.843 136.786L140.844 136.997L142.207 143.471L143.206 143.261L141.843 136.786Z" fill="#2E353A"/>
<path d="M138.287 134.765H141.094C141.368 134.766 141.633 134.866 141.84 135.047C142.048 135.227 142.183 135.476 142.223 135.747L142.408 137.023C142.427 137.183 142.412 137.345 142.364 137.499C142.316 137.652 142.236 137.794 142.129 137.914C142.022 138.035 141.892 138.131 141.745 138.198C141.599 138.264 141.44 138.299 141.279 138.299H138.446C138.172 138.299 137.907 138.2 137.7 138.021C137.493 137.842 137.357 137.594 137.317 137.323L137.132 136.047C137.113 135.885 137.128 135.721 137.178 135.565C137.227 135.409 137.31 135.266 137.419 135.145C137.528 135.023 137.662 134.927 137.812 134.861C137.961 134.796 138.123 134.763 138.287 134.765Z" fill="#263238"/>
<path d="M156.693 163.966C156.417 166.987 156.382 170.025 156.591 173.051C156.667 174.2 156.776 175.329 156.91 176.458L152.412 185.02C151.88 186.04 151.078 186.895 150.093 187.491C149.109 188.088 147.98 188.402 146.829 188.401H146.772C146.556 188.176 146.328 187.964 146.089 187.763C144.531 186.426 142.894 185.182 141.189 184.038C139.734 183.064 138.021 182.546 136.27 182.551H127.338C126.209 182.551 125.424 181.109 125.756 180.037C127.23 175.571 129.967 170.742 132.698 166.607C132.767 171.435 132.402 176.258 131.607 181.02H135.894C135.894 181.02 143.741 169.899 150.415 167.756L156.336 157.739C156.981 158.652 157.248 159.779 157.082 160.885C156.948 161.899 156.789 162.92 156.693 163.966Z" fill="#FFD613"/>
<path opacity="0.5" d="M156.693 163.966C156.417 166.987 156.382 170.025 156.591 173.051C156.667 174.2 156.776 175.329 156.91 176.458L152.412 185.02C151.88 186.04 151.078 186.895 150.093 187.491C149.109 188.088 147.98 188.402 146.829 188.401H146.772C146.556 188.176 146.328 187.964 146.089 187.763C144.531 186.426 142.894 185.182 141.189 184.038C139.734 183.064 138.021 182.546 136.27 182.551H127.338C126.209 182.551 125.424 181.109 125.756 180.037C127.23 175.571 129.967 170.742 132.698 166.607C132.767 171.435 132.402 176.258 131.607 181.02H135.894C135.894 181.02 143.741 169.899 150.415 167.756L156.336 157.739C156.981 158.652 157.248 159.779 157.082 160.885C156.948 161.899 156.789 162.92 156.693 163.966Z" fill="white"/>
<path d="M131.588 169.67C131.811 172.846 131.416 176.035 130.426 179.061H126.739C126.739 179.061 129.131 172.547 131.588 169.67Z" fill="#FFD613"/>
<path opacity="0.7" d="M131.588 169.67C131.811 172.846 131.416 176.035 130.426 179.061H126.739C126.739 179.061 129.131 172.547 131.588 169.67Z" fill="white"/>
<path d="M149.03 169.67C149.152 169.6 145.324 179.744 145.324 179.744H139.722C141.838 175.593 145.059 172.106 149.03 169.67Z" fill="#FFD613"/>
<path opacity="0.7" d="M149.03 169.67C149.152 169.6 145.324 179.744 145.324 179.744H139.722C141.838 175.593 145.059 172.106 149.03 169.67Z" fill="white"/>
<path d="M145.7 176.968C145.7 178.244 144.909 179.246 143.933 179.246C142.957 179.246 142.166 178.232 142.166 176.968C142.166 175.705 142.957 174.691 143.933 174.691C144.909 174.691 145.7 175.712 145.7 176.968Z" fill="white"/>
<path d="M130.854 176.209C130.854 177.485 130.299 178.487 129.61 178.487C128.921 178.487 128.334 177.466 128.334 176.209C128.334 174.952 128.889 173.932 129.61 173.932C130.331 173.932 130.854 174.952 130.854 176.209Z" fill="white"/>
<path d="M147.327 173.536C147.285 173.698 147.199 173.845 147.078 173.96C146.956 174.075 146.805 174.154 146.642 174.188C146.478 174.221 146.308 174.208 146.151 174.15C145.994 174.092 145.857 173.991 145.755 173.858C145.653 173.726 145.59 173.567 145.573 173.401C145.557 173.235 145.587 173.067 145.661 172.917C145.735 172.767 145.85 172.641 145.992 172.553C146.134 172.465 146.299 172.419 146.466 172.42C146.727 172.456 146.963 172.593 147.124 172.802C147.285 173.011 147.358 173.274 147.327 173.536Z" fill="white"/>
<path d="M131.32 172.955C131.32 173.593 131.052 174.072 130.726 174.072C130.401 174.072 130.133 173.574 130.133 172.955C130.133 172.337 130.394 171.845 130.726 171.845C131.058 171.845 131.32 172.343 131.32 172.955Z" fill="white"/>
<path d="M148.443 157.695C148.443 157.695 145.789 174.385 137.03 174.506C128.825 174.614 128.059 158.939 135.888 156.527C142.217 154.581 148.443 157.695 148.443 157.695Z" fill="#FFD613"/>
<path d="M148.443 157.695C148.443 157.695 145.789 174.385 137.03 174.506C128.825 174.614 128.059 158.939 135.888 156.527C142.217 154.581 148.443 157.695 148.443 157.695Z" fill="#263238"/>
<path d="M143.038 166.102C143.545 161.883 141.271 158.14 137.958 157.741C134.645 157.343 131.548 160.44 131.04 164.659C130.533 168.878 132.807 172.621 136.12 173.02C139.433 173.418 142.53 170.321 143.038 166.102Z" fill="#FFD613"/>
<path opacity="0.7" d="M143.038 166.102C143.545 161.883 141.271 158.14 137.958 157.741C134.645 157.343 131.548 160.44 131.04 164.659C130.533 168.878 132.807 172.621 136.12 173.02C139.433 173.418 142.53 170.321 143.038 166.102Z" fill="white"/>
<path d="M138.523 167.373C138.523 169.249 137.342 170.767 135.888 170.767C134.433 170.767 133.253 169.249 133.253 167.373C133.253 165.497 134.433 163.966 135.894 163.966C137.355 163.966 138.523 165.497 138.523 167.373Z" fill="white"/>
<path d="M140.749 162.958C140.686 163.204 140.555 163.428 140.371 163.603C140.187 163.779 139.957 163.899 139.708 163.951C139.459 164.002 139.2 163.983 138.962 163.894C138.723 163.806 138.514 163.653 138.359 163.452C138.203 163.251 138.107 163.01 138.081 162.757C138.055 162.504 138.101 162.249 138.213 162.021C138.325 161.792 138.499 161.6 138.715 161.466C138.931 161.332 139.181 161.261 139.435 161.261C139.831 161.318 140.19 161.527 140.435 161.844C140.68 162.16 140.793 162.56 140.749 162.958Z" fill="white"/>
<path d="M235.754 196.689H233.144C232.925 196.691 232.716 196.779 232.562 196.934C232.408 197.09 232.321 197.3 232.321 197.518V198.979C232.321 199.198 232.408 199.408 232.562 199.564C232.716 199.719 232.925 199.807 233.144 199.809H236.239C236.378 199.284 236.406 198.735 236.323 198.198C236.239 197.661 236.046 197.147 235.754 196.689Z" fill="#FFD613"/>
<path opacity="0.7" d="M235.754 196.689H233.144C232.925 196.691 232.716 196.779 232.562 196.934C232.408 197.09 232.321 197.3 232.321 197.518V198.979C232.321 199.198 232.408 199.408 232.562 199.564C232.716 199.719 232.925 199.807 233.144 199.809H236.239C236.378 199.284 236.406 198.735 236.323 198.198C236.239 197.661 236.046 197.147 235.754 196.689Z" fill="white"/>
<path d="M168.662 142.555C168.662 142.555 168.579 142.051 167.264 142.051C165.95 142.051 165.491 143.965 165.491 143.965L166.014 145.572H167.794L168.655 145.266C168.655 145.266 171.909 146.108 172.203 146.644C172.496 147.18 172.968 147.282 172.841 146.644C172.713 146.006 169.185 144.577 169.185 144.577L168.662 142.555Z" fill="#2E353A"/>
<path d="M142.421 142.701C142.327 142.509 142.181 142.347 141.999 142.234C141.817 142.122 141.607 142.062 141.394 142.063C141.244 142.042 141.092 142.052 140.947 142.093C140.802 142.134 140.667 142.204 140.551 142.301C140.435 142.397 140.341 142.516 140.274 142.651C140.207 142.786 140.169 142.934 140.162 143.084C140.124 143.479 140.124 143.876 140.162 144.271L139.435 144.839C139.435 144.839 137.215 145.885 137.03 146.032C136.845 146.179 136.755 146.772 137.144 146.714C137.747 146.439 138.318 146.098 138.848 145.7C139.448 145.415 140.098 145.251 140.762 145.215L142.108 144.392L142.421 142.701Z" fill="#2E353A"/>
<path d="M131.855 182.838L123.013 211.631L125.259 213.022L134.133 185.077L131.855 182.838Z" fill="#FFD613"/>
<path opacity="0.6" d="M131.855 182.838L123.013 211.631L125.259 213.022L134.133 185.077L131.855 182.838Z" fill="white"/>
<path d="M135.537 182.545L131.849 194.38H131.154C129.878 192.842 128.742 192.963 128.742 192.963L128.283 192.287L131.077 182.545H135.537Z" fill="#2E353A"/>
<path d="M126.407 211.216C126.407 212.703 125.558 213.915 124.493 213.915C123.428 213.915 122.579 212.703 122.579 211.216C122.579 209.73 123.428 208.518 124.493 208.518C125.558 208.518 126.407 209.723 126.407 211.216Z" fill="#2E353A"/>
<path d="M128.251 231.384C137.113 231.384 144.296 222.714 144.296 212.02C144.296 201.326 137.113 192.657 128.251 192.657C119.389 192.657 112.205 201.326 112.205 212.02C112.205 222.714 119.389 231.384 128.251 231.384Z" fill="#2E353A"/>
<path opacity="0.4" d="M128.251 231.384C137.113 231.384 144.296 222.714 144.296 212.02C144.296 201.326 137.113 192.657 128.251 192.657C119.389 192.657 112.205 201.326 112.205 212.02C112.205 222.714 119.389 231.384 128.251 231.384Z" fill="black"/>
<path d="M150.485 210.381H146.657C146.149 210.372 145.653 210.229 145.219 209.966C144.785 209.702 144.429 209.328 144.188 208.881C142.197 205.155 136.411 195.598 128.27 193.244C118.1 190.303 133.801 188.542 139.454 192.606C145.107 196.67 150.485 210.381 150.485 210.381Z" fill="#263238"/>
<path opacity="0.4" d="M150.485 210.381H146.657C146.149 210.372 145.653 210.229 145.219 209.966C144.785 209.702 144.429 209.328 144.188 208.881C142.197 205.155 136.411 195.598 128.27 193.244C118.1 190.303 133.801 188.542 139.454 192.606C145.107 196.67 150.485 210.381 150.485 210.381Z" fill="black"/>
<path d="M130.937 224.232C136.525 224.232 141.055 218.764 141.055 212.02C141.055 205.276 136.525 199.809 130.937 199.809C125.348 199.809 120.818 205.276 120.818 212.02C120.818 218.764 125.348 224.232 130.937 224.232Z" fill="black"/>
<path d="M133.265 206.769C135.594 206.769 137.476 209.047 137.476 211.873C137.476 214.7 135.594 216.977 133.265 216.977C130.937 216.977 129.048 214.7 129.048 211.873C129.048 209.047 130.937 206.769 133.265 206.769Z" fill="#FFD613"/>
<path opacity="0.4" d="M133.265 206.769C135.594 206.769 137.476 209.047 137.476 211.873C137.476 214.7 135.594 216.977 133.265 216.977C130.937 216.977 129.048 214.7 129.048 211.873C129.048 209.047 130.937 206.769 133.265 206.769Z" fill="black"/>
<path d="M115.287 199.898H117.073C118.553 199.894 119.992 199.41 121.175 198.52C123.944 196.447 129.801 192.97 135.888 194.986C142.906 197.321 147.716 206.559 149.082 209.487C149.205 209.755 149.403 209.982 149.652 210.14C149.901 210.299 150.19 210.382 150.485 210.381C150.485 210.381 148.271 192.287 135.894 187.368C123.881 182.596 115.746 192.638 113.992 198.118C113.926 198.322 113.91 198.539 113.944 198.751C113.979 198.962 114.062 199.163 114.188 199.336C114.314 199.509 114.48 199.651 114.67 199.748C114.861 199.846 115.072 199.897 115.287 199.898Z" fill="#FFD613"/>
<path opacity="0.5" d="M115.287 199.898H117.073C118.553 199.894 119.992 199.41 121.175 198.52C123.944 196.447 129.801 192.97 135.888 194.986C142.906 197.321 147.716 206.559 149.082 209.487C149.205 209.755 149.403 209.982 149.652 210.14C149.901 210.299 150.19 210.382 150.485 210.381C150.485 210.381 148.271 192.287 135.894 187.368C123.881 182.596 115.746 192.638 113.992 198.118C113.926 198.322 113.91 198.539 113.944 198.751C113.979 198.962 114.062 199.163 114.188 199.336C114.314 199.509 114.48 199.651 114.67 199.748C114.861 199.846 115.072 199.897 115.287 199.898Z" fill="white"/>
<path d="M144.048 186.098L141.419 194.392L135.498 213.035L133.246 211.644L138.988 192.976L141.636 184.331C142.351 184.822 143.161 185.409 144.048 186.098Z" fill="#FFD613"/>
<path opacity="0.6" d="M144.048 186.098L141.419 194.392L135.498 213.035L133.246 211.644L138.988 192.976L141.636 184.331C142.351 184.822 143.161 185.409 144.048 186.098Z" fill="white"/>
<path d="M144.552 186.487L142.089 194.38H141.394C140.118 192.842 138.982 192.963 138.982 192.963L138.523 192.287L140.934 183.872C140.977 183.89 141.018 183.914 141.055 183.942L141.636 184.331C142.351 184.822 143.161 185.409 144.048 186.098L144.552 186.487Z" fill="#2E353A"/>
<path d="M136.647 211.216C136.647 212.703 135.798 213.915 134.733 213.915C133.667 213.915 132.819 212.703 132.819 211.216C132.819 209.73 133.667 208.518 134.733 208.518C135.798 208.518 136.647 209.723 136.647 211.216Z" fill="#2E353A"/>
<path opacity="0.5" d="M236.207 200.204C236.163 200.583 235.98 200.931 235.693 201.182C235.407 201.433 235.037 201.569 234.656 201.563H231.875C231.621 201.563 231.37 201.616 231.138 201.72C230.906 201.823 230.698 201.974 230.529 202.163L222.203 211.344C221.951 211.619 221.658 211.853 221.335 212.039C215.805 215.145 209.571 216.777 203.229 216.78H196.708V204.46C196.706 200.86 197.494 197.303 199.018 194.041L203.624 184.184C204.678 181.926 206.354 180.015 208.456 178.677C210.558 177.339 212.999 176.629 215.491 176.63H219.804L220.301 176.598C224.403 178.27 227.931 181.096 230.458 184.733C230.714 185.077 230.956 185.435 231.192 185.792C231.951 186.967 232.629 188.193 233.221 189.461C233.715 190.5 234.153 191.565 234.535 192.651C235.191 194.463 235.715 196.32 236.105 198.208C236.24 198.864 236.275 199.537 236.207 200.204Z" fill="white"/>
<path d="M195.738 150.944C195.584 151.174 195.465 151.425 195.388 151.691C195.292 152.029 195.203 152.374 195.113 152.718C194.341 155.768 193.805 159.289 194.935 162.32C195.407 163.596 196.517 165.414 197.914 165.829C198.954 166.142 200.466 165.912 201.57 165.944L205.462 166.059C205.716 166.084 205.973 166.054 206.214 165.969C206.46 165.833 206.668 165.638 206.82 165.402C207.524 164.466 208.18 163.495 208.786 162.492C209.463 161.472 209.944 160.334 210.202 159.136C210.389 157.658 210.157 156.157 209.532 154.804C208.855 152.96 207.531 151.425 205.806 150.485C205.331 150.269 204.838 150.094 204.332 149.962C202.246 149.381 197.282 148.75 195.738 150.944Z" fill="#FFD613"/>
<path opacity="0.4" d="M195.738 150.944C195.584 151.174 195.465 151.425 195.388 151.691C195.292 152.029 195.203 152.374 195.113 152.718C194.341 155.768 193.805 159.289 194.935 162.32C195.407 163.596 196.517 165.414 197.914 165.829C198.954 166.142 200.466 165.912 201.57 165.944L205.462 166.059C205.716 166.084 205.973 166.054 206.214 165.969C206.46 165.833 206.668 165.638 206.82 165.402C207.524 164.466 208.18 163.495 208.786 162.492C209.463 161.472 209.944 160.334 210.202 159.136C210.389 157.658 210.157 156.157 209.532 154.804C208.855 152.96 207.531 151.425 205.806 150.485C205.331 150.269 204.838 150.094 204.332 149.962C202.246 149.381 197.282 148.75 195.738 150.944Z" fill="black"/>
<path d="M208.141 149.764C208.141 149.764 201.991 147.372 197.072 150.243C192.153 153.114 203.988 155.347 203.988 155.347L201.366 153.267C201.366 153.267 204.811 155.232 206.546 155.091L208.141 149.764Z" fill="#263238"/>
<path d="M195.049 162.754C195.165 163.365 195.454 163.931 195.881 164.383C196.309 164.835 196.857 165.156 197.461 165.306C200.287 165.944 204.875 163.698 204.875 163.698L205.117 164.974C205.117 164.974 200.587 166.977 197.461 166.288C195.815 165.912 194.59 163.845 195.049 162.754Z" fill="#263238"/>
<path d="M198.546 166.416L198.38 165.408C197.935 165.138 197.46 164.924 196.963 164.77C196.662 164.695 196.346 164.695 196.045 164.77C196.021 165.049 196.079 165.329 196.213 165.575C196.347 165.821 196.55 166.023 196.798 166.154C197.353 166.373 197.951 166.463 198.546 166.416Z" fill="#263238"/>
<path opacity="0.5" d="M198.546 166.416L198.38 165.408C197.935 165.138 197.46 164.924 196.963 164.77C196.662 164.695 196.346 164.695 196.045 164.77C196.021 165.049 196.079 165.329 196.213 165.575C196.347 165.821 196.55 166.023 196.798 166.154C197.353 166.373 197.951 166.463 198.546 166.416Z" fill="white"/>
<path d="M212.543 162.99C210.381 166.091 206.757 167.89 204.766 165.58C202.776 163.271 205.615 154.638 205.615 154.638C200.989 151.844 195.445 152.271 195.445 152.271C195.828 148.845 200.255 145.305 208.001 148.329C209.164 148.741 210.231 149.387 211.136 150.226C212.041 151.065 212.765 152.081 213.264 153.209C213.369 153.439 213.458 153.676 213.532 153.918C213.704 154.396 213.832 154.89 213.915 155.391C214.015 155.952 214.069 156.519 214.075 157.088C214.162 159.164 213.629 161.219 212.543 162.99Z" fill="#FFD613"/>
<path d="M195.649 150.881C199.423 150.506 203.222 151.268 206.559 153.069C206.872 154.043 207.105 155.042 207.254 156.055C207.254 156.744 193.486 153.835 192.797 152.922C192.108 152.01 194.781 152.08 194.781 152.08L195.649 150.881Z" fill="#263238"/>
<path d="M247.206 103.439C247.104 105.902 248.118 109.883 250.039 111.165C250.039 111.165 248.763 113.813 244.297 114.623C239.403 115.516 241.585 112.639 241.585 112.639C244.137 111.516 243.78 109.564 243.033 107.803L247.206 103.439Z" fill="#E4897B"/>
<path d="M236.915 101.385C236.998 101.697 236.915 102.023 236.685 102.067C236.456 102.112 236.245 101.914 236.162 101.595C236.079 101.276 236.162 100.957 236.392 100.919C236.621 100.881 236.832 101.066 236.915 101.385Z" fill="#263238"/>
<path d="M236.487 100.906H235.671C235.671 100.906 236.213 101.391 236.487 100.906Z" fill="#263238"/>
<path d="M236.698 101.767C236.591 102.575 236.376 103.364 236.06 104.115C236.254 104.183 236.461 104.207 236.666 104.187C236.871 104.168 237.069 104.104 237.247 104L236.698 101.767Z" fill="#A02724"/>
<path d="M235.951 99.394C235.981 99.3984 236.011 99.3984 236.041 99.394C236.243 99.253 236.474 99.1606 236.718 99.124C236.961 99.0875 237.21 99.1079 237.444 99.1835C237.492 99.203 237.545 99.2028 237.592 99.1831C237.639 99.1633 237.677 99.1256 237.696 99.0782C237.716 99.0308 237.716 98.9777 237.696 98.9304C237.676 98.8832 237.639 98.8457 237.591 98.8262C237.298 98.7269 236.986 98.6971 236.679 98.7391C236.372 98.7812 236.08 98.894 235.824 99.0687C235.803 99.0828 235.785 99.1009 235.771 99.1221C235.757 99.1433 235.747 99.167 235.742 99.192C235.738 99.2169 235.738 99.2425 235.743 99.2674C235.748 99.2922 235.758 99.3157 235.773 99.3366C235.795 99.3612 235.823 99.3796 235.854 99.3897C235.886 99.3997 235.919 99.4013 235.951 99.394Z" fill="#263238"/>
<path d="M247.333 97.4864C248.086 101.448 248.488 103.107 247.027 105.666C244.826 109.494 239.786 109.717 237.866 106.099C236.137 102.839 235.199 96.9122 238.625 94.2709C239.351 93.679 240.22 93.2868 241.144 93.133C242.069 92.9791 243.017 93.0689 243.897 93.3936C244.776 93.7182 245.555 94.2664 246.158 94.9842C246.761 95.7019 247.166 96.5643 247.333 97.4864Z" fill="#E4897B"/>
<path d="M248.82 94.3156C247.129 91.4127 245.183 89.8496 239.684 91.4127C235.556 92.5866 232.028 98.4307 238.733 101.774C238.733 101.774 240.647 104.485 242.81 105.474C244.973 106.463 245.56 106.75 247.831 105.41C249.681 104.3 251.41 98.7624 248.82 94.3156Z" fill="#263238"/>
<path d="M239.646 101.046C239.872 101.763 239.872 102.531 239.646 103.248C239.346 104.249 238.58 104.281 238.153 103.611C237.897 103.215 237.749 102.759 237.724 102.288C237.698 101.817 237.795 101.347 238.006 100.925C238.555 100.115 239.358 100.262 239.646 101.046Z" fill="#E4897B"/>
<path d="M246.721 92.5993C246.721 92.5993 247.072 89.0584 250.255 89.0393C253.439 89.0202 255.997 92.2293 256.246 97.8501C256.495 103.471 262.964 101.308 264.54 102.38C266.116 103.452 266.199 104.613 266.199 104.613C265.968 104.142 265.589 103.758 265.121 103.521C264.652 103.284 264.119 103.206 263.602 103.299C263.938 103.399 264.238 103.594 264.464 103.862C264.691 104.129 264.835 104.457 264.878 104.804C264.461 104.499 263.943 104.364 263.43 104.428C263.43 104.428 263.985 105.997 260.291 106.099C256.597 106.202 252.252 105.461 249.802 99.7577C247.353 94.054 246.721 92.5993 246.721 92.5993Z" fill="#263238"/>
<path d="M261.58 100.715C260.756 100.72 259.946 100.499 259.239 100.077C257.963 99.2983 257.088 97.8628 256.687 95.8149C256.1 93.0651 254.996 91.3106 253.394 90.6024C251.161 89.6135 248.692 91.0299 248.667 91.0426C248.649 91.0587 248.627 91.0705 248.603 91.0772C248.58 91.084 248.555 91.0855 248.531 91.0816C248.507 91.0778 248.484 91.0687 248.464 91.0549C248.444 91.0412 248.427 91.0232 248.415 91.0022C248.402 90.9812 248.395 90.9578 248.392 90.9335C248.39 90.9092 248.393 90.8848 248.401 90.8618C248.41 90.8389 248.423 90.818 248.44 90.8008C248.457 90.7835 248.478 90.7702 248.501 90.7619C248.609 90.6981 251.136 89.2435 253.522 90.3025C255.226 91.0554 256.399 92.8864 257.006 95.7511C257.414 97.7033 258.231 99.0623 259.43 99.796C260.372 100.343 261.486 100.516 262.55 100.281C262.592 100.269 262.637 100.275 262.676 100.296C262.714 100.318 262.742 100.353 262.754 100.396C262.76 100.416 262.761 100.438 262.759 100.459C262.756 100.48 262.749 100.5 262.738 100.519C262.728 100.537 262.713 100.553 262.696 100.566C262.679 100.579 262.66 100.588 262.639 100.593C262.293 100.682 261.937 100.723 261.58 100.715Z" fill="#263238"/>
<path d="M240.226 101.659C238.581 101.644 236.989 101.073 235.709 100.038C235.254 99.6852 234.885 99.2338 234.628 98.7179C234.372 98.202 234.236 97.635 234.229 97.059C234.229 93.869 237.853 93.4606 237.885 93.4543C237.908 93.4477 237.932 93.4463 237.956 93.4501C237.979 93.4538 238.002 93.4627 238.022 93.476C238.042 93.4893 238.059 93.5068 238.071 93.5273C238.084 93.5478 238.092 93.5707 238.095 93.5945C238.097 93.6184 238.095 93.6425 238.087 93.6653C238.08 93.6881 238.068 93.709 238.051 93.7266C238.035 93.7442 238.015 93.7581 237.993 93.7672C237.971 93.7764 237.947 93.7806 237.923 93.7796C237.789 93.7796 234.58 94.1816 234.554 97.0653C234.565 97.5924 234.693 98.1105 234.929 98.5819C235.165 99.0532 235.504 99.4658 235.92 99.7896C236.64 100.369 237.469 100.798 238.357 101.051C239.246 101.304 240.177 101.376 241.094 101.263C241.137 101.258 241.18 101.268 241.216 101.293C241.251 101.318 241.276 101.355 241.285 101.397C241.291 101.439 241.28 101.482 241.255 101.517C241.23 101.551 241.193 101.575 241.151 101.582C240.846 101.634 240.536 101.659 240.226 101.659Z" fill="#263238"/>
<path d="M231.556 147.091C231.556 147.091 234.867 137.106 238.038 130.343L238.618 131.377C238.618 131.377 233.616 143.869 233.227 146.638L231.556 147.091Z" fill="#263238"/>
<path opacity="0.2" d="M231.556 147.091C231.556 147.091 234.867 137.106 238.038 130.343L238.618 131.377C238.618 131.377 233.616 143.869 233.227 146.638L231.556 147.091Z" fill="white"/>
<path d="M259.098 113.755C259.328 114.955 259.577 116.25 259.864 117.488C260.151 118.725 260.425 119.989 260.757 121.214C261.378 123.642 262.189 126.019 263.181 128.321L266.512 135.467L268.151 139.084C268.675 140.303 269.217 141.508 269.721 142.74L267.577 143.901C266.824 142.804 266.11 141.687 265.382 140.571L263.271 137.196C261.88 134.924 260.527 132.666 259.226 130.286C257.917 127.818 256.865 125.223 256.087 122.541C255.698 121.226 255.334 119.906 255.021 118.579C254.709 117.252 254.447 115.937 254.237 114.521L259.098 113.755Z" fill="#DC897C"/>
<path d="M269.523 142.548C269.523 142.548 271.731 145.675 271.788 146.096C271.845 146.517 271.973 148.386 271.833 148.431C271.692 148.475 268.981 148.756 268.981 148.756L267.322 145.891C267.322 145.891 266.875 144.092 267.252 143.103L269.523 142.548Z" fill="#E4897B"/>
<path d="M238.459 118.796C237.821 120.072 237.183 121.246 236.507 122.439C235.83 123.632 235.077 124.767 234.312 125.909C232.781 128.238 231.015 130.404 229.042 132.372C227.09 134.286 225.131 136.015 223.128 137.776L220.11 140.36C219.083 141.202 218.068 142.063 217.022 142.912L215.319 141.164C216.167 140.137 217.041 139.148 217.909 138.14L220.544 135.167L225.846 129.329C227.477 127.426 228.955 125.397 230.267 123.262C230.956 122.177 231.594 121.067 232.232 119.944C232.87 118.821 233.508 117.679 234.069 116.607L238.459 118.796Z" fill="#DC897C"/>
<path d="M215.548 140.998C215.548 140.998 212.518 143.327 212.358 143.71C212.199 144.092 211.503 145.847 211.625 145.93C211.746 146.013 214.253 147.091 214.253 147.091L216.665 144.839C216.665 144.839 217.628 143.25 217.558 142.197L215.548 140.998Z" fill="#E4897B"/>
<path d="M257.114 112.109C259.264 112.365 261.752 119.185 261.752 119.185L255.155 121.89C255.155 121.89 252.048 111.51 257.114 112.109Z" fill="#FFD613"/>
<path d="M254.383 136.806L237.751 137.444C233.623 113.794 235.562 113.347 235.562 113.347C236.849 112.894 238.161 112.517 239.492 112.218L239.728 112.173C240.819 111.956 241.043 111.931 242.491 111.746C244.954 111.554 247.238 111.439 250.039 111.471H250.574C251.085 111.471 251.583 111.51 252.061 111.535L253.024 111.605L254.071 111.714C255.851 111.899 257.114 112.122 257.114 112.122C254.001 125.986 254.045 130.114 254.383 136.806Z" fill="#263238"/>
<path opacity="0.2" d="M237.763 120.665C237.861 123.087 237.32 125.492 236.194 127.638C235.556 123.038 235.243 119.919 235.154 117.8C236.411 117.832 237.668 118.438 237.763 120.665Z" fill="black"/>
<path d="M246.3 195.005C242.089 211.05 234.178 230.095 234.178 230.095L231.422 229.042L239.467 195.03L246.3 195.005Z" fill="#EEC1BB"/>
<path d="M235.62 228.519C235.703 228.155 231.211 227.358 231.211 227.358C231.211 227.358 227.817 229.457 225.029 229.431C222.241 229.406 223.319 231.345 226.305 232.073L233.604 233.859C235.671 234.369 234.784 232.264 235.62 228.519Z" fill="#263238"/>
<path d="M228.614 227.919C228.474 227.894 228.346 227.822 228.251 227.715C228.199 227.642 228.171 227.555 228.171 227.466C228.171 227.377 228.199 227.29 228.251 227.217C228.317 227.1 228.427 227.013 228.557 226.975C228.903 226.926 229.256 226.972 229.578 227.109C229.265 226.835 229.004 226.522 229.048 226.286C229.093 226.05 229.208 226.031 229.431 225.986C229.53 225.964 229.632 225.963 229.731 225.984C229.83 226.005 229.924 226.047 230.005 226.107C230.384 226.546 230.608 227.098 230.643 227.677C230.646 227.691 230.646 227.707 230.643 227.721C230.643 227.721 230.643 227.721 230.643 227.753C230.636 227.756 230.629 227.758 230.621 227.758C230.613 227.758 230.606 227.756 230.599 227.753C229.952 227.924 229.28 227.981 228.614 227.919ZM229.176 227.237C228.998 227.19 228.811 227.19 228.634 227.237C228.599 227.243 228.566 227.257 228.537 227.278C228.508 227.299 228.484 227.326 228.468 227.358C228.385 227.517 228.423 227.581 228.468 227.6C228.634 227.817 229.501 227.772 230.222 227.658C229.888 227.483 229.538 227.342 229.176 227.237ZM229.699 226.222C229.63 226.203 229.557 226.203 229.489 226.222C229.418 226.222 229.304 226.267 229.291 226.331C229.253 226.535 229.801 227.032 230.395 227.441C230.348 227.015 230.164 226.617 229.871 226.305C229.814 226.264 229.749 226.235 229.68 226.222H229.699Z" fill="#FFD613"/>
<path d="M254.473 134.497C254.473 134.497 260.668 147.563 258.479 159.889C256.291 172.215 249.675 188.051 247.888 191.885C246.102 195.719 239.448 218.458 239.448 218.458L233.706 216.582C233.706 216.582 238.854 194.022 240.469 186.162C241.234 182.449 247.774 156.004 247.774 156.004C247.774 156.004 236.551 147.678 237.336 134.618L254.473 134.497Z" fill="#FFD613"/>
<path opacity="0.2" d="M233.687 216.582L239.429 218.458C239.429 218.458 246.089 195.726 247.876 191.885C248.794 189.913 250.989 184.752 253.209 178.532C255.296 172.675 257.401 165.867 258.46 159.889C260.649 147.557 254.454 134.497 254.454 134.497L237.336 134.618C236.539 147.652 247.755 155.978 247.755 155.978L245.203 166.301C243.289 174.161 240.883 183.98 240.443 186.137C238.835 194.016 233.687 216.582 233.687 216.582Z" fill="white"/>
<path d="M259.857 201.436C262.753 209.668 265.225 218.043 267.265 226.528L264.464 227.466L252.763 201.436H259.857Z" fill="#EEC1BB"/>
<path d="M267.379 224.397C267.207 224.072 263.245 226.311 263.245 226.311C263.245 226.311 261.969 230.095 259.806 231.856C257.644 233.617 259.717 234.408 262.454 233.093L269.236 229.82C271.15 228.876 269.134 227.811 267.379 224.397Z" fill="#263238"/>
<path d="M261.58 228.404C261.456 228.474 261.312 228.501 261.172 228.481C261.063 228.481 260.916 228.366 260.865 228.091C260.851 228.025 260.851 227.957 260.865 227.891C260.88 227.825 260.908 227.763 260.948 227.709C261.18 227.449 261.481 227.261 261.816 227.166C261.395 227.166 260.999 227.077 260.885 226.866C260.849 226.786 260.839 226.697 260.858 226.611C260.876 226.525 260.921 226.447 260.987 226.388C261.049 226.308 261.128 226.242 261.219 226.196C261.309 226.15 261.408 226.124 261.51 226.12C262.148 226.082 262.977 226.86 263.015 226.898C263.019 226.913 263.019 226.928 263.015 226.943C263.018 226.956 263.018 226.969 263.015 226.981C263.018 226.994 263.018 227.007 263.015 227.02V227.064C262.617 227.589 262.131 228.042 261.58 228.404ZM261.58 227.524C261.411 227.594 261.26 227.704 261.14 227.843C261.118 227.872 261.103 227.905 261.094 227.94C261.085 227.975 261.083 228.011 261.089 228.047C261.127 228.225 261.197 228.245 261.223 228.251C261.491 228.315 262.135 227.721 262.614 227.173C262.258 227.257 261.912 227.377 261.58 227.53V227.524ZM261.331 226.407C261.265 226.436 261.208 226.483 261.165 226.541C261.121 226.592 261.057 226.694 261.089 226.745C261.184 226.924 261.925 226.962 262.645 226.898C262.335 226.604 261.94 226.414 261.516 226.356C261.46 226.365 261.406 226.384 261.357 226.413L261.331 226.407Z" fill="#FFD613"/>
<path opacity="0.2" d="M233.687 216.582L239.429 218.458C239.429 218.458 246.089 195.726 247.876 191.885C248.794 189.913 250.989 184.752 253.209 178.532L251.161 160.706C251.161 160.706 253.611 159.27 255.143 153.745C253.802 154.894 252.149 155.616 250.396 155.819C249.758 155.863 247.767 160.061 245.196 166.327C243.282 174.187 240.877 184.006 240.437 186.162C238.835 194.016 233.687 216.582 233.687 216.582Z" fill="black"/>
<path d="M236.06 163.328C236.872 168.618 238.342 173.785 240.437 178.71C242.714 183.999 245.228 187.891 247.059 191.904C250.307 199.056 258.907 218.196 258.907 218.196L265.517 215.899C265.517 215.899 256.323 190.067 252.82 184.363C252.82 184.363 250.632 165.829 250.415 155.806C250.415 155.806 252.763 153.733 253.554 148.954C254.39 143.914 237.572 136.194 237.572 136.194C235.183 145.034 234.668 154.277 236.06 163.328Z" fill="#FFD613"/>
<path opacity="0.2" d="M236.06 163.328C236.872 168.618 238.342 173.785 240.437 178.71C242.714 183.999 245.228 187.891 247.059 191.904C250.307 199.056 258.907 218.196 258.907 218.196L265.517 215.899C265.517 215.899 256.323 190.067 252.82 184.363C252.82 184.363 250.632 165.829 250.415 155.806C250.415 155.806 252.763 153.733 253.554 148.954C254.39 143.914 237.572 136.194 237.572 136.194C235.183 145.034 234.668 154.277 236.06 163.328Z" fill="white"/>
<path d="M248.941 137.553L239.984 137.687L239.875 134.994L248.839 135.09L248.941 137.553Z" fill="#263238"/>
<path d="M239.09 134.982L239.193 137.7L238.287 137.712L238.044 134.975L239.09 134.982Z" fill="#263238"/>
<path d="M249.63 135.097L254.383 135.148L254.594 137.464L249.726 137.54L249.63 135.097Z" fill="#263238"/>
<path d="M240.079 112.084C240.079 112.084 241.03 109.136 246.319 108.256C251.608 107.375 255.123 107.28 253.337 112.684C251.551 118.087 240.079 112.084 240.079 112.084Z" fill="#FFD613"/>
<path d="M235.562 113.322C233.055 114.483 230.139 121.89 230.139 121.89L235.562 124.767L237.763 120.665C237.763 120.665 238.293 117.832 237.763 115.944C237.599 115.378 237.319 114.852 236.94 114.4C236.561 113.949 236.091 113.581 235.562 113.322Z" fill="#FFD613"/>
<path d="M254.071 111.701C254.211 122.719 243.014 144.067 243.014 144.067C243.014 144.067 236.96 146.134 232.71 144.067C232.71 144.067 230.158 148.833 230.158 149.113C230.158 149.231 230.18 149.349 230.225 149.458C230.27 149.567 230.337 149.666 230.42 149.749C230.504 149.832 230.604 149.898 230.713 149.942C230.823 149.986 230.94 150.008 231.058 150.007C231.058 150.007 228.608 156.087 231.186 157.931C233.763 159.774 242.351 159.443 243.595 157.873C244.839 156.304 244.443 145.336 244.443 145.336C244.443 145.336 254.728 125.482 255.462 111.861L254.071 111.701Z" fill="#263238"/>
<path opacity="0.2" d="M244.424 145.336C244.424 145.336 244.82 156.297 243.576 157.873C242.332 159.449 233.744 159.787 231.173 157.931C228.602 156.074 231.039 150 231.039 150C230.92 150.003 230.802 149.982 230.692 149.938C230.582 149.894 230.482 149.828 230.397 149.745C230.313 149.662 230.246 149.562 230.2 149.453C230.155 149.343 230.132 149.226 230.133 149.107C230.133 148.826 232.685 144.067 232.685 144.067C236.94 146.134 242.989 144.067 242.989 144.067C242.989 144.067 254.186 122.719 254.052 111.701L255.417 111.867C254.715 125.482 244.424 145.336 244.424 145.336Z" fill="white"/>
<path opacity="0.2" d="M243.014 144.067C243.014 144.067 241.738 150.37 239.186 150.632C236.634 150.893 231.033 149.994 231.033 149.994C230.914 149.996 230.796 149.975 230.686 149.931C230.576 149.887 230.475 149.822 230.391 149.739C230.306 149.655 230.239 149.556 230.194 149.446C230.149 149.337 230.126 149.219 230.127 149.101C230.127 148.82 232.679 144.06 232.679 144.06C236.966 146.134 243.014 144.067 243.014 144.067Z" fill="white"/>
</svg>
