<svg width="320" height="296" viewBox="0 0 320 296" fill="none" xmlns="http://www.w3.org/2000/svg">
<path d="M315.901 156.883H300.968V110.072H284.531V137.459H276.567V70.7373H268.596V89.1583H261.126V59.7795H248.678V127.998H243.199V142.437H236.731V91.1495H223.783V131.486H218.805V44.3451H196.395V148.417H154.067V80.1983H146.103V54.3007H131.163V26.913H102.78V78.2006H91.3275V132.976H70.9087V87.787H51.0437V138.455H36.051V108.582H18.6255V158.373" stroke="#263238" stroke-linecap="round" stroke-linejoin="round"/>
<path d="M230.91 15.2432C229.486 14.772 227.949 14.772 226.525 15.2432C220.638 17.386 222.78 21.1309 219.029 22.7396C215.278 24.3483 206.713 15.7707 203.482 18.4475C200.252 21.1243 199.217 25.4361 197.074 26.4844C194.931 27.5327 190.646 23.8011 188.503 26.4844L186.34 29.1612H249.634" stroke="#263238" stroke-linecap="round" stroke-linejoin="round"/>
<path d="M253.293 29.1612H291.329C291.329 29.1612 292.938 23.267 288.652 20.5902C284.367 17.9134 283.298 21.1243 278.479 20.0562C278.479 20.0562 265.622 0.237356 255.449 1.31203C245.276 2.3867 245.81 9.88305 242.059 15.7707C239.982 19.0277 237.252 17.8607 234.233 16.5289" stroke="#263238" stroke-linecap="round" stroke-linejoin="round"/>
<path d="M281.802 43.6792C281.02 43.4221 280.177 43.4221 279.395 43.6792C276.165 44.8594 277.338 46.9164 275.281 47.7933C273.224 48.6702 268.523 43.9759 266.763 45.4462C265.003 46.9164 264.409 49.2636 263.236 49.8504C262.062 50.4371 259.708 48.3801 258.535 49.8504L257.361 51.3206H292.067" stroke="#263238" stroke-linecap="round" stroke-linejoin="round"/>
<path d="M294.078 51.314H314.945C314.945 51.314 315.829 48.0834 313.475 46.6131C311.121 45.1429 310.541 46.9098 307.897 46.3165C307.897 46.3165 300.843 35.451 295.265 36.0378C289.687 36.6246 289.99 40.7387 287.914 43.9495C286.78 45.7363 285.276 45.0967 283.621 44.3649" stroke="#263238" stroke-linecap="round" stroke-linejoin="round"/>
<path d="M98.059 8.32707C97.278 8.06667 96.4335 8.06667 95.6525 8.32707C92.4219 9.50064 93.5955 11.5577 91.5384 12.4412C89.4814 13.3246 84.8069 8.61717 83.0202 10.0808C81.2334 11.5445 80.6664 13.9048 79.4929 14.4916C78.3193 15.0784 75.9655 13.0214 74.792 14.4916L73.5986 15.9619H108.298" stroke="#263238" stroke-linecap="round" stroke-linejoin="round"/>
<path d="M110.335 15.9619H131.202C131.202 15.9619 132.086 12.7247 129.732 11.261C127.378 9.79734 126.798 11.5511 124.148 10.9643C124.148 10.9643 117.1 0.0923146 111.515 0.679099C105.931 1.26588 106.241 5.37997 104.171 8.59081C103.037 10.3775 101.534 9.738 99.8787 9.00617" stroke="#263238" stroke-linecap="round" stroke-linejoin="round"/>
<path d="M84.8531 142.47C84.8531 174.585 65.8584 200.615 42.4265 200.615C18.9947 200.615 0 174.585 0 142.47C0 110.355 18.9947 0 42.4265 0C65.8584 0 84.8531 110.362 84.8531 142.47Z" fill="#FFD613"/>
<path opacity="0.5" d="M84.8531 142.47C84.8531 174.585 65.8584 200.615 42.4265 200.615C18.9947 200.615 0 174.585 0 142.47C0 110.355 18.9947 0 42.4265 0C65.8584 0 84.8531 110.362 84.8531 142.47Z" fill="white"/>
<path d="M66.2144 159.276L53.3645 164.023L55.9424 156.289L49.8042 165.341L43.6726 167.61L43.2309 142.213L65.5551 112.564L53.5886 124.524L55.6127 116.21L49.8899 128.222L43.1056 135.007L42.4265 95.3295L39.9937 153.197L18.843 130.781L30.4601 146.578L19.5089 145.358L33.038 150.078L39.7431 159.19L38.5696 187.092L30.7699 181.798L38.3256 192.868L34.7456 278.136H45.578L43.7385 171.664L66.2144 159.276Z" fill="#7D7D7D"/>
<path d="M65.7661 95.4547C65.7661 95.4547 66.1617 99.3579 64.0255 102.219C61.8893 105.081 58.0522 105.819 58.0522 105.819C58.0522 105.819 57.6566 101.923 59.7861 99.0612C61.9157 96.1998 65.7661 95.4547 65.7661 95.4547Z" fill="white"/>
<path d="M78.5566 113.421C78.5566 113.421 78.9456 117.324 76.8161 120.185C74.6865 123.047 70.8361 123.785 70.8361 123.785C70.8361 123.785 70.4471 119.889 72.5767 117.027C74.7063 114.166 78.5566 113.421 78.5566 113.421Z" fill="white"/>
<path d="M78.55 148.404C78.55 148.404 77.6072 152.208 74.6338 154.186C71.6603 156.164 67.7967 155.564 67.7967 155.564C67.7967 155.564 68.7395 151.76 71.7064 149.788C74.6733 147.817 78.55 148.404 78.55 148.404Z" fill="white"/>
<path d="M8.32706 148.404C8.32706 148.404 9.26987 152.208 12.2368 154.186C15.2036 156.164 19.0804 155.564 19.0804 155.564C19.0804 155.564 18.1376 151.76 15.1641 149.788C12.1906 147.817 8.32706 148.404 8.32706 148.404Z" fill="white"/>
<path d="M63.7815 133.886C63.7815 133.886 64.1705 137.782 62.0409 140.644C59.9114 143.505 56.061 144.244 56.061 144.244C56.061 144.244 55.672 140.347 57.7752 137.519C59.8784 134.69 63.7815 133.886 63.7815 133.886Z" fill="white"/>
<path d="M60.4652 75.9128C60.4652 75.9128 60.8608 79.8093 58.7246 82.6707C56.5885 85.5321 52.7513 86.2772 52.7513 86.2772C52.7513 86.2772 52.3557 82.3741 54.4787 79.4995C56.6017 76.6249 60.4652 75.9128 60.4652 75.9128Z" fill="white"/>
<path d="M52.8436 90.8198C52.8436 90.8198 53.2392 94.7163 51.1096 97.5777C48.9801 100.439 45.1297 101.184 45.1297 101.184C45.1297 101.184 44.7407 97.281 46.8703 94.4196C48.9998 91.5582 52.8436 90.8198 52.8436 90.8198Z" fill="white"/>
<path d="M70.9614 79.9676C70.9614 79.9676 71.3504 83.8641 69.2208 86.7255C67.0913 89.5869 63.2475 90.3253 63.2475 90.3253C63.2475 90.3253 62.8519 86.4288 64.9815 83.5674C67.1111 80.706 70.9614 79.9676 70.9614 79.9676Z" fill="white"/>
<path d="M12.1576 79.9676C12.1576 79.9676 11.7621 83.8641 13.8982 86.7255C16.0344 89.5869 19.8716 90.3253 19.8716 90.3253C19.8716 90.3253 20.2671 86.4288 18.1376 83.5674C16.008 80.706 12.1576 79.9676 12.1576 79.9676Z" fill="white"/>
<path d="M62.1201 57.6895C62.1201 57.6895 62.5157 61.5926 60.3861 64.454C58.2565 67.3154 54.4062 68.0539 54.4062 68.0539C54.4062 68.0539 54.0172 64.1574 56.1468 61.2959C58.2763 58.4345 62.1201 57.6895 62.1201 57.6895Z" fill="white"/>
<path d="M58.3752 38.3388C58.3752 38.3388 59.74 42.0112 58.3752 45.3209C57.0105 48.6306 53.4963 50.3053 53.4963 50.3053C53.4963 50.3053 52.1316 46.6329 53.4963 43.3298C54.8611 40.0266 58.3752 38.3388 58.3752 38.3388Z" fill="white"/>
<path d="M31.5479 33.2819C31.5479 33.2819 35.0159 35.1016 36.2356 38.4509C37.4554 41.8002 35.9521 45.4264 35.9521 45.4264C35.9521 45.4264 32.4842 43.6067 31.2644 40.2574C30.0447 36.9081 31.5479 33.2819 31.5479 33.2819Z" fill="white"/>
<path d="M44.0616 56.4237C44.0616 56.4237 46.534 59.4631 46.3296 63.0167C46.1252 66.5704 43.3166 69.3132 43.3166 69.3132C43.3166 69.3132 40.8442 66.2737 41.0486 62.7201C41.253 59.1664 44.0616 56.4237 44.0616 56.4237Z" fill="white"/>
<path d="M43.3957 21.9748C43.3957 21.9748 45.8681 25.0142 45.6637 28.5679C45.4594 32.1215 42.6573 34.8643 42.6573 34.8643C42.6573 34.8643 40.1849 31.8248 40.3893 28.2712C40.5937 24.7175 43.3957 21.9748 43.3957 21.9748Z" fill="white"/>
<path d="M15.3158 95.4547C15.3158 95.4547 14.9268 99.3579 17.0563 102.219C19.1859 105.081 23.0297 105.819 23.0297 105.819C23.0297 105.819 23.4253 101.923 21.2957 99.0612C19.1661 96.1998 15.3158 95.4547 15.3158 95.4547Z" fill="white"/>
<path d="M8.03037 116.658C8.03037 116.658 7.63478 120.555 9.76435 123.416C11.8939 126.277 15.7443 127.022 15.7443 127.022C15.7443 127.022 16.1399 123.119 14.0037 120.258C11.8675 117.397 8.03037 116.658 8.03037 116.658Z" fill="white"/>
<path d="M27.3745 124.332C27.3745 124.332 26.9789 128.236 29.1151 131.097C31.2512 133.958 35.0884 134.697 35.0884 134.697C35.0884 134.697 35.484 130.8 33.3544 127.939C31.2249 125.077 27.3745 124.332 27.3745 124.332Z" fill="white"/>
<path d="M32.6622 94.98C32.6622 94.98 31.1721 98.5996 32.3918 101.956C33.6116 105.311 37.0861 107.118 37.0861 107.118C37.0861 107.118 38.5828 103.492 37.3564 100.142C36.1301 96.7931 32.6622 94.98 32.6622 94.98Z" fill="white"/>
<path d="M18.9617 173.121C18.9617 173.121 22.8846 173.194 25.5548 170.834C28.225 168.473 28.6536 164.583 28.6536 164.583C28.6536 164.583 24.7373 164.511 22.0605 166.871C19.3837 169.231 18.9617 173.121 18.9617 173.121Z" fill="white"/>
<path d="M56.5489 168.862C56.5489 168.862 57.617 172.633 60.6498 174.512C63.6826 176.392 67.5264 175.679 67.5264 175.679C67.5264 175.679 66.4649 171.908 63.4321 170.023C60.3993 168.137 56.5489 168.862 56.5489 168.862Z" fill="white"/>
<path d="M23.3329 75.9128C23.3329 75.9128 22.9439 79.8093 25.0735 82.6707C27.2031 85.5321 31.0534 86.2772 31.0534 86.2772C31.0534 86.2772 31.4424 82.3741 29.3129 79.5127C27.1833 76.6513 23.3329 75.9128 23.3329 75.9128Z" fill="white"/>
<path d="M23.267 58.6851C23.267 58.6851 22.878 62.5816 25.0076 65.443C27.1372 68.3044 30.9809 69.0494 30.9809 69.0494C30.9809 69.0494 31.3765 65.1529 29.2469 62.2915C27.1174 59.4301 23.267 58.6851 23.267 58.6851Z" fill="white"/>
<path d="M16.397 253.676H60.2344C60.2344 253.676 58.3884 231.998 46.1055 222.78C33.8225 213.563 18.7639 216.332 15.0784 222.477C11.3928 228.622 10.7797 241.828 11.7027 243.364C12.6258 244.9 16.397 253.676 16.397 253.676Z" fill="#263238" stroke="#263238" stroke-linecap="round" stroke-linejoin="round"/>
<path d="M149.624 261.179H184.026L204.913 249.812C204.913 249.812 199.382 225.853 185.562 218.792C171.743 211.73 160.278 214.124 154.028 226.136C147.777 238.149 149.624 261.179 149.624 261.179Z" fill="#263238" stroke="#263238" stroke-linecap="round" stroke-linejoin="round"/>
<path d="M119.315 238.828H111.403C103.149 239.257 96.5558 247.88 96.5558 258.462C96.5558 269.044 103.149 277.668 111.403 278.096H114.792H119.309C126.976 278.096 133.194 269.295 133.194 258.442C133.194 247.59 127.003 238.828 119.315 238.828Z" fill="#263238" stroke="#263238" stroke-linecap="round" stroke-linejoin="round"/>
<path d="M255.568 229.215H245.678C235.4 229.743 227.218 240.476 227.218 253.649C227.218 266.822 235.419 277.556 245.678 278.083H255.568C265.108 278.083 272.842 267.132 272.842 253.623C272.842 240.114 265.075 229.215 255.568 229.215Z" fill="#263238" stroke="#263238" stroke-linecap="round" stroke-linejoin="round"/>
<path d="M186.71 229.215H174.242V233.943C169.957 238.393 167.174 245.573 167.174 253.676C167.174 261.779 169.957 268.958 174.242 273.409V278.136H186.71C196.25 278.136 203.984 267.185 203.984 253.676C203.984 240.166 196.23 229.215 186.71 229.215Z" fill="#263238" stroke="#263238" stroke-linecap="round" stroke-linejoin="round"/>
<path d="M42.4002 229.215H32.7215V233.943C28.6602 238.393 26.0295 245.573 26.0295 253.676C26.0295 261.779 28.6667 268.958 32.7215 273.409V278.136H42.4002C51.4327 278.136 58.751 267.185 58.751 253.676C58.751 240.166 51.4327 229.215 42.4002 229.215Z" fill="#263238" stroke="#263238" stroke-linecap="round" stroke-linejoin="round"/>
<path d="M283.74 249.291L283.028 241.228L283.978 237.2L284.215 231.978L279.474 224.152C279.474 224.152 279.237 213.952 278.762 212.772C278.288 211.592 271.648 206.364 265.003 204.234C258.357 202.105 217.809 197.12 217.809 197.12C217.809 197.12 195.043 178.857 187.217 175.06C179.391 171.262 176.787 170.794 168.486 168.42C160.186 166.047 143.11 166.054 143.11 166.054L118.682 164.629C118.682 164.629 88.8024 163.443 72.4383 165.104C56.0743 166.766 47.7736 169.37 46.8242 169.825L43.976 171.249C43.976 171.249 33.5457 173.622 32.1084 175.04C30.6711 176.457 29.2602 178.6 32.5831 182.16L14.0961 202.335C14.0961 202.335 10.7995 202.573 11.0171 204.709C11.2347 206.845 11.2545 222.965 11.2545 222.965L9.35564 225.602C9.35564 225.602 7.93154 238.169 8.64359 240.305C9.87668 243.465 11.3012 246.548 12.9093 249.535C13.7306 250.752 14.7781 251.8 15.9949 252.621L16.3575 252.812C15.3026 249.403 13.2522 242.467 13.2522 240.252C13.2522 237.285 14.7356 227.996 21.421 225.022C28.1064 222.049 35.9258 222.24 42.2222 227.257C48.5186 232.274 50.7932 242.481 52.8107 248.797C54.8282 255.113 57.2676 259.385 60.0631 261.245L61.7773 262.372C63.2607 262.372 64.1508 262.339 64.1508 262.339L156.401 264.475V260.447C156.401 260.447 152.61 259.023 151.898 258.311C151.186 257.599 148.602 248.111 150.949 239.336C153.296 230.56 160.674 221.785 170.154 221.079C179.635 220.374 190.554 226.057 194.345 235.307C198.136 244.557 199.527 258.541 200.028 259.491C200.529 260.44 201.683 261.146 204.294 261.858L206.931 262.57L211.671 264.706L274.042 261.409C274.042 261.409 283.529 257.381 284.716 255.245C285.903 253.109 283.74 249.291 283.74 249.291Z" fill="white" stroke="#263238" stroke-linecap="round" stroke-linejoin="round"/>
<path d="M217.809 197.12C217.809 197.12 195.043 178.857 187.217 175.06C179.391 171.262 176.787 170.794 168.486 168.42C160.186 166.047 143.11 166.054 143.11 166.054L118.682 164.629C118.682 164.629 88.8023 163.443 72.4383 165.104C56.0742 166.766 47.7735 169.37 46.8241 169.825L43.9759 171.249C43.9759 171.249 33.5456 173.622 32.1084 175.04C30.6711 176.457 29.2601 178.6 32.5831 182.16H44.4506L60.5773 196.197L146.663 199.276L146.901 196.672L215.205 196.434C216.122 196.399 217.029 196.638 217.809 197.12Z" fill="#263238" stroke="#263238" stroke-linecap="round" stroke-linejoin="round"/>
<path d="M217.809 197.12C217.809 197.12 195.043 178.857 187.217 175.06C184.58 173.787 182.556 172.891 180.69 172.172C176.853 171.447 172.989 171.031 172.989 171.031L123.185 167.234C128.484 171.031 133.479 175.235 138.125 179.807C144.257 185.932 151.133 194.648 153.059 196.619L215.205 196.408C216.125 196.381 217.032 196.629 217.809 197.12Z" fill="#C4C4C4" stroke="#263238" stroke-linecap="round" stroke-linejoin="round"/>
<path d="M62.4497 196.237L85.3409 197.054C85.8552 193.098 86.9101 185.806 88.0903 181.943C89.3449 178.055 90.8491 174.251 92.5933 170.557L67.6649 171.981C67.6649 171.981 63.709 186.426 62.4497 196.237Z" fill="#8C8C8C" stroke="#263238" stroke-linecap="round" stroke-linejoin="round"/>
<path d="M60.5773 196.197C60.5773 196.197 64.2892 176.194 66.1485 172.607C66.1485 172.607 55.9951 173.345 53.3974 174.954C51.4195 176.161 47.167 180.604 45.1165 182.78L60.5773 196.197Z" fill="#C4C4C4" stroke="#263238" stroke-linecap="round" stroke-linejoin="round"/>
<path d="M144.059 197.595C144.059 197.595 131.011 180.756 123.66 176.246C116.309 171.737 102.793 171.031 101.369 170.794L99.9446 170.557C99.9446 170.557 93.4438 180.545 94.9537 197.397L144.877 199.19L144.059 197.595Z" fill="#C4C4C4" stroke="#263238" stroke-linecap="round" stroke-linejoin="round"/>
<path d="M132.936 197.595C132.936 197.595 135.785 194.298 134.835 191.424C133.886 188.549 131.75 188.345 130.326 188.127C128.901 187.91 121.557 187.178 118.709 188.839C115.86 190.501 114.911 195.716 116.335 196.665C117.759 197.615 125.348 197.14 125.348 197.14C125.348 197.14 128.433 202.355 129.62 202.592C130.807 202.83 133.174 202.592 133.649 201.406C134.123 200.219 132.936 197.595 132.936 197.595Z" stroke="#263238" stroke-linecap="round" stroke-linejoin="round"/>
<path d="M132.936 197.595C132.936 197.595 135.785 194.298 134.835 191.424C133.886 188.549 131.75 188.345 130.326 188.127C128.901 187.91 121.557 187.178 118.709 188.839C115.86 190.501 114.911 195.716 116.335 196.665C117.759 197.615 125.348 197.14 125.348 197.14C125.348 197.14 128.433 202.355 129.62 202.592C130.807 202.83 133.174 202.592 133.649 201.406C134.123 200.219 132.936 197.595 132.936 197.595Z" fill="#263238" stroke="#263238" stroke-linecap="round" stroke-linejoin="round"/>
<path d="M202.876 230.033C202.876 230.033 234.47 231.707 237.608 232.459C240.747 233.211 243.918 234.318 243.918 234.318L282.369 233" stroke="#263238" stroke-linecap="round" stroke-linejoin="round"/>
<path d="M146.413 202.177C146.413 202.177 142.885 221.864 143.815 242.474" stroke="#263238" stroke-linecap="round" stroke-linejoin="round"/>
<path d="M145.463 206.819L188.978 209.601C188.978 209.601 233.554 215.363 235.413 215.172C237.272 214.981 239.309 214.987 239.309 214.987" stroke="#263238" stroke-linecap="round" stroke-linejoin="round"/>
<path d="M277.536 213.135C272.537 212.634 267.515 212.385 262.491 212.39C253.142 212.39 242.316 213.22 241.32 213.319C239.461 213.504 238.723 215.548 238.723 217.031C238.723 218.515 238.723 224.462 239.276 225.602C239.83 226.743 244.848 230.989 247.636 230.989C250.425 230.989 273.64 231.173 275.868 229.67C278.096 228.167 279.474 224.158 279.474 224.158" stroke="#263238" stroke-linecap="round" stroke-linejoin="round"/>
<path d="M193.032 210.53C193.032 210.53 198.788 217.783 201.603 219.636C204.419 221.488 204.946 221.673 206.43 221.864C207.913 222.055 224.073 223.183 226.301 223.183C228.53 223.183 230.02 222.998 230.916 222.068C231.813 221.139 234.074 215.192 234.074 215.192L193.032 210.53Z" fill="#FFD613" stroke="#263238" stroke-linecap="round" stroke-linejoin="round"/>
<path d="M210.306 240.621C210.306 240.621 208.263 246.377 208.263 247.307C208.263 248.236 210.306 249.535 211.045 249.535C211.783 249.535 225.721 249.72 226.651 249.351C227.58 248.981 232.584 243.588 232.406 242.85C232.228 242.111 229.433 240.806 229.433 240.806L210.306 240.621Z" fill="#263238" stroke="#263238" stroke-linecap="round" stroke-linejoin="round"/>
<path d="M284.69 255.218C285.876 253.089 283.74 249.285 283.74 249.285L280.879 243.582L242.065 244.511C242.065 244.511 236.131 252.311 235.189 252.687C234.408 252.931 233.594 253.056 232.776 253.056C232.776 253.056 209.746 252.126 208.078 251.388C206.41 250.649 205.104 248.414 204.359 247.854C203.614 247.294 200.832 246.535 200.832 246.535C200.832 246.535 198.419 235.393 194.147 229.637C189.874 223.882 180.4 218.864 173.708 218.119C167.016 217.374 157.74 221.646 154.021 226.11C150.303 230.573 147.903 237.074 147.342 244.149L141.771 243.404C141.771 243.404 137.868 247.491 135.64 248.421C133.411 249.351 67.6649 246.008 65.8122 245.448C63.9596 244.887 59.0939 240.246 58.006 239.876C56.9181 239.507 52.6194 238.947 52.6194 238.947C52.6194 238.947 49.8372 227.079 42.9672 222.602C36.0972 218.126 26.8075 218.146 21.4209 221.284C16.0344 224.422 13.6015 230.217 12.8763 232.077C12.1511 233.936 11.7621 235.05 11.7621 235.05L8.59079 234.061C8.41937 236.83 8.35344 239.415 8.64354 240.279C9.87663 243.439 11.3012 246.522 12.9093 249.509C13.7305 250.726 14.7781 251.773 15.9948 252.594L16.3575 252.786C15.3026 249.377 13.2521 242.441 13.2521 240.226C13.2521 237.259 14.7356 227.969 21.4209 224.996C28.1063 222.022 35.9257 222.213 42.2221 227.231C48.5185 232.248 50.7932 242.454 52.8106 248.77C54.8281 255.087 57.2676 259.359 60.063 261.218L61.7772 262.346C63.2607 262.346 64.1508 262.313 64.1508 262.313L156.401 264.449V260.42C156.401 260.42 152.61 258.996 151.898 258.284C151.186 257.572 148.602 248.085 150.949 239.309C153.296 230.534 160.674 221.759 170.154 221.053C179.635 220.348 190.553 226.031 194.344 235.281C198.136 244.531 199.527 258.541 200.028 259.491C200.529 260.44 201.683 261.146 204.293 261.858L206.931 262.57L211.671 264.706L274.042 261.409C274.042 261.409 283.503 257.355 284.69 255.218Z" fill="#545454" stroke="#263238" stroke-linecap="round" stroke-linejoin="round"/>
<path d="M32.7479 278.136C41.7782 278.136 49.0987 267.185 49.0987 253.676C49.0987 240.167 41.7782 229.215 32.7479 229.215C23.7175 229.215 16.397 240.167 16.397 253.676C16.397 267.185 23.7175 278.136 32.7479 278.136Z" fill="#787878" stroke="#263238" stroke-linecap="round" stroke-linejoin="round"/>
<path d="M32.7479 272.789C39.801 272.789 45.5187 264.232 45.5187 253.676C45.5187 243.12 39.801 234.562 32.7479 234.562C25.6947 234.562 19.9771 243.12 19.9771 253.676C19.9771 264.232 25.6947 272.789 32.7479 272.789Z" fill="white" stroke="#263238" stroke-linecap="round" stroke-linejoin="round"/>
<path d="M32.7479 256.076C33.6327 256.076 34.35 255.001 34.35 253.676C34.35 252.35 33.6327 251.276 32.7479 251.276C31.863 251.276 31.1458 252.35 31.1458 253.676C31.1458 255.001 31.863 256.076 32.7479 256.076Z" fill="white" stroke="#263238" stroke-linecap="round" stroke-linejoin="round"/>
<path d="M11.017 204.709C11.1094 205.546 11.1621 208.559 11.1951 211.895C12.4346 211.77 14.4191 211.546 15.4212 211.381C16.9376 211.124 20.7287 204.682 21.4869 203.924C21.6975 203.735 21.8278 203.473 21.8511 203.191C21.8744 202.909 21.7889 202.629 21.6121 202.408H14.9202L14.4389 201.973L14.1026 202.335C14.1026 202.335 10.7797 202.573 11.017 204.709Z" fill="#FFD613" stroke="#263238" stroke-linecap="round" stroke-linejoin="round"/>
<path d="M43.3759 183.861C43.3759 183.861 38.1015 199.955 38.0619 201.557C38.0223 203.159 41.7738 220.849 41.7738 220.849" stroke="#263238" stroke-linecap="round" stroke-linejoin="round"/>
<path d="M47.6746 207.016C47.8782 207.429 48.0013 207.876 48.0372 208.335C47.9647 208.698 45.3407 207.9 44.9055 207.458C44.6081 207.054 44.432 206.574 44.3979 206.074C44.3979 206.074 44.5429 204.913 44.9055 204.696C45.2681 204.478 49.1317 204.399 49.1317 204.399C49.1317 204.399 48.5449 204.696 50.4503 204.841C51.6256 204.923 52.8066 204.823 53.9512 204.544C53.9512 204.544 56.7137 205.276 56.7137 205.863C56.6824 206.335 56.5847 206.802 56.4237 207.247L53.7271 208.197L53.8787 207.537C53.8787 207.537 48.9141 206.746 47.6746 207.016Z" stroke="#263238" stroke-linecap="round" stroke-linejoin="round"/>
<path d="M48.2548 209.199C49.7532 209.633 51.3284 209.734 52.87 209.495" stroke="#263238" stroke-linecap="round" stroke-linejoin="round"/>
<path d="M94.4262 208.493C94.6308 208.905 94.754 209.353 94.7888 209.812C94.7163 210.181 92.0989 209.377 91.6571 208.942C91.3597 208.538 91.1836 208.057 91.1494 207.557C91.1494 207.557 91.2945 206.39 91.6571 206.172C92.0197 205.955 95.8833 205.882 95.8833 205.882C95.8833 205.882 95.3031 206.172 97.2019 206.318C98.3747 206.4 99.5531 206.302 100.696 206.027C100.696 206.027 103.465 206.753 103.465 207.346C103.432 207.819 103.332 208.285 103.169 208.731L100.479 209.673L100.624 209.014C100.624 209.014 95.6657 208.197 94.4262 208.493Z" stroke="#263238" stroke-linecap="round" stroke-linejoin="round"/>
<path d="M95.0064 210.702C96.5056 211.132 98.0803 211.231 99.6216 210.992" stroke="#263238" stroke-linecap="round" stroke-linejoin="round"/>
<path d="M88.677 199.942C88.677 199.942 85.5849 207.748 86.3167 215.845C87.0485 223.941 90.1473 234.833 90.0023 237.338C89.8572 239.843 87.365 245.138 87.7936 245.909" stroke="#263238" stroke-linecap="round" stroke-linejoin="round"/>
<path d="M173.339 278.136C183.986 278.136 192.617 267.185 192.617 253.676C192.617 240.167 183.986 229.215 173.339 229.215C162.692 229.215 154.061 240.167 154.061 253.676C154.061 267.185 162.692 278.136 173.339 278.136Z" fill="#787878" stroke="#263238" stroke-linecap="round" stroke-linejoin="round"/>
<path d="M173.339 272.789C181.659 272.789 188.404 264.232 188.404 253.676C188.404 243.12 181.659 234.562 173.339 234.562C165.019 234.562 158.274 243.12 158.274 253.676C158.274 264.232 165.019 272.789 173.339 272.789Z" fill="white" stroke="#263238" stroke-linecap="round" stroke-linejoin="round"/>
<path d="M175.337 253.676C175.337 254.994 174.578 256.069 173.642 256.069C172.706 256.069 171.948 255.001 171.948 253.676C171.948 252.35 172.706 251.276 173.642 251.276C174.578 251.276 175.337 252.35 175.337 253.676Z" fill="white" stroke="#263238" stroke-linecap="round" stroke-linejoin="round"/>
<path d="M265.833 220.895C265.833 223.275 264.258 225.2 262.313 225.2C260.368 225.2 258.792 223.275 258.792 220.895C258.792 218.515 260.368 216.596 262.313 216.596C264.258 216.596 265.833 218.521 265.833 220.895Z" fill="white" stroke="#263238" stroke-linecap="round" stroke-linejoin="round"/>
<path d="M182.2 172.778C181.679 172.561 181.178 172.357 180.69 172.172C179.648 171.974 178.6 171.796 177.631 171.651L190.738 196.487H196.296L182.2 172.778Z" fill="white" stroke="#263238" stroke-linecap="round" stroke-linejoin="round"/>
<path d="M2.49878 278.136H319" stroke="#263238" stroke-linecap="round" stroke-linejoin="round"/>
<path d="M220.559 276.633H209.865V172.554C209.865 171.136 210.428 169.776 211.431 168.773C212.433 167.771 213.794 167.207 215.212 167.207C216.63 167.207 217.99 167.771 218.993 168.773C219.995 169.776 220.559 171.136 220.559 172.554V276.633Z" fill="white" stroke="#263238" stroke-linecap="round" stroke-linejoin="round"/>
<path d="M220.559 175.165H209.865V178.897H220.559V175.165Z" fill="white" stroke="#263238" stroke-linecap="round" stroke-linejoin="round"/>
<path d="M230.138 276.646H200.041V278.136H230.138V276.646Z" fill="white" stroke="#263238" stroke-linecap="round" stroke-linejoin="round"/>
<path d="M267.389 276.633H256.695V172.554C256.695 171.136 257.259 169.776 258.261 168.773C259.264 167.771 260.624 167.207 262.042 167.207C263.46 167.207 264.82 167.771 265.823 168.773C266.826 169.776 267.389 171.136 267.389 172.554V276.633Z" fill="white" stroke="#263238" stroke-linecap="round" stroke-linejoin="round"/>
<path d="M267.389 175.165H256.695V178.897H267.389V175.165Z" fill="white" stroke="#263238" stroke-linecap="round" stroke-linejoin="round"/>
<path d="M276.969 276.646H246.872V278.136H276.969V276.646Z" fill="white" stroke="#263238" stroke-linecap="round" stroke-linejoin="round"/>
<path d="M182.813 164.3H176.194V261.627H182.813V164.3Z" fill="#8C8C8C" stroke="#263238" stroke-linecap="round" stroke-linejoin="round"/>
<path d="M202.052 164.3H182.167V261.627H202.052V164.3Z" fill="#263238" stroke="#263238" stroke-linecap="round" stroke-linejoin="round"/>
<path d="M179.906 91.5055H158.992V167.319H179.906V91.5055Z" fill="#8C8C8C" stroke="#263238" stroke-linecap="round" stroke-linejoin="round"/>
<path d="M206.172 91.5055H179.873V167.319H206.172V91.5055Z" fill="#263238" stroke="#263238" stroke-linecap="round" stroke-linejoin="round"/>
<path d="M175.007 97.347H164.985C163.522 97.347 162.335 98.5336 162.335 99.9974V133.431C162.335 134.895 163.522 136.081 164.985 136.081H175.007C176.471 136.081 177.657 134.895 177.657 133.431V99.9974C177.657 98.5336 176.471 97.347 175.007 97.347Z" fill="#8C8C8C" stroke="#263238" stroke-linecap="round" stroke-linejoin="round"/>
<path d="M174.394 99.0282H171.572C170.909 99.0282 170.372 99.5654 170.372 100.228V107.428C170.372 108.091 170.909 108.628 171.572 108.628H174.394C175.057 108.628 175.594 108.091 175.594 107.428V100.228C175.594 99.5654 175.057 99.0282 174.394 99.0282Z" fill="white" stroke="#263238" stroke-linecap="round" stroke-linejoin="round"/>
<path d="M173.016 99.8391H171.829V107.764H173.016V99.8391Z" fill="#263238" stroke="#263238" stroke-linecap="round" stroke-linejoin="round"/>
<path d="M175.594 107.494V100.162C175.594 99.8615 175.474 99.573 175.262 99.3603C175.049 99.1477 174.761 99.0282 174.46 99.0282V108.628C174.761 108.628 175.049 108.508 175.262 108.296C175.474 108.083 175.594 107.794 175.594 107.494Z" fill="#263238" stroke="#263238" stroke-linecap="round" stroke-linejoin="round"/>
<path d="M166.251 99.015H164.511C163.79 99.015 163.205 99.5995 163.205 100.32V108.43C163.205 109.151 163.79 109.735 164.511 109.735H166.251C166.972 109.735 167.557 109.151 167.557 108.43V100.32C167.557 99.5995 166.972 99.015 166.251 99.015Z" stroke="#263238" stroke-linecap="round" stroke-linejoin="round"/>
<path d="M175.956 111.516H163.588V128.269H175.956V111.516Z" stroke="#263238" stroke-linecap="round" stroke-linejoin="round"/>
<path d="M198.439 91.5055H173.253V68.0011L198.439 65.3046V91.5055Z" fill="#8C8C8C" stroke="#263238" stroke-linecap="round" stroke-linejoin="round"/>
<path d="M180.341 91.5055H198.439V65.3046L180.341 67.2429V91.5055Z" fill="#263238" stroke="#263238" stroke-linecap="round" stroke-linejoin="round"/>
<path d="M187.033 52.0392C186.902 52.0193 186.768 52.0193 186.637 52.0392C186.637 52.0392 164.148 57.3137 151.694 65.2254C151.571 65.9187 151.689 66.6333 152.03 67.2495C152.597 68.0341 158.775 69.6098 158.775 69.6098H180.591L208.473 52.0722L187.033 52.0392Z" fill="#8C8C8C" stroke="#263238" stroke-linecap="round" stroke-linejoin="round"/>
<path d="M158.531 62.8387H176.029C176.029 62.8387 185.846 56.7929 201.208 53.0941H186.558C186.558 53.0941 165.005 59.351 158.531 62.8387Z" fill="#263238" stroke="#263238" stroke-linecap="round" stroke-linejoin="round"/>
<path d="M152.004 67.2165C152.571 68.0011 158.748 69.5769 158.748 69.5769H180.565L173.484 65.1925H151.667C151.544 65.8858 151.663 66.6003 152.004 67.2165Z" fill="#8C8C8C" stroke="#263238" stroke-linecap="round" stroke-linejoin="round"/>
<path d="M208.447 52.0393C208.447 52.0393 185.958 57.3137 173.504 65.2254C173.377 65.9187 173.496 66.6346 173.84 67.2495C174.4 68.0341 180.585 69.6098 180.585 69.6098C180.585 69.6098 194.977 67.922 203.41 62.3047C211.843 56.6874 210.583 51.703 208.447 52.0393Z" fill="#263238" stroke="#263238" stroke-linecap="round" stroke-linejoin="round"/>
<path d="M190.191 89.633C194.353 89.633 197.727 85.6068 197.727 80.6401C197.727 75.6734 194.353 71.6471 190.191 71.6471C186.029 71.6471 182.655 75.6734 182.655 80.6401C182.655 85.6068 186.029 89.633 190.191 89.633Z" fill="#FFD613" stroke="#263238" stroke-linecap="round" stroke-linejoin="round"/>
<path d="M187.184 86.9431V74.3766H191.397C192.046 74.3517 192.69 74.4996 193.263 74.8052C193.747 75.0925 194.125 75.5268 194.344 76.0447C194.597 76.6728 194.718 77.3459 194.701 78.0226C194.747 78.7947 194.583 79.5649 194.226 80.2511C193.92 80.745 193.455 81.1196 192.907 81.3126C192.314 81.5177 191.689 81.6181 191.061 81.6093H189.947V86.9431H187.184ZM189.96 79.6907H190.89C191.16 79.7078 191.43 79.641 191.661 79.4995C191.845 79.3669 191.97 79.1685 192.011 78.9457C192.075 78.6334 192.103 78.3149 192.096 77.9962C192.1 77.7135 192.078 77.431 192.03 77.1523C191.993 76.9243 191.873 76.7178 191.694 76.5721C191.451 76.4104 191.161 76.3339 190.87 76.3546H189.96V79.6907Z" fill="#263238"/>
<path d="M192.828 130.372C199.484 130.372 204.88 123.931 204.88 115.986C204.88 108.04 199.484 101.6 192.828 101.6C186.172 101.6 180.776 108.04 180.776 115.986C180.776 123.931 186.172 130.372 192.828 130.372Z" fill="#FFD613" stroke="#263238" stroke-linecap="round" stroke-linejoin="round"/>
<path d="M185.299 116.295V106.215H188.681C189.202 106.193 189.718 106.312 190.178 106.557C190.568 106.786 190.874 107.135 191.048 107.553C191.25 108.056 191.346 108.594 191.331 109.135C191.37 109.755 191.238 110.373 190.949 110.922C190.711 111.322 190.34 111.626 189.901 111.779C189.422 111.938 188.921 112.016 188.417 112.01H187.527V116.295H185.299ZM187.527 110.487H188.272C188.489 110.502 188.705 110.452 188.892 110.342C189.039 110.233 189.14 110.073 189.176 109.894C189.225 109.644 189.247 109.39 189.241 109.135C189.242 108.915 189.224 108.694 189.189 108.476C189.156 108.293 189.06 108.128 188.918 108.008C188.725 107.877 188.492 107.817 188.259 107.837H187.527V110.487Z" fill="#263238"/>
<path d="M192.307 109.122H199.757" stroke="#263238" stroke-miterlimit="10"/>
<path d="M188.411 113.685H202.652" stroke="#263238" stroke-miterlimit="10"/>
<path d="M188.411 116.131H202.428" stroke="#263238" stroke-miterlimit="10"/>
<path d="M183.743 120.133H201.986" stroke="#263238" stroke-miterlimit="10"/>
<path d="M184.521 123.027H200.76" stroke="#263238" stroke-miterlimit="10"/>
<path d="M186.413 125.025H198.314" stroke="#263238" stroke-miterlimit="10"/>
<path d="M212.192 260.829H167.043V278.136H212.192V260.829Z" fill="#8C8C8C" stroke="#263238" stroke-linecap="round" stroke-linejoin="round"/>
<path d="M212.192 260.829H185.015V278.136H212.192V260.829Z" fill="#263238" stroke="#263238" stroke-linecap="round" stroke-linejoin="round"/>
<path d="M104.659 68.0934C104.659 68.0934 101.435 70.3483 101.224 74.2184C101.013 78.0886 103.268 85.1695 103.268 85.8091C103.268 86.4486 101.863 92.6857 101.863 92.6857L114.43 100.09L117.647 93.2197C117.647 93.2197 122.48 93.0021 122.922 92.2505C123.363 91.4989 124.748 84.8465 124.748 84.8465L126.897 84.3058L124.319 79.0314C124.319 79.0314 124.642 76.8886 124.642 76.5656C124.642 76.2425 123.245 71.8383 122.922 70.9812C122.598 70.1241 120.884 66.366 114.008 65.9375C107.131 65.5089 104.659 68.0934 104.659 68.0934Z" fill="white" stroke="#263238" stroke-linecap="round" stroke-linejoin="round"/>
<path d="M113.994 65.9507C107.124 65.5155 104.659 68.0934 104.659 68.0934C104.659 68.0934 101.435 70.3483 101.224 74.2184C101.032 77.6007 102.74 83.4487 103.169 85.2948C104.105 85.9145 105.404 86.6464 106.05 86.4552C107.124 86.1321 105.839 83.6663 106.801 81.4115C107.764 79.1566 110.995 78.7215 111.852 78.8336C112.709 78.9457 113.355 80.7653 113.355 80.7653L114.746 80.6598L114.641 77.7589C114.641 77.7589 116.79 76.1502 117.324 75.181C117.858 74.2118 115.821 70.7768 115.821 70.7768L122.572 70.2823C121.801 68.8912 119.632 66.3133 113.994 65.9507Z" fill="#263238" stroke="#263238" stroke-linecap="round" stroke-linejoin="round"/>
<path d="M111.535 80.7192C111.535 80.7192 110.573 77.7127 108.654 78.5567C106.735 79.4006 106.973 82.6378 107.448 83.8311C107.922 85.0245 110.085 85.7563 110.81 85.1498" fill="white"/>
<path d="M111.535 80.7192C111.535 80.7192 110.573 77.7127 108.654 78.5567C106.735 79.4006 106.973 82.6378 107.448 83.8311C107.922 85.0245 110.085 85.7563 110.81 85.1498" stroke="#263238" stroke-linecap="round" stroke-linejoin="round"/>
<path d="M123.337 78.405C122.906 78.2558 122.444 78.2168 121.994 78.2916C121.543 78.3665 121.119 78.5528 120.759 78.8336" stroke="#263238" stroke-linecap="round" stroke-linejoin="round"/>
<path d="M122.803 80.0137C122.803 80.5478 122.539 80.9763 122.209 80.9763C121.88 80.9763 121.623 80.5478 121.623 80.0137C121.623 79.4797 121.886 79.0445 122.209 79.0445C122.533 79.0445 122.803 79.4995 122.803 80.0137Z" fill="#263238"/>
<path d="M123.231 87.7408C123.231 87.7408 121.834 87.8529 121.194 86.9892" stroke="#263238" stroke-linecap="round" stroke-linejoin="round"/>
<path d="M123.337 80.9763L122.262 81.7279" stroke="#263238" stroke-linecap="round" stroke-linejoin="round"/>
<path d="M117.647 93.2197C116.653 92.8946 115.713 92.4235 114.858 91.822C113.995 91.0703 113.54 90.6418 113.54 90.6418L116.658 95.4745L117.647 93.2197Z" fill="#263238" stroke="#263238" stroke-linecap="round" stroke-linejoin="round"/>
<path d="M123.383 174.216C123.383 174.216 124.491 196.395 123.66 204.986C122.829 213.577 121.999 219.266 121.3 220.651C120.601 222.035 115.893 228.418 115.893 228.418C115.893 228.418 112.432 245.883 112.847 248.375C113.174 250.674 112.887 253.019 112.017 255.172C111.324 256.834 110.039 265.794 110.039 266.209C110.039 266.625 118.913 272.143 120.713 272.723C122.513 273.303 124.042 273 124.735 274.8C125.427 276.6 125.012 277.991 123.35 277.991C121.689 277.991 105.602 276.883 103.248 276.468C100.894 276.053 98.8106 275.492 98.8106 275.492C98.8106 275.492 101.448 236.731 101.448 233.956C101.448 231.18 105.602 189.591 105.602 186.683C105.602 183.776 104.909 174.763 104.909 174.763L123.383 174.216Z" fill="#263238" stroke="#263238" stroke-linecap="round" stroke-linejoin="round"/>
<path d="M94.5449 173.939C94.5449 173.939 94.1295 181.007 96.2129 185.028C97.3928 187.282 98.4557 189.595 99.3974 191.958C99.3974 191.958 98.2898 210.418 96.2129 221.627C94.1361 232.835 93.2988 249.773 92.8834 255.317C92.4681 260.862 92.745 270.607 92.745 270.607C92.745 270.607 91.6373 276.85 92.0857 277.266C92.534 277.681 103.037 277.773 107.751 278.05C112.465 278.327 121.194 278.05 122.031 276.25C122.869 274.451 122.585 273.059 121.333 272.506C120.08 271.952 112.188 268.622 111.496 268.068C110.751 267.309 110.088 266.474 109.518 265.576C109.518 265.576 108.964 260.17 108.964 258.917V250.742C108.964 249.219 108.305 247.274 108.549 245.467C108.793 243.661 111.324 228.694 112.155 226.75C112.986 224.805 114.647 217.328 115.339 214.137C116.032 210.946 120.054 196.949 121.023 191.266C121.992 185.582 123.66 175.185 123.66 175.185L94.5449 173.939Z" fill="#263238" stroke="#263238" stroke-linecap="round" stroke-linejoin="round"/>
<path d="M98.4282 251.981C97.5711 261.508 97.5975 262.794 97.5975 262.794" stroke="#878787" stroke-linecap="round" stroke-linejoin="round"/>
<path d="M109.32 188.905C109.32 196.046 108.918 206.153 106.887 213.3C103.419 225.497 99.3974 238.947 98.4282 249.344" stroke="#878787" stroke-linecap="round" stroke-linejoin="round"/>
<path d="M109.102 180.314C109.102 180.314 109.254 182.853 109.307 186.683" stroke="#878787" stroke-linecap="round" stroke-linejoin="round"/>
<path d="M121.999 276.244C122.829 274.437 122.552 273.053 121.3 272.499C120.047 271.945 112.155 268.616 111.463 268.062C110.718 267.302 110.055 266.467 109.485 265.57C109.485 265.57 104.771 268.062 100.334 268.754C97.7446 269.148 95.1945 269.766 92.712 270.6C92.712 270.6 91.6044 276.844 92.0527 277.259C92.501 277.675 100.624 278.222 105.364 278.499C110.105 278.776 121.161 278.044 121.999 276.244Z" fill="#FFD613" stroke="#263238" stroke-linecap="round" stroke-linejoin="round"/>
<path d="M121.999 276.244C122.423 275.46 122.552 274.55 122.361 273.679C119.651 274.338 113.718 275.585 109.656 275.69C105.074 275.802 95.1053 275.248 92.1846 274.22C91.9868 275.683 91.8615 277.068 92.0527 277.259C92.4681 277.675 100.624 278.222 105.364 278.499C110.105 278.776 121.161 278.044 121.999 276.244Z" fill="white" stroke="#263238" stroke-linecap="round" stroke-linejoin="round"/>
<path d="M99.8062 95.791C99.8062 95.791 93.0021 106.749 92.3758 111.034C91.7494 115.32 91.8681 151.344 91.8681 151.344L91.2088 176.662C91.2088 176.662 130.385 177.921 133.405 176.537C136.424 175.152 139.2 172.884 138.679 169.106C138.158 165.328 135.026 138.87 129.106 124.385C123.185 109.9 116.882 105.364 116.882 105.364C116.882 105.364 106.986 98.6854 99.8062 95.791Z" fill="#FFD613" stroke="#263238" stroke-linecap="round" stroke-linejoin="round"/>
<path d="M131.994 150.988L112.874 153.237C112.874 153.237 113.434 157.852 114.337 158.188C115.241 158.524 123.904 160.443 124.352 160.324C124.801 160.205 133.016 156.724 133.24 155.709C133.402 154.618 133.479 153.516 133.47 152.412" stroke="#263238" stroke-linecap="round" stroke-linejoin="round"/>
<path d="M100.683 91.7165C100.683 91.7165 98.2172 95.9031 98.7513 96.1206C99.2853 96.3382 110.56 101.395 111.852 102.239C113.144 103.083 120.654 109.004 120.654 109.004C120.654 109.004 115.61 99.7732 114.43 98.692C113.249 97.6107 100.683 91.7165 100.683 91.7165Z" fill="#FFD613" stroke="#263238" stroke-linecap="round" stroke-linejoin="round"/>
<path d="M168.467 135.363L173.293 134.743C171.849 134.184 170.363 133.743 168.849 133.424C167.366 133.24 163.298 133.794 163.298 133.794L165.796 135.369L168.467 135.363Z" fill="white" stroke="#263238" stroke-linecap="round" stroke-linejoin="round"/>
<path d="M168.467 135.363C168.467 134.98 166.7 135.297 166.7 135.297L166.64 135.382C165.605 134.473 164.049 133.405 164.049 133.405C164.049 133.405 165.816 133.471 165.948 133.029C166.08 132.587 164.682 132.646 164.491 132.521C164.3 132.396 161.148 131.137 160.957 131.005C160.766 130.873 158.247 130.312 157.548 130.504C156.85 130.695 150.421 132.244 150.421 132.244L153.322 139.497C155.215 139.684 157.124 139.64 159.006 139.365C160.939 139.199 162.75 138.35 164.115 136.971C164.578 136.938 165.043 136.938 165.506 136.971H165.572C165.968 136.971 167.221 137.064 167.55 136.53C168.598 136.055 168.467 135.739 168.467 135.363Z" fill="white" stroke="#263238" stroke-linecap="round" stroke-linejoin="round"/>
<path d="M164.049 133.405C164.049 133.405 161.715 132.145 161.148 131.888C160.489 131.655 159.815 131.466 159.131 131.321" stroke="#263238" stroke-linecap="round" stroke-linejoin="round"/>
<path d="M162.282 136.437L164.557 136.879" stroke="#263238" stroke-linecap="round" stroke-linejoin="round"/>
<path d="M100.564 124.135C100.564 124.135 116.058 142.905 118.952 144.791C120.461 145.854 122.178 146.584 123.99 146.934L148.43 144.296C148.43 144.296 150.698 145.556 151.45 145.173C152.201 144.791 154.226 143.037 153.718 138.752C153.21 134.466 151.199 131.321 149.815 131.446C148.402 131.664 147.01 132.001 145.654 132.455C145.279 132.58 139.991 132.956 139.991 132.956C139.991 132.956 133.312 132.831 132.178 132.956C131.044 133.082 128.025 132.073 127.016 130.978C125.826 129.802 124.564 128.701 123.238 127.682C123.238 127.682 116.935 107.401 114.291 105.634C111.647 103.868 104.969 100.472 101.824 106.142" fill="#FFD613"/>
<path d="M100.564 124.135C100.564 124.135 116.058 142.905 118.952 144.791C120.461 145.854 122.178 146.584 123.99 146.934L148.43 144.296C148.43 144.296 150.698 145.556 151.45 145.173C152.201 144.791 154.226 143.037 153.718 138.752C153.21 134.466 151.199 131.321 149.815 131.446C148.402 131.664 147.01 132.001 145.654 132.455C145.279 132.58 139.991 132.956 139.991 132.956C139.991 132.956 133.312 132.831 132.178 132.956C131.044 133.082 128.025 132.073 127.016 130.978C125.826 129.802 124.564 128.701 123.238 127.682C123.238 127.682 116.935 107.401 114.291 105.634C111.647 103.868 104.969 100.472 101.824 106.142" stroke="#263238" stroke-linecap="round" stroke-linejoin="round"/>
<path d="M146.545 133.668C146.545 133.668 149.347 134.796 148.041 142.648" stroke="#263238" stroke-linecap="round" stroke-linejoin="round"/>
</svg>
