<svg width="112" height="48" viewBox="0 0 112 48" fill="none" xmlns="http://www.w3.org/2000/svg">
<circle cx="24" cy="24" r="24" fill="#313131"/>
<mask id="mask0_208_4367" style="mask-type:alpha" maskUnits="userSpaceOnUse" x="12" y="12" width="24" height="24">
<rect x="12" y="12" width="24" height="24" fill="#D9D9D9"/>
</mask>
<g mask="url(#mask0_208_4367)">
<path d="M17.6153 30.5V31.4423C17.6153 31.7361 17.5123 31.9858 17.3065 32.1915C17.1007 32.3972 16.8507 32.5 16.5565 32.5C16.2625 32.5 16.0129 32.3972 15.8077 32.1915C15.6026 31.9858 15.5 31.7361 15.5 31.4423V24.3885C15.5 24.2847 15.5067 24.1808 15.5202 24.077C15.5337 23.9732 15.5564 23.8737 15.5882 23.7785L17.379 18.7155C17.4988 18.3553 17.716 18.0628 18.0305 17.8378C18.345 17.6126 18.697 17.5 19.0865 17.5H28.9135C29.303 17.5 29.655 17.6126 29.9695 17.8378C30.284 18.0628 30.5012 18.3553 30.621 18.7155L32.4117 23.7785C32.4436 23.8737 32.4662 23.9732 32.4797 24.077C32.4932 24.1808 32.5 24.2847 32.5 24.3885V31.4423C32.5 31.7361 32.3971 31.9858 32.1913 32.1915C31.9853 32.3972 31.7353 32.5 31.4413 32.5C31.1471 32.5 30.8974 32.3972 30.6923 32.1915C30.4873 31.9858 30.3848 31.7361 30.3848 31.4423V30.5H17.6153ZM17.6077 22.577H30.3923L29.2078 19.202C29.1821 19.1378 29.1436 19.0882 29.0922 19.053C29.0409 19.0177 28.98 19 28.9095 19H19.0905C19.02 19 18.9591 19.0177 18.9077 19.053C18.8564 19.0882 18.8179 19.1378 18.7923 19.202L17.6077 22.577ZM19.4637 27.8463C19.8276 27.8463 20.1362 27.7188 20.3895 27.464C20.6427 27.2093 20.7692 26.9001 20.7692 26.5363C20.7692 26.1724 20.6419 25.8638 20.3872 25.6105C20.1324 25.3573 19.8231 25.2308 19.4592 25.2308C19.0954 25.2308 18.7869 25.3581 18.5338 25.6128C18.2804 25.8676 18.1537 26.1769 18.1537 26.5408C18.1537 26.9046 18.2812 27.2131 18.536 27.4663C18.7907 27.7196 19.0999 27.8463 19.4637 27.8463ZM28.5408 27.8463C28.9046 27.8463 29.2131 27.7188 29.4663 27.464C29.7196 27.2093 29.8462 26.9001 29.8462 26.5363C29.8462 26.1724 29.7188 25.8638 29.464 25.6105C29.2093 25.3573 28.9001 25.2308 28.5363 25.2308C28.1724 25.2308 27.8638 25.3581 27.6105 25.6128C27.3573 25.8676 27.2308 26.1769 27.2308 26.5408C27.2308 26.9046 27.3581 27.2131 27.6128 27.4663C27.8676 27.7196 28.1769 27.8463 28.5408 27.8463ZM17 29H31V24.077H17V29Z" fill="white"/>
</g>
<circle cx="88" cy="24" r="24" fill="#313131"/>
<mask id="mask1_208_4367" style="mask-type:alpha" maskUnits="userSpaceOnUse" x="76" y="12" width="24" height="24">
<rect x="76" y="12" width="24" height="24" fill="#D9D9D9"/>
</mask>
<g mask="url(#mask1_208_4367)">
<path d="M81.1905 33.6922C79.8917 33.6922 78.7853 33.2346 77.8713 32.3192C76.9571 31.4039 76.5 30.2968 76.5 28.998C76.5 27.6993 76.9577 26.5929 77.873 25.6787C78.7885 24.7647 79.8956 24.3077 81.1943 24.3077C82.4929 24.3077 83.5993 24.7654 84.5135 25.6807C85.4275 26.5961 85.8845 27.7032 85.8845 29.002C85.8845 30.3007 85.4268 31.4071 84.5115 32.3212C83.5962 33.2352 82.4892 33.6922 81.1905 33.6922ZM81.19 32.1922C82.0762 32.1922 82.8302 31.8822 83.452 31.262C84.0738 30.6417 84.3848 29.8884 84.3848 29.0022C84.3848 28.1161 84.0746 27.3621 83.4543 26.7402C82.8339 26.1186 82.0807 25.8077 81.1945 25.8077C80.3085 25.8077 79.5546 26.1178 78.9327 26.738C78.3109 27.3583 78 28.1116 78 28.9977C78 29.8839 78.3102 30.6379 78.9305 31.2597C79.5507 31.8814 80.3038 32.1922 81.19 32.1922ZM89.2 19.7537L86.5115 22.4422L88.248 24.2635C88.4122 24.4275 88.5368 24.6166 88.622 24.8307C88.7073 25.0449 88.75 25.2692 88.75 25.5037V30C88.75 30.2125 88.6781 30.3906 88.5343 30.5342C88.3904 30.6781 88.2122 30.75 87.9998 30.75C87.7871 30.75 87.609 30.6781 87.4655 30.5342C87.3218 30.3906 87.25 30.2125 87.25 30V25.7787L83.9155 23.0652C83.741 22.9076 83.6086 22.7232 83.5183 22.512C83.4279 22.3008 83.3828 22.0787 83.3828 21.8457C83.3828 21.6127 83.4305 21.393 83.526 21.1865C83.6215 20.9802 83.7513 20.7949 83.9155 20.6307L86.773 17.773C86.9475 17.5987 87.1493 17.4663 87.3785 17.376C87.6078 17.2857 87.8482 17.2405 88.0997 17.2405C88.3512 17.2405 88.5918 17.2857 88.8212 17.376C89.0506 17.4663 89.2525 17.5987 89.427 17.773L91.327 19.673C91.7305 20.0745 92.1736 20.4017 92.6562 20.6547C93.1389 20.9079 93.6522 21.0782 94.1962 21.1655C94.4089 21.2027 94.5768 21.3039 94.7 21.4692C94.823 21.6346 94.8659 21.8237 94.8288 22.0365C94.7916 22.2493 94.6903 22.4172 94.525 22.5402C94.3597 22.6634 94.1706 22.7064 93.9578 22.6692C93.2269 22.5487 92.542 22.3234 91.903 21.9932C91.2638 21.6631 90.6872 21.241 90.173 20.727L89.2 19.7537ZM91.3077 17.4422C90.8217 17.4422 90.4086 17.2721 90.0682 16.9317C89.7279 16.5914 89.5577 16.1782 89.5577 15.6922C89.5577 15.2064 89.7279 14.7933 90.0682 14.453C90.4086 14.1125 90.8217 13.9422 91.3077 13.9422C91.7936 13.9422 92.2067 14.1125 92.547 14.453C92.8875 14.7933 93.0578 15.2064 93.0578 15.6922C93.0578 16.1782 92.8875 16.5914 92.547 16.9317C92.2067 17.2721 91.7936 17.4422 91.3077 17.4422ZM94.8057 33.6922C93.5071 33.6922 92.4007 33.2346 91.4865 32.3192C90.5725 31.4039 90.1155 30.2968 90.1155 28.998C90.1155 27.6993 90.5732 26.5929 91.4885 25.6787C92.4038 24.7647 93.5108 24.3077 94.8095 24.3077C96.1083 24.3077 97.2148 24.7654 98.1288 25.6807C99.0429 26.5961 99.5 27.7032 99.5 29.002C99.5 30.3007 99.0423 31.4071 98.127 32.3212C97.2115 33.2352 96.1044 33.6922 94.8057 33.6922ZM94.8055 32.1922C95.6915 32.1922 96.4454 31.8822 97.0673 31.262C97.6891 30.6417 98 29.8884 98 29.0022C98 28.1161 97.6898 27.3621 97.0695 26.7402C96.4493 26.1186 95.6962 25.8077 94.81 25.8077C93.9238 25.8077 93.1698 26.1178 92.548 26.738C91.9262 27.3583 91.6152 28.1116 91.6152 28.9977C91.6152 29.8839 91.9254 30.6379 92.5458 31.2597C93.1661 31.8814 93.9193 32.1922 94.8055 32.1922Z" fill="white"/>
</g>
</svg>
